<?xml version="1.0" encoding="UTF-8"?>
<svg id="uuid-9df60920-43b0-495c-a72f-62cb5b7a43af" data-name="Migration Routes::Continental" xmlns="http://www.w3.org/2000/svg" viewBox="0 0 1920 960">
  <defs>
    <style>
      .uuid-f079d7f6-9158-4af2-9b5e-7af56ead7f9b {
        fill: none;
        stroke: blue;
        stroke-linecap: round;
        stroke-linejoin: round;
        stroke-width: 1.5px;
      }
    </style>
  </defs>
  <path class="uuid-f079d7f6-9158-4af2-9b5e-7af56ead7f9b" d="M223.79,163.27c.28-.23.56-.47.83-.71.28-.24.56-.48.83-.71.14-.12.28-.24.42-.36.14-.12.28-.24.42-.36.28-.24.56-.48.84-.72.28-.24.56-.48.84-.71.28-.24.56-.47.85-.7.57-.47,1.14-.92,1.72-1.37.58-.45,1.17-.89,1.77-1.32.6-.43,1.2-.84,1.81-1.25s1.23-.8,1.85-1.18c.63-.38,1.26-.75,1.9-1.11.64-.36,1.28-.7,1.93-1.04.65-.34,1.31-.66,1.97-.98.66-.32,1.33-.62,2-.92.67-.3,1.35-.59,2.03-.87.67-.28,1.35-.56,2.03-.83s1.36-.53,2.05-.79c.69-.26,1.38-.52,2.07-.77.69-.25,1.39-.5,2.08-.75.69-.24,1.38-.48,2.07-.72.69-.24,1.39-.47,2.08-.71.7-.23,1.4-.46,2.09-.69.7-.23,1.4-.45,2.11-.68.69-.22,1.39-.43,2.08-.65.7-.21,1.4-.42,2.1-.63.71-.21,1.41-.41,2.12-.6.71-.2,1.43-.39,2.15-.58.7-.18,1.4-.36,2.1-.53.71-.17,1.42-.34,2.13-.5.36-.08.72-.16,1.08-.24.36-.08.72-.16,1.08-.23.36-.08.73-.15,1.09-.23.37-.07.73-.15,1.1-.22.35-.07.71-.14,1.06-.2.36-.07.71-.13,1.07-.2.36-.07.72-.13,1.08-.19.36-.06.72-.13,1.08-.19.36-.06.72-.12,1.09-.19.36-.06.73-.12,1.09-.19.18-.03.36-.06.55-.09.18-.03.37-.06.55-.09.37-.06.73-.12,1.1-.19.72-.08,4.96-.57,5.68-.66,1.43-.17,2.91-.36,4.34-.54l1.08-.14c.36-.05.72-.09,1.08-.14.72-.09,1.44-.19,2.17-.28.72-.1,1.44-.19,2.16-.29.72-.1,1.44-.2,2.16-.3.72-.1,1.44-.2,2.16-.3.73-.1,1.43-.2,2.16-.3l1.08-.15c.18-.02.36-.05.54-.08.18-.03.36-.05.54-.08.72-.1,1.44-.2,2.16-.3.72-.1,1.44-.2,2.16-.3.72-.1,1.44-.19,2.17-.29,1.45-.18,2.89-.36,4.34-.51.72-.08,1.45-.15,2.17-.22.36-.03.72-.07,1.09-.1.36-.03.72-.06,1.09-.09.73-.06,1.45-.11,2.18-.16.73-.05,1.45-.09,2.18-.13.73-.04,1.45-.08,2.18-.11.73-.04,1.45-.07,2.18-.1.73-.03,1.45-.06,2.18-.09.36-.02.73-.03,1.09-.05s.73-.03,1.09-.05c.73-.03,1.45-.07,2.18-.11.73-.04,1.45-.08,2.18-.13,1.47-.1,2.89-.2,4.35-.34.73-.07,1.45-.13,2.17-.21s1.45-.15,2.17-.23c.18-.02.36-.04.54-.06l.54-.06c.36-.04.72-.08,1.09-.12.36-.04.73-.08,1.09-.12.36-.04.72-.08,1.09-.12.73-.08,1.45-.16,2.18-.24.73-.08,1.45-.16,2.18-.23s1.45-.14,2.18-.21c.73-.07,1.45-.13,2.18-.19.18-.01.36-.03.54-.04.18-.01.36-.03.55-.04.36-.03.73-.06,1.09-.08.73-.05,1.45-.1,2.18-.15.36-.02.73-.05,1.09-.07.36-.02.73-.05,1.09-.07.73-.05,1.46-.09,2.19-.14.73-.05,1.46-.1,2.19-.15.73-.05,1.45-.11,2.18-.17.36-.03.73-.06,1.09-.1.18-.02.36-.04.54-.05.18-.02.36-.04.54-.06.73-.07,1.45-.16,2.17-.25,1.46-.18,2.88-.38,4.33-.62,1.45-.24,2.86-.5,4.3-.77.72-.14,1.43-.28,2.15-.42l.27-.05.27-.05c.18-.04.36-.07.54-.11.36-.07.72-.15,1.07-.22.36-.07.72-.15,1.07-.22.36-.07.71-.15,1.07-.22.72-.15,1.42-.29,2.15-.44.72-.15,1.43-.29,2.15-.43.72-.14,1.43-.28,2.15-.42.72-.14,1.43-.28,2.15-.42.36-.07.72-.14,1.07-.21.09-.02.18-.04.27-.05l.27-.05c.18-.03.36-.07.54-.1l1.07-.2c.36-.07.72-.14,1.07-.2.36-.07.71-.14,1.07-.2.36-.07.71-.13,1.07-.2.36-.07.71-.13,1.07-.2.36-.06.71-.13,1.07-.19.71-.13,1.42-.25,2.13-.37.71-.12,1.42-.24,2.13-.34.71-.11,1.42-.21,2.13-.3,1.43-.18,2.84-.32,4.28-.42.72-.05,1.43-.08,2.15-.1.72-.02,1.44-.03,2.16-.02.72,0,1.45.02,2.17.05.73.03,1.46.07,2.18.11.18.01.36.02.55.04.09,0,.18.01.27.02.05,0,.09,0,.14.01s.09,0,.14.01c.36.03.73.06,1.1.09.73.06,1.46.13,2.19.21.73.08,1.46.16,2.19.25.73.09,1.46.18,2.19.28.72.1,1.45.2,2.17.32.72.11,1.44.23,2.16.36.36.06.72.13,1.07.2.18.03.36.07.53.1.09.02.18.04.27.05.09.02.18.04.27.05.71.14,1.42.3,2.12.46.71.16,1.41.34,2.11.52.7.18,1.4.37,2.1.58s1.39.41,2.09.62c.35.11.7.21,1.04.32l1.04.33c.7.22,1.39.44,2.09.65.17.05.35.11.52.16s.35.11.52.16c.35.11.7.21,1.05.31.7.2,1.4.4,2.11.58.71.18,1.41.35,2.13.51.71.16,1.42.3,2.14.43.72.13,1.43.25,2.16.36.72.11,1.44.2,2.17.29.36.04.72.08,1.09.12.09.01.18.02.27.03.09,0,.18.02.27.03.18.02.36.04.54.05.36.04.73.07,1.09.1.36.03.73.07,1.09.1.36.03.73.06,1.09.1.37.03.72.06,1.09.1.37.03.73.06,1.09.1.36.03.73.07,1.09.1.73.07,1.44.14,2.18.22.36.04.72.08,1.09.12.36.04.72.08,1.09.12.36.04.72.08,1.09.12.18.02.36.04.54.06l.54.06c.36.04.72.08,1.09.12.36.04.72.08,1.09.12.72.07,1.45.14,2.17.21.72.06,1.45.11,2.17.15.73.04,1.45.07,2.18.08.73.01,1.45,0,2.18-.01.73-.02,1.45-.06,2.18-.12.36-.03.73-.06,1.09-.1.36-.04.72-.08,1.09-.13.72-.09,1.45-.2,2.17-.33s1.44-.27,2.15-.42c.71-.16,1.43-.33,2.14-.51.71-.18,1.42-.37,2.12-.57.7-.2,1.4-.41,2.1-.62.35-.11.7-.22,1.04-.33.17-.05.35-.11.52-.17.09-.03.17-.06.26-.08.09-.03.17-.06.26-.08.69-.22,1.38-.45,2.07-.68.69-.23,1.37-.47,2.06-.7s1.37-.48,2.05-.72,1.36-.48,2.05-.73c.68-.25,1.36-.49,2.05-.74.34-.12.68-.25,1.02-.37.34-.12.68-.25,1.02-.37l.51-.19c.17-.06.34-.12.51-.19.34-.12.69-.25,1.03-.37.68-.25,1.38-.5,2.06-.74.69-.25,1.38-.49,2.07-.73s1.38-.48,2.08-.71c.69-.23,1.39-.46,2.09-.68.7-.22,1.39-.44,2.09-.64.35-.1.7-.2,1.05-.3.09-.02.18-.05.26-.07.09-.02.18-.05.26-.07.17-.05.35-.1.53-.14.7-.19,1.4-.37,2.11-.55.7-.17,1.41-.34,2.12-.5,1.42-.32,2.83-.6,4.26-.86.71-.13,1.43-.26,2.14-.38.71-.12,1.43-.24,2.15-.36.36-.06.72-.12,1.08-.18.36-.06.72-.12,1.08-.18.36-.06.72-.12,1.08-.18.36-.06.72-.12,1.08-.18s.72-.12,1.08-.18c.36-.06.72-.12,1.09-.17.36-.06.72-.12,1.09-.17s.72-.11,1.09-.17c.72-.11,1.45-.22,2.17-.32.72-.1,1.45-.2,2.18-.29.18-.02.36-.04.54-.07.09-.01.18-.02.27-.03s.18-.02.27-.03c.36-.04.72-.08,1.09-.11.72-.07,1.45-.13,2.17-.18.72-.05,1.45-.08,2.17-.1s1.45-.02,2.17-.01c.72.01,1.45.04,2.17.08.72.04,1.44.1,2.17.17.36.04.72.07,1.08.11.18.02.36.04.54.06.05,0,.09.01.13.02l.14.02c.09.01.18.02.27.03.72.09,1.44.2,2.16.31.72.11,1.44.24,2.16.37s1.44.27,2.15.41c.71.14,1.43.29,2.14.45.71.16,1.42.32,2.13.49.71.17,1.41.34,2.12.53.09.02.18.05.26.07.09.02.18.05.26.07.18.05.35.09.53.14.35.1.7.19,1.05.29s.7.2,1.04.31c.35.1.69.21,1.04.32.69.22,1.38.45,2.06.69.68.24,1.36.5,2.03.76.68.27,1.34.55,2.01.84.67.3,1.33.6,1.98.92.33.16.65.32.98.49.08.04.16.08.24.13.08.04.16.08.24.13.16.08.32.17.48.26.64.35,1.28.7,1.92,1.07s1.26.75,1.88,1.13c.62.39,1.24.78,1.85,1.19.61.4,1.22.82,1.82,1.24.6.42,1.19.84,1.78,1.28.59.43,1.17.87,1.75,1.31.58.44,1.15.89,1.72,1.34.57.45,1.13.91,1.69,1.37,1.12.93,2.22,1.87,3.31,2.82.54.48,1.09.96,1.63,1.45.54.48,1.08.97,1.61,1.46.13.12.27.25.4.37.07.06.13.12.2.18.07.06.13.12.2.19.27.25.53.49.8.74.53.49,1.07,1,1.6,1.49.53.5,1.06,1,1.59,1.51.53.5,1.06,1.01,1.58,1.52.52.51,1.05,1.02,1.56,1.53s1.03,1.03,1.55,1.55c.25.26.51.52.76.78.13.13.25.26.38.39l.38.39c.5.53,1,1.06,1.49,1.6.98,1.08,1.93,2.17,2.86,3.3.93,1.13,1.81,2.28,2.67,3.46.43.59.85,1.19,1.26,1.79.1.15.2.3.31.45.1.15.2.3.3.45.2.3.4.61.6.91.4.61.78,1.23,1.17,1.85.38.62.76,1.24,1.13,1.87.37.63.74,1.26,1.1,1.89.36.63.72,1.26,1.07,1.9.35.63.7,1.27,1.05,1.91.17.32.35.64.52.96.17.32.34.64.51.96.34.64.68,1.29,1.01,1.93.33.64.67,1.29.99,1.94.33.65.65,1.3.97,1.95.32.65.64,1.31.95,1.97.62,1.32,1.23,2.64,1.81,3.98.29.67.58,1.34.86,2.01.28.67.55,1.35.82,2.03.27.68.53,1.36.78,2.04.25.68.51,1.37.75,2.05s.48,1.38.71,2.07.45,1.39.66,2.08c.11.35.21.7.31,1.05.1.35.2.7.3,1.05.2.7.38,1.41.56,2.11.17.71.34,1.42.49,2.13.15.71.28,1.43.4,2.15s.22,1.44.31,2.16c.09.72.16,1.44.21,2.17.03.36.05.72.07,1.09.01.18.02.36.02.54,0,.09,0,.18.01.27s0,.18,0,.27c.02.73.03,1.45.02,2.18,0,.73-.03,1.45-.05,2.18-.03.73-.07,1.46-.11,2.18-.02.36-.04.73-.07,1.09-.02.36-.05.73-.07,1.09-.02.36-.05.73-.07,1.09-.01.18-.02.36-.04.54-.01.18-.11,1.77-.12,1.95,0,.16,0,.32,0,.48.01.33.04.65.07.97.04.33.09.66.15.99.03.17.07.34.1.5.04.17.08.34.12.51.04.17.08.35.13.52.05.18.1.36.14.53.03.09.05.18.08.27.03.09.05.18.08.28.03.09.05.19.08.28.03.1.06.19.09.28.03.1.06.19.09.29.03.1.06.19.09.29.03.1.06.2.09.3.03.1.06.2.1.3.03.1.07.2.1.31.03.1.07.21.1.31.03.11.07.21.1.32.03.11.07.21.1.32.04.11.07.22.1.33.04.11.07.22.11.33l.21.67c.07.23.15.46.22.69.04.12.07.23.11.35s.07.24.11.35c.08.24.15.48.23.72.07.24.15.49.23.74.08.25.15.5.23.75.08.25.15.5.23.75.15.51.3,1.02.45,1.53.15.51.29,1.03.44,1.54.14.51.28,1.02.42,1.54l.2.76c.07.25.13.5.2.76.06.25.13.5.19.75l.19.74c.06.24.12.48.18.73.06.24.12.48.18.72.06.23.12.47.18.7.06.23.11.46.17.69.06.23.11.45.17.68.05.22.11.44.16.66.05.22.11.43.16.65.05.21.11.42.16.64l.16.63c.05.2.1.41.16.61.1.4.2.79.31,1.19.1.38.2.76.3,1.14.05.19.1.37.15.56.05.18.1.36.15.55.05.18.1.36.16.54.05.18.1.35.16.53.05.17.1.35.16.52.05.17.11.34.16.51.11.34.22.67.33,1.01.11.33.22.66.34.98.03.08.06.16.09.24.03.08.06.16.09.24.06.16.11.32.17.48.12.32.23.63.35.95.12.31.24.62.36.93.16.4.32.8.48,1.2.16.39.32.79.49,1.18.16.39.33.78.49,1.17.16.39.33.78.5,1.17.08.19.17.39.25.58.08.19.17.39.25.58.08.19.17.39.25.58.02.05.04.1.06.14.02.05.04.1.06.14.04.1.08.19.12.29.17.39.33.77.5,1.16.17.39.33.77.49,1.16.17.39.33.77.49,1.16.17.39.33.77.49,1.16.16.39.33.77.49,1.16.16.39.33.77.49,1.16.17.39.33.77.49,1.16.08.19.16.39.25.58.08.19.17.39.25.58.17.39.33.77.5,1.16s.33.77.5,1.16c.17.39.33.77.5,1.15l.25.58c.08.19.17.38.25.58.17.38.34.77.5,1.15.17.39.33.77.5,1.16.08.19.17.39.25.58.04.1.08.19.12.29.04.1.08.19.12.29.16.39.32.77.48,1.16.16.39.32.78.47,1.17.16.39.31.78.46,1.17.15.39.3.78.45,1.18l.22.59c.07.2.15.39.22.59.15.39.3.79.45,1.18.15.39.3.78.46,1.18.04.1.08.19.12.29l.06.15s.04.1.06.15c.08.19.16.39.24.58.16.39.32.77.49,1.16.34.77.68,1.52,1.05,2.28.18.38.37.75.57,1.12.19.37.39.74.59,1.11s.4.74.61,1.1c.1.18.21.37.31.55.05.09.1.18.16.27.03.05.05.09.08.14.03.05.05.09.08.14.1.18.21.36.31.55s.21.36.32.55c.11.18.21.36.32.55.11.18.21.37.32.55.21.37.42.73.63,1.1.21.37.42.73.63,1.1.1.18.21.37.31.55.1.18.21.37.31.55.1.18.21.37.31.55.1.18.21.37.31.55.21.37.42.74.63,1.1.05.09.11.18.16.27.03.05.05.09.08.14.03.05.05.09.08.14.11.18.21.36.32.54.22.36.44.72.66,1.07.23.35.46.7.69,1.05.24.35.48.69.72,1.03.25.34.5.67.76,1,.26.33.52.65.79.98s.54.64.82.96c.14.16.28.31.42.47.07.08.14.16.21.24l.21.23c.28.31.56.63.85.94.14.16.28.31.42.47s.28.31.42.47c.28.31.56.63.84.94.28.32.55.63.83.95.27.32.54.64.81.97.27.33.53.65.79.98.26.33.52.66.77,1,.13.17.25.34.38.5.13.17.25.34.38.51.25.34.5.68.75,1.02l.37.51c.12.17.25.34.37.51.25.34.5.68.75,1.02.25.34.5.67.76,1.01.25.34.51.67.76,1,.26.34.51.66.77,1,.26.33.52.66.78.99.13.16.26.33.39.49l.39.49c.26.33.53.66.79.99.27.33.53.66.79.99s.52.66.79.99.52.66.78.99.52.66.77,1c.26.33.51.67.77,1,.13.17.25.34.38.5.13.17.25.34.38.51.25.34.5.67.76,1.01.25.34.5.68.75,1.01.25.34.5.68.75,1.02.25.33.5.68.75,1.02.24.33.5.68.75,1.02.25.34.5.68.75,1.02.25.34.5.68.75,1.02.12.17.25.34.37.51s.25.34.37.51c.25.34.49.68.74,1.02s.49.68.74,1.03c.25.35.49.68.74,1.03.12.17.24.34.37.52s.24.34.37.52c.24.34.49.69.74,1.03.25.34.49.69.74,1.03.12.17.25.34.37.51.06.08.12.17.19.25l.19.25c.25.34.5.68.75,1.01.51.68,1.02,1.33,1.54,1.99.53.66,1.06,1.3,1.6,1.94.27.32.55.63.82.95s.56.63.84.94c.07.08.14.16.21.23.07.08.14.15.21.23.14.16.28.31.43.46.29.31.57.61.86.92.57.6,1.17,1.22,1.75,1.81.29.3.59.6.89.89.3.3.6.59.9.89.3.29.61.58.91.87.15.14.31.29.46.43.08.07.15.14.23.21.08.07.16.14.23.21.31.28.63.56.94.83.32.27.64.54.96.81.65.53,1.31,1.04,2,1.54s1.38.96,2.09,1.41c.36.23.71.45,1.07.66.09.05.18.11.27.16.09.05.18.11.27.16.18.11.36.21.55.32.37.21.74.42,1.11.62s.74.4,1.12.6c.37.2.75.39,1.12.59.37.19.75.39,1.13.58.75.38,1.51.76,2.27,1.12.19.09.38.18.57.28.1.05.19.09.28.14s.19.09.28.14c.38.18.76.36,1.14.54.76.36,1.52.71,2.29,1.05.77.35,1.53.68,2.31,1.02.78.34,1.54.66,2.32.99.19.08.39.16.58.25.19.08.39.16.58.24.38.16.78.33,1.16.49.19.08.39.16.58.24.19.08.39.16.58.24.19.08.39.16.58.24.19.08.39.16.58.24s.39.16.58.24c.19.08.39.16.58.24.39.16.78.32,1.16.48s.77.32,1.16.48c.19.08.39.16.58.24.1.04.19.08.29.12.1.04.19.08.29.12.78.31,1.55.61,2.34.9.79.29,1.57.57,2.37.84.4.14.8.27,1.19.4s.8.26,1.2.39c.4.13.8.26,1.2.38l.3.1s.1.03.15.05c.05.02.1.03.15.05.2.06.4.13.6.19.41.13.8.25,1.21.38s.8.25,1.21.39.8.26,1.2.39.8.27,1.2.4c.4.14.8.27,1.2.41.4.14.79.28,1.19.42.4.14.79.28,1.19.43.4.14.79.28,1.19.43.4.14.79.28,1.19.43.4.14.79.28,1.19.42.4.14.79.28,1.19.41.4.14.8.27,1.2.41.4.14.8.27,1.2.4.2.07.4.13.6.2.2.07.4.13.6.2.2.07.4.13.6.2l.3.1c.1.03.2.07.3.1.4.14.8.28,1.19.42.4.14.79.28,1.19.43s.79.29,1.18.45c.39.15.78.31,1.17.47.39.16.78.33,1.16.49.39.17.77.34,1.16.52.38.17.77.35,1.15.54.1.05.19.09.29.14.1.05.19.09.29.14.19.09.38.19.57.28.38.19.76.38,1.13.57.74.38,1.5.78,2.23,1.19.37.2.74.41,1.1.62.36.21.73.42,1.09.64.36.22.72.43,1.07.66.18.11.35.23.53.34.04.03.09.06.13.09.04.03.09.06.13.09.09.06.17.12.26.17.34.24.68.48,1.02.72s.66.5.99.76c.65.52,1.27,1.07,1.87,1.65.3.29.59.59.88.89.29.31.57.62.84.94.28.32.54.65.8.98.03.04.07.08.1.12.02.02.03.04.05.06.02.02.03.04.05.06.07.08.13.17.19.25.13.17.25.34.38.51.25.34.5.69.74,1.04.24.35.48.71.71,1.06.46.71.91,1.44,1.35,2.17.22.36.43.73.64,1.1.21.37.42.73.63,1.1.1.18.21.37.31.55.03.05.05.09.08.14.03.05.05.09.08.14l.15.28c.1.18.2.37.31.55.1.18.2.37.3.55.1.18.2.37.3.55.1.18.2.37.3.55.2.37.41.73.61,1.1s.41.73.63,1.09c.21.36.43.72.65,1.08.22.36.45.72.69,1.07.24.35.48.7.73,1.05l.1.13s.03.04.05.06l.05.06c.06.09.13.17.19.26.13.17.26.34.4.51.27.33.55.66.84.98.29.32.59.63.9.93.31.3.64.59.97.87.33.28.68.55,1.03.8.35.25.72.5,1.09.72.37.23.75.44,1.14.63.19.1.39.19.58.28.2.09.39.17.59.25.39.16.79.3,1.2.42.4.12.81.22,1.21.29.4.08.81.13,1.22.16.41.03.81.04,1.22.03.41-.01.81-.05,1.22-.1.41-.06.81-.13,1.21-.23.41-.1.81-.21,1.21-.34.02,0,.05-.02.08-.02.01,0,.02,0,.04-.01h.04c.05-.03.1-.05.15-.06.1-.04.2-.07.3-.11.2-.07.4-.15.6-.23.2-.08.4-.16.6-.24.2-.08.4-.17.6-.25.2-.08.41-.17.61-.25s.4-.17.61-.25c.2-.08.4-.16.6-.23.2-.07.4-.14.6-.21.2-.06.4-.13.6-.18.2-.05.4-.1.6-.14.19-.04.39-.07.59-.09.19-.02.39-.03.58-.03.19,0,.38,0,.57.03.19.02.37.05.55.1s.36.11.54.18c.01,0,.02,0,.03.01.01,0,.02,0,.03.01.02.01.04.02.06.03.04.02.09.04.13.06.09.04.17.09.25.14.17.1.33.21.49.33.08.06.16.13.23.19s.15.14.22.21c.07.07.14.15.21.23.07.08.14.16.2.25.13.17.26.35.37.53.12.19.23.38.33.58.1.2.19.41.28.61.08.21.16.42.22.63.06.21.12.42.17.64.05.21.08.42.12.63.02.1.03.21.04.31s.02.2.03.31c0,.1.02.2.02.3,0,.1.01.2.02.3,0,.1,0,.2.01.3,0,.05,0,.1,0,.15,0,.05,0,.1,0,.15,0,.1,0,.2.01.3,0,.05,0,.1,0,.16s0,.1.01.16,0,.11.01.16c0,.06.01.11.02.17,0,.06.01.11.02.17,0,.06.01.12.02.18.02.09.04.19.06.28.03.1.06.19.09.29.04.1.08.2.12.29.05.1.1.2.15.29.05.1.11.2.17.29.06.1.13.19.19.29.07.1.14.19.22.29.07.1.15.19.23.29.08.1.16.19.24.28.08.1.17.19.25.28.08.09.17.19.26.28l.26.28c.09.09.17.18.26.28.09.09.17.18.26.28.17.18.34.37.5.56.16.19.31.37.46.57.14.19.28.38.41.58.13.2.24.4.35.6.05.1.11.2.16.31.01.03.02.05.04.08s.02.05.04.08c.02.05.05.1.07.16.09.21.17.42.25.64.07.22.14.44.2.66.06.22.12.45.17.68.05.23.1.46.15.69.02.12.05.23.07.35.02.12.05.23.07.35.02.12.04.24.06.35s.04.24.06.35l.06.36c.02.12.04.24.07.36.04.24.09.47.13.71.05.24.09.47.14.71.02.12.05.24.07.36.02.12.05.24.07.35s.05.24.07.35c.02.12.05.23.07.35.01.06.02.12.03.18,0,.01,0,.03,0,.04,0,.01,0,.03,0,.04,0,.03.01.06.02.09.02.12.05.23.07.35.04.23.08.46.12.7.04.23.07.46.1.69.03.23.05.46.07.68.02.23.03.45.04.68,0,.45,0,.89-.06,1.34-.03.22-.06.44-.1.66-.04.22-.1.44-.16.66-.06.22-.13.43-.21.65-.08.22-.16.43-.26.64-.05.11-.1.21-.14.32-.02.05-.05.11-.08.16-.01.03-.03.05-.04.08,0,.01-.01.03-.02.04,0,.01-.01.03-.02.04-.11.21-.22.42-.34.63-.12.21-.25.42-.37.62-.13.21-.27.41-.4.61-.14.2-.28.4-.42.6-.14.2-.29.4-.44.6-.15.2-.3.39-.45.59-.15.19-.3.39-.45.58-.07.1-.15.19-.23.29-.07.1-.15.19-.22.29-.07.09-.15.19-.22.28-.07.1-.15.19-.22.28-.15.19-.29.38-.44.57-.14.19-.29.37-.43.56-.07.09-.14.19-.21.28-.02.02-.04.05-.05.07,0,.01-.02.02-.03.04,0,.01-.02.02-.02.04-.04.05-.07.09-.1.14-.14.19-.27.37-.41.56-.27.37-.52.75-.78,1.13-.25.38-.49.77-.73,1.16-.24.39-.47.79-.69,1.19-.22.4-.44.81-.65,1.22-.21.42-.42.83-.61,1.26-.02.05-.05.11-.07.16-.01.03-.02.05-.04.08-.01.03-.02.05-.04.08-.05.11-.1.21-.14.32-.09.22-.19.43-.28.65-.18.44-.35.87-.52,1.32-.16.44-.32.89-.46,1.34-.15.45-.28.9-.41,1.36-.13.46-.25.91-.36,1.37-.06.23-.11.46-.16.69-.03.11-.05.23-.08.34-.01.06-.02.11-.04.17,0,.03-.01.06-.02.09,0,.03-.01.06-.02.09-.1.46-.19.92-.28,1.37-.09.46-.18.92-.26,1.37-.04.23-.08.46-.13.69-.04.23-.08.46-.13.69-.04.23-.08.46-.13.69-.04.23-.09.46-.13.68-.09.46-.18.91-.27,1.37-.05.23-.09.46-.14.69-.05.23-.09.46-.14.69s-.1.46-.14.69c-.05.23-.1.46-.14.69-.05.23-.1.46-.14.69-.05.23-.1.46-.14.69-.1.46-.19.92-.28,1.38-.09.46-.18.92-.25,1.39-.08.46-.15.93-.21,1.39-.03.23-.06.47-.08.7,0,.06-.01.12-.02.17,0,.06-.01.12-.02.18-.01.12-.02.23-.03.35-.04.47-.06.93-.08,1.4-.01.47,0,.94.01,1.4.02.47.06.93.11,1.4.06.47.13.93.22,1.39.09.46.19.92.32,1.38.03.11.06.23.09.34.02.06.03.11.05.17s.03.11.05.17c.07.23.14.45.22.68.15.45.32.89.49,1.33.35.88.76,1.74,1.19,2.58.22.42.45.83.68,1.24.23.41.48.81.72,1.21.06.1.12.2.19.3.06.1.13.2.19.3.13.2.26.39.39.59.26.39.53.78.8,1.16.54.77,1.1,1.53,1.67,2.28.29.38.57.75.86,1.13.14.19.29.37.43.56.07.09.15.19.22.28.07.09.15.19.22.28.14.19.29.37.44.56l.43.56c.29.37.58.74.87,1.12.29.37.57.74.86,1.12.28.37.57.75.85,1.12.28.37.56.75.83,1.13.14.19.27.38.41.57.03.05.07.09.1.14.03.05.07.09.1.14.07.09.14.19.2.28.27.38.54.76.81,1.13s.54.76.8,1.14c.27.38.53.77.8,1.15.27.39.53.77.79,1.16s.52.78.78,1.17c.13.2.26.39.39.59.03.05.07.1.1.15.03.05.07.1.1.15.07.1.13.2.19.29.13.2.26.39.39.59.13.2.26.4.39.59l.39.59c.13.2.26.4.39.6s.26.4.39.6c.13.2.26.4.39.6.26.4.52.79.79,1.18s.53.78.81,1.17c.07.1.14.19.2.29.03.05.07.1.1.14.04.05.07.1.1.14.14.19.28.38.42.57.57.75,1.15,1.47,1.78,2.17.31.35.63.69.96,1.02.33.33.66.66,1,.98s.69.63,1.04.94l.13.12s.09.08.13.12c.09.08.18.15.27.23.18.15.36.3.54.46.36.3.72.6,1.09.9.18.15.36.3.55.45.18.15.37.3.55.45.37.3.73.6,1.09.91.36.3.72.61,1.08.92.18.16.36.31.53.47.09.08.18.16.26.24.04.04.09.08.13.12.04.04.09.08.13.12.35.32.69.64,1.03.97.34.33.67.66,1,.99.33.33.66.67.98,1.01s.64.69.95,1.04.62.7.93,1.05c.15.18.3.35.46.53.08.09.15.18.23.27.08.09.15.18.23.27.3.36.6.72.89,1.08s.59.73.89,1.09c.15.18.29.36.44.55.15.18.29.37.44.55.29.37.59.73.89,1.1.3.36.59.73.9,1.09.15.18.3.36.45.54.15.18.3.36.46.54.31.36.62.71.93,1.06.31.35.63.7.95,1.04s.64.68.97,1.02.65.67.98,1.01.66.67.99,1c.08.08.17.17.25.25.08.08.17.17.25.25.17.17.33.33.5.5.33.34.66.67.99,1.01s.65.67.98,1.02.64.68.96,1.03c.16.17.32.34.48.52.16.17.32.35.48.52.16.17.32.35.48.52.16.17.32.35.48.52.16.17.32.34.48.52s.32.34.48.51c.33.34.65.67.99,1s.67.65,1.02.97c.35.32.7.63,1.06.93.36.3.72.6,1.1.89.37.29.75.57,1.13.84.1.07.19.14.29.2s.19.13.29.2c.19.13.39.27.59.4.39.26.79.52,1.19.77.4.25.8.49,1.21.74.4.24.81.48,1.22.72.4.24.82.47,1.22.7.2.12.41.23.61.35.2.12.41.23.61.34.41.23.82.46,1.23.68.41.23.83.45,1.24.67.42.22.83.44,1.25.66.42.22.84.43,1.27.64s.85.41,1.28.61c.21.1.43.2.64.29.05.02.11.05.16.07.05.02.11.05.16.07.11.05.22.09.32.14.43.19.86.37,1.3.54s.87.34,1.31.5c.44.16.88.31,1.32.46.22.07.44.15.66.22.22.07.44.14.67.21.22.07.45.14.67.21.11.04.22.07.33.11.11.04.22.07.34.11.46.14,3.43,1.11,3.9,1.23.45.12.9.23,1.36.33.44.1.89.19,1.34.27.44.08.87.14,1.31.2.47.06.94.11,1.41.16.46.04.93.07,1.39.09.91.04,1.82.04,2.73,0,.93-.04,1.85-.11,2.77-.21.91-.1,1.82-.24,2.73-.41.91-.17,1.81-.36,2.71-.59.89-.22,1.78-.47,2.66-.75.88-.28,1.76-.58,2.62-.92.86-.33,1.71-.69,2.54-1.08.84-.39,1.67-.81,2.48-1.26.8-.45,1.58-.93,2.34-1.45.76-.52,1.5-1.09,2.19-1.7.69-.61,1.35-1.25,1.95-1.95.3-.34.58-.69.85-1.06.27-.37.53-.74.77-1.13.24-.4.47-.8.68-1.21.21-.43.41-.86.58-1.3"/>
  <path class="uuid-f079d7f6-9158-4af2-9b5e-7af56ead7f9b" d="M223.79,163.27c.28-.23.56-.47.83-.71.28-.24.56-.48.83-.71.14-.12.28-.24.42-.36.14-.12.28-.24.42-.36.28-.24.56-.48.84-.72.28-.24.56-.48.84-.71.28-.24.56-.47.85-.7.57-.47,1.14-.92,1.72-1.37.58-.45,1.17-.89,1.77-1.32.6-.43,1.2-.84,1.81-1.25s1.23-.8,1.85-1.18c.63-.38,1.26-.75,1.9-1.11.64-.36,1.28-.7,1.93-1.04.65-.34,1.31-.66,1.97-.98.66-.32,1.33-.62,2-.92.67-.3,1.35-.59,2.03-.87.67-.28,1.35-.56,2.03-.83s1.36-.53,2.05-.79c.69-.26,1.38-.52,2.07-.77.69-.25,1.39-.5,2.08-.75.69-.24,1.38-.48,2.07-.72.69-.24,1.39-.47,2.08-.71.7-.23,1.4-.46,2.09-.69.7-.23,1.4-.45,2.11-.68.69-.22,1.39-.43,2.08-.65.7-.21,1.4-.42,2.1-.63.71-.21,1.41-.41,2.12-.6.71-.2,1.43-.39,2.15-.58.7-.18,1.4-.36,2.1-.53.71-.17,1.42-.34,2.13-.5.36-.08.72-.16,1.08-.24.36-.08.72-.16,1.08-.23.36-.08.73-.15,1.09-.23.37-.07.73-.15,1.1-.22.35-.07.71-.14,1.06-.2.36-.07.71-.13,1.07-.2.36-.07.72-.13,1.08-.19.36-.06.72-.13,1.08-.19.36-.06.72-.12,1.09-.19.36-.06.73-.12,1.09-.19.18-.03.36-.06.55-.09.18-.03.37-.06.55-.09.37-.06.73-.12,1.1-.19.72-.08,4.96-.57,5.68-.66,1.43-.17,2.91-.36,4.34-.54l1.08-.14c.36-.05.72-.09,1.08-.14.72-.09,1.44-.19,2.17-.28.72-.1,1.44-.19,2.16-.29.72-.1,1.44-.2,2.16-.3.72-.1,1.44-.2,2.16-.3.73-.1,1.43-.2,2.16-.3l1.08-.15c.18-.02.36-.05.54-.08.18-.03.36-.05.54-.08.72-.1,1.44-.2,2.16-.3.72-.1,1.44-.2,2.16-.3.72-.1,1.44-.19,2.17-.29,1.45-.18,2.89-.36,4.34-.51.72-.08,1.45-.15,2.17-.22.36-.03.72-.07,1.09-.1.36-.03.72-.06,1.09-.09.73-.06,1.45-.11,2.18-.16.73-.05,1.45-.09,2.18-.13.73-.04,1.45-.08,2.18-.11.73-.04,1.45-.07,2.18-.1.73-.03,1.45-.06,2.18-.09.36-.02.73-.03,1.09-.05s.73-.03,1.09-.05c.73-.03,1.45-.07,2.18-.11.73-.04,1.45-.08,2.18-.13,1.47-.1,2.89-.2,4.35-.34.73-.07,1.45-.13,2.17-.21s1.45-.15,2.17-.23c.18-.02.36-.04.54-.06l.54-.06c.36-.04.72-.08,1.09-.12.36-.04.73-.08,1.09-.12.36-.04.72-.08,1.09-.12.73-.08,1.45-.16,2.18-.24.73-.08,1.45-.16,2.18-.23s1.45-.14,2.18-.21c.73-.07,1.45-.13,2.18-.19.18-.01.36-.03.54-.04.18-.01.36-.03.55-.04.36-.03.73-.06,1.09-.08.73-.05,1.45-.1,2.18-.15.36-.02.73-.05,1.09-.07.36-.02.73-.05,1.09-.07.73-.05,1.46-.09,2.19-.14.73-.05,1.46-.1,2.19-.15.73-.05,1.45-.11,2.18-.17.36-.03.73-.06,1.09-.1.18-.02.36-.04.54-.05.18-.02.36-.04.54-.06.73-.07,1.45-.16,2.17-.25,1.46-.18,2.88-.38,4.33-.62,1.45-.24,2.86-.5,4.3-.77.72-.14,1.43-.28,2.15-.42l.27-.05.27-.05c.18-.04.36-.07.54-.11.36-.07.72-.15,1.07-.22.36-.07.72-.15,1.07-.22.36-.07.71-.15,1.07-.22.72-.15,1.42-.29,2.15-.44.72-.15,1.43-.29,2.15-.43.72-.14,1.43-.28,2.15-.42.72-.14,1.43-.28,2.15-.42.36-.07.72-.14,1.07-.21.09-.02.18-.04.27-.05l.27-.05c.18-.03.36-.07.54-.1l1.07-.2c.36-.07.72-.14,1.07-.2.36-.07.71-.14,1.07-.2.36-.07.71-.13,1.07-.2.36-.07.71-.13,1.07-.2.36-.06.71-.13,1.07-.19.71-.13,1.42-.25,2.13-.37.71-.12,1.42-.24,2.13-.34.71-.11,1.42-.21,2.13-.3,1.43-.18,2.84-.32,4.28-.42.72-.05,1.43-.08,2.15-.1.72-.02,1.44-.03,2.16-.02.72,0,1.45.02,2.17.05.73.03,1.46.07,2.18.11.18.01.36.02.55.04.09,0,.18.01.27.02.05,0,.09,0,.14.01s.09,0,.14.01c.36.03.73.06,1.1.09.73.06,1.46.13,2.19.21.73.08,1.46.16,2.19.25.73.09,1.46.18,2.19.28.72.1,1.45.2,2.17.32.72.11,1.44.23,2.16.36.36.06.72.13,1.07.2.18.03.36.07.53.1.09.02.18.04.27.05.09.02.18.04.27.05.71.14,1.42.3,2.12.46.71.16,1.41.34,2.11.52.7.18,1.4.37,2.1.58s1.39.41,2.09.62c.35.11.7.21,1.04.32l1.04.33c.7.22,1.39.44,2.09.65.17.05.35.11.52.16s.35.11.52.16c.35.11.7.21,1.05.31.7.2,1.4.4,2.11.58.71.18,1.41.35,2.13.51.71.16,1.42.3,2.14.43.72.13,1.43.25,2.16.36.72.11,1.44.2,2.17.29.36.04.72.08,1.09.12.09.01.18.02.27.03.09,0,.18.02.27.03.18.02.36.04.54.05.36.04.73.07,1.09.1.36.03.73.07,1.09.1.36.03.73.06,1.09.1.37.03.72.06,1.09.1.37.03.73.06,1.09.1.36.03.73.07,1.09.1.73.07,1.44.14,2.18.22.36.04.72.08,1.09.12.36.04.72.08,1.09.12.36.04.72.08,1.09.12.18.02.36.04.54.06l.54.06c.36.04.72.08,1.09.12.36.04.72.08,1.09.12.72.07,1.45.14,2.17.21.72.06,1.45.11,2.17.15.73.04,1.45.07,2.18.08.73.01,1.45,0,2.18-.01.73-.02,1.45-.06,2.18-.12.36-.03.73-.06,1.09-.1.36-.04.72-.08,1.09-.13.72-.09,1.45-.2,2.17-.33s1.44-.27,2.15-.42c.71-.16,1.43-.33,2.14-.51.71-.18,1.42-.37,2.12-.57.7-.2,1.4-.41,2.1-.62.35-.11.7-.22,1.04-.33.17-.05.35-.11.52-.17.09-.03.17-.06.26-.08.09-.03.17-.06.26-.08.69-.22,1.38-.45,2.07-.68.69-.23,1.37-.47,2.06-.7s1.37-.48,2.05-.72,1.36-.48,2.05-.73c.68-.25,1.36-.49,2.05-.74.34-.12.68-.25,1.02-.37.34-.12.68-.25,1.02-.37l.51-.19c.17-.06.34-.12.51-.19.34-.12.69-.25,1.03-.37.68-.25,1.38-.5,2.06-.74.69-.25,1.38-.49,2.07-.73s1.38-.48,2.08-.71c.69-.23,1.39-.46,2.09-.68.7-.22,1.39-.44,2.09-.64.35-.1.7-.2,1.05-.3.09-.02.18-.05.26-.07.09-.02.18-.05.26-.07.17-.05.35-.1.53-.14.7-.19,1.4-.37,2.11-.55.7-.17,1.41-.34,2.12-.5,1.42-.32,2.83-.6,4.26-.86.71-.13,1.43-.26,2.14-.38.71-.12,1.43-.24,2.15-.36.36-.06.72-.12,1.08-.18.36-.06.72-.12,1.08-.18.36-.06.72-.12,1.08-.18.36-.06.72-.12,1.08-.18s.72-.12,1.08-.18c.36-.06.72-.12,1.09-.17.36-.06.72-.12,1.09-.17s.72-.11,1.09-.17c.72-.11,1.45-.22,2.17-.32.72-.1,1.45-.2,2.18-.29.18-.02.36-.04.54-.07.09-.01.18-.02.27-.03s.18-.02.27-.03c.36-.04.72-.08,1.09-.11.72-.07,1.45-.13,2.17-.18.72-.05,1.45-.08,2.17-.1s1.45-.02,2.17-.01c.72.01,1.45.04,2.17.08.72.04,1.44.1,2.17.17.36.04.72.07,1.08.11.18.02.36.04.54.06.05,0,.09.01.13.02l.14.02c.09.01.18.02.27.03.72.09,1.44.2,2.16.31.72.11,1.44.24,2.16.37s1.44.27,2.15.41c.71.14,1.43.29,2.14.45.71.16,1.42.32,2.13.49.71.17,1.41.34,2.12.53.09.02.18.05.26.07.09.02.18.05.26.07.18.05.35.09.53.14.35.1.7.19,1.05.29s.7.2,1.04.31c.35.1.69.21,1.04.32.69.22,1.38.45,2.06.69.68.24,1.36.5,2.03.76.68.27,1.34.55,2.01.84.67.3,1.33.6,1.98.92.33.16.65.32.98.49.08.04.16.08.24.13.08.04.16.08.24.13.16.08.32.17.48.26.64.35,1.28.7,1.92,1.07s1.26.75,1.88,1.13c.62.39,1.24.78,1.85,1.19.61.4,1.22.82,1.82,1.24.6.42,1.19.84,1.78,1.28.59.43,1.17.87,1.75,1.31.58.44,1.15.89,1.72,1.34.57.45,1.13.91,1.69,1.37,1.12.93,2.22,1.87,3.31,2.82.54.48,1.09.96,1.63,1.45.54.48,1.08.97,1.61,1.46.13.12.27.25.4.37.07.06.13.12.2.18.07.06.13.12.2.19.27.25.53.49.8.74.53.49,1.07,1,1.6,1.49.53.5,1.06,1,1.59,1.51.53.5,1.06,1.01,1.58,1.52.52.51,1.05,1.02,1.56,1.53s1.03,1.03,1.55,1.55c.25.26.51.52.76.78.13.13.25.26.38.39l.38.39c.5.53,1,1.06,1.49,1.6.98,1.08,1.93,2.17,2.86,3.3.93,1.13,1.81,2.28,2.67,3.46.43.59.85,1.19,1.26,1.79.1.15.2.3.31.45.1.15.2.3.3.45.2.3.4.61.6.91.4.61.78,1.23,1.17,1.85.38.62.76,1.24,1.13,1.87.37.63.74,1.26,1.1,1.89.36.63.72,1.26,1.07,1.9.35.63.7,1.27,1.05,1.91.17.32.35.64.52.96.17.32.34.64.51.96.34.64.68,1.29,1.01,1.93.33.64.67,1.29.99,1.94.33.65.65,1.3.97,1.95.32.65.64,1.31.95,1.97.62,1.32,1.23,2.64,1.81,3.98.29.67.58,1.34.86,2.01.28.67.55,1.35.82,2.03.27.68.53,1.36.78,2.04.25.68.51,1.37.75,2.05s.48,1.38.71,2.07.45,1.39.66,2.08c.11.35.21.7.31,1.05.1.35.2.7.3,1.05.2.7.38,1.41.56,2.11.17.71.34,1.42.49,2.13.15.71.28,1.43.4,2.15s.22,1.44.31,2.16c.09.72.16,1.44.21,2.17.03.36.05.72.07,1.09.01.18.02.36.02.54,0,.09,0,.18.01.27s0,.18,0,.27c.02.73.03,1.45.02,2.18,0,.73-.03,1.45-.05,2.18-.03.73-.07,1.46-.11,2.18-.02.36-.04.73-.07,1.09-.02.36-.26,3.84-.29,4.2.1.01.21.02.31.02s.21,0,.31,0c.1,0,.21,0,.31,0s.21,0,.31-.01c.05,0,.11,0,.16,0s.11,0,.16,0c.11,0,.21,0,.31-.01s.21,0,.31,0c.1,0,.21,0,.31,0,.21,0,.42.01.62.03.21.02.41.04.62.07.21.03.41.07.61.12.2.05.41.1.61.16s.4.12.6.2c.2.07.39.15.59.23.39.16.77.34,1.13.54.18.1.36.2.54.31.18.11.35.22.53.33.17.11.34.23.51.35.17.12.33.24.49.37.32.26.62.53.91.82.29.29.57.59.83.91.26.32.51.65.74.99.23.35.45.7.65,1.07.2.37.39.75.57,1.13.18.38.35.77.51,1.17.16.39.31.79.46,1.19.15.4.29.8.43,1.19.14.4.28.79.42,1.19.02.05.04.1.05.15,0,.02.02.05.03.07s.02.05.03.07c.04.1.07.2.11.29.07.19.15.39.22.58.15.39.3.77.47,1.15.16.38.34.75.52,1.12.18.37.37.73.58,1.09.21.36.42.71.65,1.05.11.17.23.34.35.51.06.08.12.17.18.25.03.04.06.08.09.13.02.02.03.04.05.06.02.02.03.04.05.06.25.34.51.66.79.98.27.32.56.64.85.94.29.3.6.6.91.89.31.28.63.56.96.82.33.26.67.51,1.02.74.17.12.35.23.53.33.04.03.09.05.13.08.02.01.04.03.07.04.02.01.05.02.07.04.09.05.18.1.27.15.36.19.73.37,1.11.53.38.15.76.29,1.15.39s.78.19,1.18.26c.4.06.81.1,1.21.11.41.01.82,0,1.23-.02.1,0,.21-.01.31-.02.05,0,.1,0,.16-.01.03,0,.05,0,.08,0,.01,0,.03,0,.04,0,.01,0,.03,0,.04,0,.21-.02.42-.05.62-.08.42-.07.84-.15,1.25-.24.42-.09.83-.2,1.24-.31s.82-.23,1.24-.35c.2-.06.41-.12.61-.18.2-.06.41-.12.61-.18.41-.12.81-.24,1.22-.35.05-.01.1-.03.15-.04.02,0,.05-.01.08-.02s.05-.01.08-.02c.1-.03.2-.05.3-.08.2-.05.4-.1.61-.14.4-.09.8-.16,1.21-.23.4-.06.81-.11,1.22-.14.41-.03.81-.05,1.22-.05.41,0,.82.01,1.23.04.21.01.41.03.62.05.1,0,.21.02.31.03.05,0,.1.01.16.02.03,0,.05,0,.08,0,.02,0,.05,0,.08,0,.42.05.83.11,1.24.17.21.03.42.07.62.1.21.04.42.07.62.11.41.08.83.16,1.24.24.41.08.83.17,1.24.26.2.04.41.09.62.14.2.05.41.09.61.14.2.05.41.1.61.15l.15.04s.05.01.08.02c.02,0,.05.01.08.02.1.02.2.05.3.08.4.1.8.21,1.2.33.4.12.79.24,1.19.37.39.13.78.27,1.17.41s.77.3,1.15.47c.38.16.76.34,1.13.52.09.05.19.09.28.14.05.02.09.05.14.07.05.02.09.05.14.07.18.09.37.19.55.29.37.2.73.4,1.09.61s.72.43,1.07.65c.35.22.7.45,1.04.69.34.23.68.48,1,.73.33.25.65.51.96.77.04.03.08.07.12.1.04.03.08.07.12.1.08.07.15.14.23.2.15.14.3.28.45.42.6.57,1.15,1.17,1.66,1.82.26.33.5.66.74,1,.24.34.46.69.67,1.05.11.18.21.36.31.54.05.09.1.18.15.28.02.05.05.09.07.14s.05.09.07.14c.19.37.38.75.56,1.13s.35.77.51,1.16c.16.39.32.78.47,1.17.15.39.3.78.44,1.18.14.39.28.79.41,1.18.07.2.13.39.2.59.02.05.03.1.05.15.02.05.03.1.05.15.03.1.06.2.1.3.13.4.25.8.38,1.19.12.4.24.8.36,1.21.11.4.23.81.33,1.22.1.41.2.82.29,1.24s.17.83.24,1.25c.02.1.03.21.05.31,0,.05.01.1.02.16v.08s.02.05.02.08c.03.21.05.42.07.63.04.41.07.83.08,1.24.01.41,0,.82-.02,1.23-.02.41-.07.81-.13,1.22-.06.4-.14.8-.23,1.2s-.2.79-.32,1.18c-.02.05-.03.1-.05.14-.02.05-.03.1-.05.14-.03.1-.07.19-.1.29-.07.19-.14.39-.21.58-.15.38-.3.77-.46,1.14-.16.38-.33.76-.51,1.13-.09.19-.18.38-.27.56-.09.19-.18.38-.27.56-.09.19-.18.38-.27.56-.09.19-.18.38-.28.56-.09.19-.18.38-.28.56l-.14.28s-.05.09-.07.14c-.02.05-.05.09-.07.14-.19.38-.37.75-.55,1.13-.18.38-.37.76-.55,1.13s-.36.76-.54,1.14c-.18.38-.35.76-.52,1.14-.17.38-.34.76-.5,1.15-.08.19-.16.38-.24.58-.02.05-.04.1-.06.14-.02.05-.04.1-.06.14-.04.1-.08.19-.12.29-.31.78-.6,1.55-.87,2.34-.27.79-.51,1.58-.74,2.38-.11.4-.22.8-.32,1.21-.1.4-.2.81-.3,1.21-.1.4-.19.81-.28,1.22-.09.41-.18.82-.26,1.22-.08.41-.17.82-.24,1.23-.08.41-.15.82-.22,1.23-.07.41-.13.82-.19,1.23-.01.1-.03.21-.04.31-.01.1-.03.2-.04.31-.03.21-.05.41-.07.62-.09.83-.15,1.65-.18,2.48-.01.42-.01.83,0,1.25s.03.83.05,1.25c.01.21.03.42.05.62.02.21.04.41.06.62.05.41.1.83.16,1.24.06.41.13.82.21,1.23.08.41.16.82.25,1.22.09.41.19.81.29,1.21.1.4.21.81.32,1.2.06.2.11.4.17.6l.09.3c.03.1.06.2.09.3.12.4.25.79.38,1.19.13.4.27.79.41,1.18.14.39.29.78.44,1.17.15.39.31.77.48,1.16s.34.76.52,1.14c.05.09.09.19.14.28.02.05.05.09.07.14.02.05.05.09.07.14.09.19.19.37.29.55.2.37.4.73.61,1.09.21.36.43.71.66,1.06.23.35.46.69.71,1.03.49.68,1,1.33,1.53,1.97.26.32.53.64.8.96l.4.48c.13.16.27.32.41.47.13.15.28.32.41.47.14.16.27.31.41.47.28.33.53.62.81.95.14.16.27.32.41.48.14.17.26.31.4.48l.4.48c.13.16.27.32.41.47.27.32.54.63.82.94s.55.62.83.93.56.61.85.92.57.6.87.9c.29.3.59.59.89.88.15.15.3.29.45.43s.3.29.45.43c.3.29.61.57.91.85.15.14.31.28.46.42l.46.42c.3.28.61.57.91.85s.6.57.9.86c.3.29.59.58.89.88.15.15.29.29.44.44.14.15.29.3.43.45.29.3.57.6.85.91s.55.62.82.94c.27.32.54.64.8.96.26.32.52.65.77.99s.5.67.74,1.01c.12.17.24.34.35.52.12.17.23.35.34.52.23.35.45.7.66,1.06s.42.72.62,1.09.39.74.58,1.11c.19.37.37.75.55,1.12.18.38.36.75.54,1.13.02.05.04.1.07.14.02.05.04.1.07.14.04.09.09.19.13.28.09.19.18.38.26.57.09.19.18.38.26.57s.18.38.26.57c.18.38.35.75.54,1.13.18.38.36.74.55,1.12.19.37.37.74.56,1.11.09.19.19.37.29.55.05.09.1.18.14.28.02.05.05.09.07.14s.05.09.07.14c.1.19.19.37.29.55.1.18.19.37.29.55.1.18.2.37.29.55.1.18.2.37.29.56s.2.37.3.56.2.37.3.55c.1.18.2.37.3.55.1.18.2.37.3.55.2.37.41.73.62,1.1.11.18.21.36.32.54.01.02.03.05.04.07l.04.07s.05.09.08.13c.05.09.11.18.16.27.22.35.45.7.68,1.04.23.34.48.67.73,1,.25.33.51.64.78.95.27.31.55.61.84.91.29.3.59.58.89.86.08.07.15.14.23.21.04.04.08.07.12.1.04.03.08.07.12.1.16.14.31.27.47.41.32.27.65.53.98.79.33.26.67.51,1.01.76.34.25.68.49,1.03.73.35.24.7.47,1.05.7.35.23.71.45,1.07.66.09.05.18.11.27.16l.27.16c.18.1.36.2.55.3.37.2.73.39,1.11.56.37.18.75.35,1.13.5.38.16.76.3,1.15.44.39.14.78.27,1.18.39.2.06.4.12.59.17.1.03.2.06.3.08.05.01.1.03.15.04l.15.04c.4.11.8.2,1.21.3s.81.19,1.22.28c.2.05.41.09.61.14.2.04.41.09.61.13.2.05.41.09.61.14.2.05.41.09.61.14.41.09.81.18,1.22.28.2.05.4.1.61.15.2.05.4.1.61.15.4.1.81.2,1.21.31.4.1.81.21,1.21.32s.8.22,1.21.33c.4.11.8.23,1.2.34.4.12.8.24,1.2.36.2.06.4.12.6.18.2.06.4.12.6.19.4.13.79.26,1.19.39.39.13.79.27,1.18.41.39.14.78.29,1.17.44.39.15.77.3,1.16.46.39.16.77.32,1.15.49.1.04.19.08.28.13s.19.09.28.13c.19.09.38.18.57.27.38.18.75.36,1.12.55s.74.38,1.11.58c.18.1.37.2.55.3.18.1.37.2.55.3.18.1.37.2.55.3.18.1.37.2.55.3.18.1.37.2.55.29.09.05.18.1.28.15.05.02.09.05.14.07.05.02.09.05.14.07.37.19.74.38,1.12.56s.75.36,1.13.52c.38.17.77.32,1.15.47s.78.29,1.18.41c.4.13.79.24,1.19.35.2.05.4.1.6.15.2.05.4.09.61.14.41.09.81.16,1.22.23s.82.13,1.23.19c.41.06.82.11,1.23.15.41.05.82.09,1.24.14.41.04.83.09,1.24.13.09.01.19.02.28.03.05,0,.09.01.14.02s.09.01.14.02c.19.02.38.05.56.07.38.05.75.11,1.13.17.38.06.75.13,1.12.21.37.08.75.17,1.11.27.37.1.73.21,1.09.34.36.12.71.26,1.06.42.17.08.34.16.51.24.04.02.08.04.12.06.04.02.08.04.13.07.08.04.16.09.25.14.33.18.64.38.94.6.3.22.59.45.87.69.28.25.54.51.78.78.5.56.93,1.16,1.31,1.8.19.33.37.66.54,1,.01.02.02.04.03.06l.03.06.06.13c.04.09.08.17.12.26.08.17.16.35.23.53.15.35.29.71.42,1.07.13.36.25.73.37,1.09.12.36.22.74.33,1.1.1.37.2.74.29,1.11.09.37.17.74.25,1.11.02.09.04.19.06.28l.03.14s.02.09.03.14c.03.19.07.37.1.56.06.37.12.75.16,1.12s.09.75.12,1.13c.02.19.04.38.05.57s.03.38.05.57c.01.19.03.38.04.57.01.19.03.38.04.57.03.38.06.76.09,1.14.02.19.04.38.06.57,0,.05.01.09.01.14,0,.05.01.1.02.14l.03.28c.02.19.05.38.08.56.03.19.06.37.09.56.03.19.07.37.1.56.04.19.08.37.12.56.04.19.09.38.14.57.05.2.1.39.16.59.03.1.06.21.09.31.04.11.07.21.11.32.04.11.08.23.12.34.04.12.09.24.14.37.05.13.11.27.16.4.06.15.13.29.19.44.04.08.07.16.11.24.04.08.08.17.12.25.04.09.08.18.13.26.05.09.09.19.14.28.05.1.1.2.15.3.05.11.11.21.17.32.06.11.12.23.18.34.07.12.13.24.2.36.07.13.14.26.22.39.16.28.32.56.49.84l.02.04c.16.2,1.86,1.82,2.8,2.73.52.5,1.07.96,1.69,1.33,0,0,0,0,.01,0,.37.23.75.44,1.14.63.19.1.39.19.58.28.2.09.39.17.59.25.39.16.79.3,1.2.42.4.12.81.22,1.21.29.4.08.81.13,1.22.16.41.03.81.04,1.22.03.41-.01.81-.05,1.22-.1.41-.06.81-.13,1.21-.23.41-.1.81-.21,1.21-.34.02,0,.05-.02.08-.02.01,0,.02,0,.04-.01h.04c.05-.03.1-.05.15-.06.1-.04.2-.07.3-.11.2-.07.4-.15.6-.23.2-.08.4-.16.6-.24.2-.08.4-.17.6-.25.2-.08.41-.17.61-.25s.4-.17.61-.25c.2-.08.4-.16.6-.23.2-.07.4-.14.6-.21.2-.06.4-.13.6-.18.2-.05.4-.1.6-.14.19-.04.39-.07.59-.09.19-.02.39-.03.58-.03.19,0,.38,0,.57.03.19.02.37.05.55.1s.36.11.54.18c.01,0,.02,0,.03.01.01,0,.02,0,.03.01.02.01.04.02.06.03.04.02.09.04.13.06.09.04.17.09.25.14.17.1.33.21.49.33.08.06.16.13.23.19s.15.14.22.21c.07.07.14.15.21.23.07.08.14.16.2.25.13.17.26.35.37.53.12.19.23.38.33.58.1.2.19.41.28.61.08.21.16.42.22.63.06.21.12.42.17.64.05.21.08.42.12.63.02.1.03.21.04.31s.02.2.03.31c0,.1.02.2.02.3,0,.1.01.2.02.3,0,.1,0,.2.01.3,0,.05,0,.1,0,.15,0,.05,0,.1,0,.15,0,.1.1,1.23.1,1.29.16-.01.33-.03.49-.04.16-.01.33-.03.49-.04.16-.01.33-.03.49-.04.16-.01.33-.03.49-.04.33-.02.65-.05.98-.07.33-.02.65-.04.98-.05s.65-.03.98-.04.65-.02.98-.02c.33,0,.65,0,.98,0,.33,0,.65,0,.98,0,.33,0,.65,0,.98,0,.32,0,.66,0,.98.01.32,0,.66,0,.98.01.32,0,.66,0,.98.01.32,0,.66,0,.98.01.16,0,.33,0,.49,0,.16,0,.33,0,.49,0,.33,0,.65.01.98.02.33,0,.65.02.98.03.65.02,1.3.04,1.95.08s1.3.08,1.95.13c.65.06,1.29.12,1.94.21s1.29.18,1.93.29c.64.11,1.28.23,1.92.37.16.03.32.07.48.1.08.02.16.04.24.05l.12.03s.08.02.12.03c.32.07.64.15.95.23.64.16,1.27.33,1.9.5.63.18,1.26.36,1.89.55.31.09.63.19.94.28s.63.19.94.29c.31.1.63.19.94.29.31.1.63.19.94.29.16.05.31.1.47.14l.47.15c.31.1.62.19.94.29s.62.19.94.29c.31.1.62.19.94.29.16.05.31.1.47.14.16.05.31.1.47.14.31.1.62.19.93.29.31.1.62.19.93.29.31.1.62.19.93.29.62.19,1.24.38,1.87.58.62.19,1.24.39,1.86.58s1.24.39,1.86.59c.62.2,1.24.4,1.86.6l.93.3c.16.05.31.1.47.15.08.03.16.05.23.08.08.02.16.05.23.08.62.2,1.24.41,1.86.61.61.2,1.25.41,1.86.61.31.1.62.2.93.31.31.1.62.2.93.31.31.1.62.2.93.31.31.1.62.2.93.31l.93.31c.31.1.62.2.93.31.62.2,1.25.41,1.86.62.31.1.62.21.93.31.16.05.31.1.46.16s.31.1.46.16c.62.21,1.24.42,1.85.63.62.21,1.23.43,1.85.65,1.24.44,2.45.89,3.68,1.36.61.24,1.22.47,1.82.72.61.24,1.21.49,1.81.75.3.13.6.25.9.38s.6.26.9.39c.6.26,1.19.53,1.79.8,1.19.54,2.37,1.1,3.54,1.68,1.17.58,2.33,1.17,3.49,1.77.58.3,1.15.61,1.73.92.29.16.57.31.86.47.29.16.57.31.86.47,1.14.64,2.27,1.28,3.4,1.94,1.13.66,2.25,1.33,3.36,2.01.56.34,1.11.69,1.67,1.03.28.17.55.35.83.52.28.17.55.35.83.52,1.1.7,2.2,1.41,3.3,2.12.55.36,1.1.71,1.64,1.07.54.36,1.09.72,1.63,1.08,1.08.72,2.18,1.45,3.25,2.18.27.18.54.37.81.55l.4.28.4.28c.54.37,1.08.74,1.61,1.11.54.37,1.07.75,1.61,1.12.53.38,1.07.76,1.6,1.14s1.06.77,1.58,1.16,1.05.78,1.57,1.18c.52.4,1.04.8,1.55,1.21.13.1.25.2.38.31.13.1.25.2.38.31.25.21.51.41.76.62.5.42,1,.84,1.49,1.27s.98.87,1.46,1.31c.48.44.96.89,1.43,1.34s.94.91,1.4,1.37c.93.93,1.82,1.86,2.72,2.82.22.24.45.48.67.71.22.24.44.48.67.72.44.48.89.96,1.33,1.44.22.24.44.48.66.72s.44.48.66.72c.45.49.88.95,1.33,1.44.45.48.88.95,1.33,1.44.45.48.89.95,1.34,1.43.45.48.89.95,1.34,1.43.45.48.89.95,1.34,1.43.45.48.89.95,1.34,1.43.45.48.89.96,1.33,1.44.44.48.88.96,1.32,1.45.44.49.87.97,1.31,1.46.43.49.86.98,1.29,1.47.11.12.21.25.32.37.11.12.21.25.32.37.21.25.43.49.64.74.42.5.85.99,1.27,1.49s.84,1,1.26,1.5.83,1.01,1.25,1.51.83,1.01,1.24,1.51c.81,1,1.65,2.04,2.46,3.04.05.06.1.13.15.19l.15.19c.1.13.2.26.31.38.2.25.41.51.61.77.41.51.81,1.02,1.22,1.54.41.51.81,1.03,1.21,1.55.4.52.8,1.04,1.2,1.56.4.52.79,1.05,1.18,1.57.39.53.78,1.05,1.16,1.58.19.27.38.53.57.8.09.13.19.27.28.4l.28.4c.37.54.74,1.07,1.11,1.62.73,1.09,1.43,2.17,2.12,3.28.34.55.68,1.11,1.01,1.66.33.56.66,1.12.98,1.68.32.56.64,1.13.95,1.69.16.28.31.57.47.85.04.07.08.14.12.21.04.07.08.14.12.21.08.14.16.29.23.43.31.57.62,1.15.92,1.72.3.57.61,1.16.91,1.74.3.58.6,1.17.89,1.75.29.59.59,1.18.87,1.77.29.59.57,1.18.84,1.78.27.6.54,1.2.8,1.8.06.15.13.3.19.45.03.08.06.15.09.23.03.08.06.15.09.23.12.31.24.61.36.92.24.62.46,1.24.68,1.86s.41,1.26.59,1.89c.18.64.35,1.27.51,1.92.15.64.29,1.29.41,1.94.12.65.23,1.3.32,1.95.09.65.17,1.3.23,1.95,0,.08.02.16.02.24,0,.04,0,.08.01.12s0,.08.01.12c.01.16.03.33.04.49.02.32.05.65.06.97.03.64.06,1.29.06,1.94,0,.32,0,.64,0,.96,0,.32-.01.64-.02.96s-.03.64-.05.96c-.02.32-.04.64-.07.96-.02.32-.05.64-.09.97-.03.32-.07.64-.1.97-.02.16-.04.32-.06.48-.02.16-.04.32-.06.49-.02.16-.04.33-.06.49-.02.16-.04.33-.06.49-.02.16-.04.32-.05.49-.02.16-.04.32-.05.48-.01.16-.03.32-.04.48-.01.16-.02.32-.03.48"/>
  <path class="uuid-f079d7f6-9158-4af2-9b5e-7af56ead7f9b" d="M215.65,131.24c.18.03.36.06.54.08.18.03.36.05.54.08.09.01.18.03.27.04.09.01.18.03.27.04.18.03.36.05.54.08.37.06.71.11,1.08.16.36.05.72.11,1.08.16.37.06.71.11,1.08.16.36.06.72.11,1.08.16.74.11,1.42.21,2.16.32.36.05.72.11,1.08.16.36.05.72.11,1.08.16.74.11,1.42.21,2.16.33.36.05.72.11,1.08.16.36.05.72.11,1.08.16.73.11,1.43.22,2.16.33.73.11,1.43.21,2.16.32.74.11,1.43.21,2.16.32.72.11,1.44.21,2.16.32.73.11,1.43.21,2.16.32.36.05.72.11,1.08.16.18.03.36.05.54.08.18.03.36.05.54.08.73.11,1.43.22,2.16.33.36.06.72.11,1.08.17.36.06.72.11,1.08.17.72.11,1.44.22,2.16.33.72.11,1.44.22,2.16.32s1.44.2,2.16.3c.72.1,1.44.19,2.17.27.18.02.36.04.54.06.18.02.36.04.54.06.36.04.72.08,1.09.11.73.07,1.45.14,2.18.2.73.06,1.45.11,2.18.16.73.05,1.45.08,2.18.11.73.03,1.46.06,2.18.07s1.46.03,2.18.03c.36,0,.73,0,1.09,0s.73,0,1.09,0c1.46-.02,2.91-.06,4.37-.13,1.46-.07,2.91-.16,4.36-.26,1.45-.11,2.9-.23,4.35-.37.72-.07,1.45-.14,2.17-.22.72-.08,1.45-.15,2.17-.24.72-.08,1.45-.16,2.17-.25.72-.08,1.45-.17,2.17-.26,1.43-.17,2.91-.36,4.34-.54l1.08-.14c.36-.05.72-.09,1.08-.14.72-.09,1.44-.19,2.17-.28.72-.1,1.44-.19,2.16-.29.72-.1,1.44-.2,2.16-.3.72-.1,1.44-.2,2.16-.3.73-.1,1.43-.2,2.16-.3l1.08-.15c.18-.02.36-.05.54-.08.18-.03.36-.05.54-.08.72-.1,1.44-.2,2.16-.3.72-.1,1.44-.2,2.16-.3.72-.1,1.44-.19,2.17-.29,1.45-.18,2.89-.36,4.34-.51.72-.08,1.45-.15,2.17-.22.36-.03.72-.07,1.09-.1.36-.03.72-.06,1.09-.09.73-.06,1.45-.11,2.18-.16.73-.05,1.45-.09,2.18-.13.73-.04,1.45-.08,2.18-.11.73-.04,1.45-.07,2.18-.1.73-.03,1.45-.06,2.18-.09.36-.02.73-.03,1.09-.05s.73-.03,1.09-.05c.73-.03,1.45-.07,2.18-.11.73-.04,1.45-.08,2.18-.13,1.47-.1,2.89-.2,4.35-.34.73-.07,1.45-.13,2.17-.21s1.45-.15,2.17-.23c.18-.02.36-.04.54-.06l.54-.06c.36-.04.72-.08,1.09-.12.36-.04.73-.08,1.09-.12.36-.04.72-.08,1.09-.12.73-.08,1.45-.16,2.18-.24.73-.08,1.45-.16,2.18-.23s1.45-.14,2.18-.21c.73-.07,1.45-.13,2.18-.19.18-.01.36-.03.54-.04.18-.01.36-.03.55-.04.36-.03.73-.06,1.09-.08.73-.05,1.45-.1,2.18-.15.36-.02.73-.05,1.09-.07.36-.02.73-.05,1.09-.07.73-.05,1.46-.09,2.19-.14.73-.05,1.46-.1,2.19-.15.73-.05,1.45-.11,2.18-.17.36-.03.73-.06,1.09-.1.18-.02.36-.04.54-.05.18-.02.36-.04.54-.06.73-.07,1.45-.16,2.17-.25,1.46-.18,2.88-.38,4.33-.62,1.45-.24,2.86-.5,4.3-.77.72-.14,1.43-.28,2.15-.42l.27-.05.27-.05c.18-.04.36-.07.54-.11.36-.07.72-.15,1.07-.22.36-.07.72-.15,1.07-.22.36-.07.71-.15,1.07-.22.72-.15,1.42-.29,2.15-.44.72-.15,1.43-.29,2.15-.43.72-.14,1.43-.28,2.15-.42.72-.14,1.43-.28,2.15-.42.36-.07.72-.14,1.07-.21.09-.02.18-.04.27-.05l.27-.05c.18-.03.36-.07.54-.1l1.07-.2c.36-.07.72-.14,1.07-.2.36-.07.71-.14,1.07-.2.36-.07.71-.13,1.07-.2.36-.07.71-.13,1.07-.2.36-.06.71-.13,1.07-.19.71-.13,1.42-.25,2.13-.37.71-.12,1.42-.24,2.13-.34.71-.11,1.42-.21,2.13-.3,1.43-.18,2.84-.32,4.28-.42.72-.05,1.43-.08,2.15-.1.72-.02,1.44-.03,2.16-.02.72,0,1.45.02,2.17.05.73.03,1.46.07,2.18.11.18.01.36.02.55.04.09,0,.18.01.27.02.05,0,.09,0,.14.01s.09,0,.14.01c.36.03.73.06,1.1.09.73.06,1.46.13,2.19.21.73.08,1.46.16,2.19.25.73.09,1.46.18,2.19.28.72.1,1.45.2,2.17.32.72.11,1.44.23,2.16.36.36.06.72.13,1.07.2.18.03.36.07.53.1.09.02.18.04.27.05.09.02.18.04.27.05.71.14,1.42.3,2.12.46.71.16,1.41.34,2.11.52.7.18,1.4.37,2.1.58s1.39.41,2.09.62c.35.11.7.21,1.04.32l1.04.33c.7.22,1.39.44,2.09.65.17.05.35.11.52.16s.35.11.52.16c.35.11.7.21,1.05.31.7.2,1.4.4,2.11.58.71.18,1.41.35,2.13.51.71.16,1.42.3,2.14.43.72.13,1.43.25,2.16.36.72.11,1.44.2,2.17.29.36.04.72.08,1.09.12.09.01.18.02.27.03.09,0,.18.02.27.03.18.02.36.04.54.05.36.04.73.07,1.09.1.36.03.73.07,1.09.1.36.03.73.06,1.09.1.37.03.72.06,1.09.1.37.03.73.06,1.09.1.36.03.73.07,1.09.1.73.07,1.44.14,2.18.22.36.04.72.08,1.09.12.36.04.72.08,1.09.12.36.04.72.08,1.09.12.18.02.36.04.54.06l.54.06c.36.04.72.08,1.09.12.36.04.72.08,1.09.12.72.07,1.45.14,2.17.21.72.06,1.45.11,2.17.15.73.04,1.45.07,2.18.08.73.01,1.45,0,2.18-.01.73-.02,1.45-.06,2.18-.12.36-.03.73-.06,1.09-.1.36-.04.72-.08,1.09-.13.72-.09,1.45-.2,2.17-.33s1.44-.27,2.15-.42c.71-.16,1.43-.33,2.14-.51.71-.18,1.42-.37,2.12-.57.7-.2,1.4-.41,2.1-.62.35-.11.7-.22,1.04-.33.17-.05.35-.11.52-.17.09-.03.17-.06.26-.08.09-.03.17-.06.26-.08.69-.22,1.38-.45,2.07-.68.69-.23,1.37-.47,2.06-.7s1.37-.48,2.05-.72,1.36-.48,2.05-.73c.68-.25,1.36-.49,2.05-.74.34-.12.68-.25,1.02-.37.34-.12.68-.25,1.02-.37l.51-.19c.17-.06.34-.12.51-.19.34-.12.69-.25,1.03-.37.68-.25,1.38-.5,2.06-.74.69-.25,1.38-.49,2.07-.73s1.38-.48,2.08-.71c.69-.23,1.39-.46,2.09-.68.7-.22,1.39-.44,2.09-.64.35-.1.7-.2,1.05-.3.09-.02.18-.05.26-.07.09-.02.18-.05.26-.07.17-.05.35-.1.53-.14.7-.19,1.4-.37,2.11-.55.7-.17,1.41-.34,2.12-.5,1.42-.32,2.83-.6,4.26-.86.71-.13,1.43-.26,2.14-.38.71-.12,1.43-.24,2.15-.36.36-.06.72-.12,1.08-.18.36-.06.72-.12,1.08-.18.36-.06.72-.12,1.08-.18.36-.06.72-.12,1.08-.18s.72-.12,1.08-.18c.36-.06.72-.12,1.09-.17.36-.06.72-.12,1.09-.17s.72-.11,1.09-.17c.72-.11,1.45-.22,2.17-.32.72-.1,1.45-.2,2.18-.29.18-.02.36-.04.54-.07.09-.01.18-.02.27-.03s.18-.02.27-.03c.36-.04.72-.08,1.09-.11.72-.07,1.45-.13,2.17-.18.72-.05,1.45-.08,2.17-.1s1.45-.02,2.17-.01c.72.01,1.45.04,2.17.08.72.04,1.44.1,2.17.17.36.04.72.07,1.08.11.18.02.36.04.54.06.05,0,.09.01.13.02l.14.02c.09.01.18.02.27.03.72.09,1.44.2,2.16.31.72.11,1.44.24,2.16.37s1.44.27,2.15.41c.71.14,1.43.29,2.14.45.71.16,1.42.32,2.13.49.71.17,1.41.34,2.12.53.09.02.18.05.26.07.09.02.18.05.26.07.18.05.35.09.53.14.35.1.7.19,1.05.29s.7.2,1.04.31c.35.1.69.21,1.04.32.69.22,1.38.45,2.06.69.68.24,1.36.5,2.03.76.68.27,1.34.55,2.01.84.67.3,1.33.6,1.98.92.33.16.65.32.98.49.08.04.16.08.24.13.08.04.16.08.24.13.16.08.32.17.48.26.64.35,1.28.7,1.92,1.07s1.26.75,1.88,1.13c.62.39,1.24.78,1.85,1.19.61.4,1.22.82,1.82,1.24.6.42,1.19.84,1.78,1.28.59.43,1.17.87,1.75,1.31.58.44,1.15.89,1.72,1.34.57.45,1.13.91,1.69,1.37,1.12.93,2.22,1.87,3.31,2.82.54.48,1.09.96,1.63,1.45.54.48,1.08.97,1.61,1.46.13.12.27.25.4.37.07.06.13.12.2.18.07.06.13.12.2.19.27.25.53.49.8.74.53.49,1.07,1,1.6,1.49.53.5,1.06,1,1.59,1.51.53.5,1.06,1.01,1.58,1.52.52.51,1.05,1.02,1.56,1.53s1.03,1.03,1.55,1.55c.25.26.51.52.76.78.13.13.25.26.38.39l.38.39c.5.53,1,1.06,1.49,1.6.98,1.08,1.93,2.17,2.86,3.3.93,1.13,1.81,2.28,2.67,3.46.43.59.85,1.19,1.26,1.79.1.15.2.3.31.45.1.15.2.3.3.45.2.3.4.61.6.91.4.61.78,1.23,1.17,1.85.38.62.76,1.24,1.13,1.87.37.63.74,1.26,1.1,1.89.36.63.72,1.26,1.07,1.9.35.63.7,1.27,1.05,1.91.17.32.35.64.52.96.17.32.34.64.51.96.34.64.68,1.29,1.01,1.93.33.64.67,1.29.99,1.94.33.65.65,1.3.97,1.95.32.65.64,1.31.95,1.97.62,1.32,1.23,2.64,1.81,3.98.29.67.58,1.34.86,2.01.28.67.55,1.35.82,2.03.27.68.53,1.36.78,2.04.25.68.51,1.37.75,2.05s.48,1.38.71,2.07.45,1.39.66,2.08c.11.35.21.7.31,1.05.1.35.2.7.3,1.05.2.7.38,1.41.56,2.11.17.71.34,1.42.49,2.13.15.71.28,1.43.4,2.15s.22,1.44.31,2.16c.09.72.16,1.44.21,2.17.03.36.05.72.07,1.09.01.18.02.36.02.54,0,.09,0,.18.01.27s0,.18,0,.27c.02.73.03,1.45.02,2.18,0,.73-.03,1.45-.05,2.18-.03.73-.07,1.46-.11,2.18-.02.36-.04.73-.07,1.09-.02.36-.05.73-.07,1.09-.02.36-.05.73-.07,1.09-.01.18-.02.36-.04.54-.01.18-.03.36-.04.55-.02.37-.05.72-.07,1.09-.03.37-.05.72-.07,1.09-.01.18-.02.36-.04.54-.01.18-.02.36-.04.55-.02.36-.05.73-.07,1.09-.02.36-.05.73-.07,1.09-.02.36-.05.73-.08,1.09-.05.73-.11,1.45-.17,2.18-.06.73-.13,1.45-.21,2.18s-.16,1.44-.24,2.17c-.04.36-.09.72-.13,1.09-.04.36-.09.72-.13,1.09-.05.36-.09.73-.14,1.09-.02.18-.05.36-.07.54-.02.18-.05.36-.07.54-.02.18-.05.36-.07.54-.02.18-.05.36-.07.54-.05.35-.09.73-.14,1.09-.05.36-.09.72-.14,1.08-.05.36-.1.72-.15,1.08s-.11.72-.16,1.08-.12.72-.18,1.08c-.03.18-.06.36-.1.54-.03.18-.06.36-.1.54s-.07.36-.1.54c-.03.18-.07.36-.1.54-.07.36-.14.71-.2,1.07-.03.18-.06.36-.1.54s-.06.36-.09.54c-.03.18-.06.36-.09.54-.01.09-.03.18-.04.27-.01.09-.03.18-.04.27-.01.09-.03.18-.04.27-.01.09-.03.18-.05.27s-.03.18-.05.27-.04.18-.06.27"/>
  <path class="uuid-f079d7f6-9158-4af2-9b5e-7af56ead7f9b" d="M223.79,163.27c.28-.23.56-.47.83-.71.28-.24.56-.48.83-.71.14-.12.28-.24.42-.36.14-.12.28-.24.42-.36.28-.24.56-.48.84-.72.28-.24.56-.48.84-.71.28-.24.56-.47.85-.7.57-.47,1.14-.92,1.72-1.37.58-.45,1.17-.89,1.77-1.32.6-.43,1.2-.84,1.81-1.25s1.23-.8,1.85-1.18c.63-.38,1.26-.75,1.9-1.11.64-.36,1.28-.7,1.93-1.04.65-.34,1.31-.66,1.97-.98.66-.32,1.33-.62,2-.92.67-.3,1.35-.59,2.03-.87.67-.28,1.35-.56,2.03-.83s1.36-.53,2.05-.79c.69-.26,1.38-.52,2.07-.77.69-.25,1.39-.5,2.08-.75.69-.24,1.38-.48,2.07-.72.69-.24,1.39-.47,2.08-.71.7-.23,1.4-.46,2.09-.69.7-.23,1.4-.45,2.11-.68.69-.22,1.39-.43,2.08-.65.7-.21,1.4-.42,2.1-.63.71-.21,1.41-.41,2.12-.6.71-.2,1.43-.39,2.15-.58.7-.18,1.4-.36,2.1-.53.71-.17,1.42-.34,2.13-.5.36-.08.72-.16,1.08-.24.36-.08.72-.16,1.08-.23.36-.08.73-.15,1.09-.23.37-.07.73-.15,1.1-.22.35-.07.71-.14,1.06-.2.36-.07.71-.13,1.07-.2.36-.07.72-.13,1.08-.19.36-.06.72-.13,1.08-.19.36-.06.72-.12,1.09-.19.36-.06.73-.12,1.09-.19.18-.03.36-.06.55-.09.18-.03.37-.06.55-.09.37-.06.73-.12,1.1-.19.72-.08,4.96-.57,5.68-.66,1.43-.17,2.91-.36,4.34-.54l1.08-.14c.36-.05.72-.09,1.08-.14.72-.09,1.44-.19,2.17-.28.72-.1,1.44-.19,2.16-.29.72-.1,1.44-.2,2.16-.3.72-.1,1.44-.2,2.16-.3.73-.1,1.43-.2,2.16-.3l1.08-.15c.18-.02.36-.05.54-.08.18-.03.36-.05.54-.08.72-.1,1.44-.2,2.16-.3.72-.1,1.44-.2,2.16-.3.72-.1,1.44-.19,2.17-.29,1.45-.18,2.89-.36,4.34-.51.72-.08,1.45-.15,2.17-.22.36-.03.72-.07,1.09-.1.36-.03.72-.06,1.09-.09.73-.06,1.45-.11,2.18-.16.73-.05,1.45-.09,2.18-.13.73-.04,1.45-.08,2.18-.11.73-.04,1.45-.07,2.18-.1.73-.03,1.45-.06,2.18-.09.36-.02.73-.03,1.09-.05s.73-.03,1.09-.05c.73-.03,1.45-.07,2.18-.11.73-.04,1.45-.08,2.18-.13,1.47-.1,2.89-.2,4.35-.34.73-.07,1.45-.13,2.17-.21s1.45-.15,2.17-.23c.18-.02.36-.04.54-.06l.54-.06c.36-.04.72-.08,1.09-.12.36-.04.73-.08,1.09-.12.36-.04.72-.08,1.09-.12.73-.08,1.45-.16,2.18-.24.73-.08,1.45-.16,2.18-.23s1.45-.14,2.18-.21c.73-.07,1.45-.13,2.18-.19.18-.01.36-.03.54-.04.18-.01.36-.03.55-.04.36-.03.73-.06,1.09-.08.73-.05,1.45-.1,2.18-.15.36-.02.73-.05,1.09-.07.36-.02.73-.05,1.09-.07.73-.05,1.46-.09,2.19-.14.73-.05,1.46-.1,2.19-.15.73-.05,1.45-.11,2.18-.17.36-.03.73-.06,1.09-.1.18-.02.36-.04.54-.05.18-.02.36-.04.54-.06.73-.07,1.45-.16,2.17-.25,1.46-.18,2.88-.38,4.33-.62,1.45-.24,2.86-.5,4.3-.77.72-.14,1.43-.28,2.15-.42l.27-.05.27-.05c.18-.04.36-.07.54-.11.36-.07.72-.15,1.07-.22.36-.07.72-.15,1.07-.22.36-.07.71-.15,1.07-.22.72-.15,1.42-.29,2.15-.44.72-.15,1.43-.29,2.15-.43.72-.14,1.43-.28,2.15-.42.72-.14,1.43-.28,2.15-.42.36-.07.72-.14,1.07-.21.09-.02.18-.04.27-.05l.27-.05c.18-.03.36-.07.54-.1l1.07-.2c.36-.07.72-.14,1.07-.2.36-.07.71-.14,1.07-.2.36-.07.71-.13,1.07-.2.36-.07.71-.13,1.07-.2.36-.06.71-.13,1.07-.19.71-.13,1.42-.25,2.13-.37.71-.12,1.42-.24,2.13-.34.71-.11,1.42-.21,2.13-.3,1.43-.18,2.84-.32,4.28-.42.72-.05,1.43-.08,2.15-.1.72-.02,1.44-.03,2.16-.02.72,0,1.45.02,2.17.05.73.03,1.46.07,2.18.11.18.01.36.02.55.04.09,0,.18.01.27.02.05,0,.09,0,.14.01s.09,0,.14.01c.36.03.73.06,1.1.09.73.06,1.46.13,2.19.21.73.08,1.46.16,2.19.25.73.09,1.46.18,2.19.28.72.1,1.45.2,2.17.32.72.11,1.44.23,2.16.36.36.06.72.13,1.07.2.18.03.36.07.53.1.09.02.18.04.27.05.09.02.18.04.27.05.71.14,1.42.3,2.12.46.71.16,1.41.34,2.11.52.7.18,1.4.37,2.1.58s1.39.41,2.09.62c.35.11.7.21,1.04.32l1.04.33c.7.22,1.39.44,2.09.65.17.05.35.11.52.16s.35.11.52.16c.35.11.7.21,1.05.31.7.2,1.4.4,2.11.58.71.18,1.41.35,2.13.51.71.16,1.42.3,2.14.43.72.13,1.43.25,2.16.36.72.11,1.44.2,2.17.29.36.04.72.08,1.09.12.09.01.18.02.27.03.09,0,.18.02.27.03.18.02.36.04.54.05.36.04.73.07,1.09.1.36.03.73.07,1.09.1.36.03.73.06,1.09.1.37.03.72.06,1.09.1.37.03.73.06,1.09.1.36.03.73.07,1.09.1.73.07,1.44.14,2.18.22.36.04.72.08,1.09.12.36.04.72.08,1.09.12.36.04.72.08,1.09.12.18.02.36.04.54.06l.54.06c.36.04.72.08,1.09.12.36.04.72.08,1.09.12.72.07,1.45.14,2.17.21.72.06,1.45.11,2.17.15.73.04,1.45.07,2.18.08.73.01,1.45,0,2.18-.01.73-.02,1.45-.06,2.18-.12.36-.03.73-.06,1.09-.1.36-.04.72-.08,1.09-.13.72-.09,1.45-.2,2.17-.33s1.44-.27,2.15-.42c.71-.16,1.43-.33,2.14-.51.71-.18,1.42-.37,2.12-.57.7-.2,1.4-.41,2.1-.62.35-.11.7-.22,1.04-.33.17-.05.35-.11.52-.17.09-.03.17-.06.26-.08.09-.03.17-.06.26-.08.69-.22,1.38-.45,2.07-.68.69-.23,1.37-.47,2.06-.7s1.37-.48,2.05-.72,1.36-.48,2.05-.73c.68-.25,1.36-.49,2.05-.74.34-.12.68-.25,1.02-.37.34-.12.68-.25,1.02-.37l.51-.19c.17-.06.34-.12.51-.19.34-.12.69-.25,1.03-.37.68-.25,1.38-.5,2.06-.74.69-.25,1.38-.49,2.07-.73s1.38-.48,2.08-.71c.69-.23,1.39-.46,2.09-.68.7-.22,1.39-.44,2.09-.64.35-.1.7-.2,1.05-.3.09-.02.18-.05.26-.07.09-.02.18-.05.26-.07.17-.05.35-.1.53-.14.7-.19,1.4-.37,2.11-.55.7-.17,1.41-.34,2.12-.5,1.42-.32,2.83-.6,4.26-.86.71-.13,1.43-.26,2.14-.38.71-.12,1.43-.24,2.15-.36.36-.06.72-.12,1.08-.18.36-.06.72-.12,1.08-.18.36-.06.72-.12,1.08-.18.36-.06.72-.12,1.08-.18s.72-.12,1.08-.18c.36-.06.72-.12,1.09-.17.36-.06.72-.12,1.09-.17s.72-.11,1.09-.17c.72-.11,1.45-.22,2.17-.32.72-.1,1.45-.2,2.18-.29.18-.02.36-.04.54-.07.09-.01.18-.02.27-.03s.18-.02.27-.03c.36-.04.72-.08,1.09-.11.72-.07,1.45-.13,2.17-.18.72-.05,1.45-.08,2.17-.1s1.45-.02,2.17-.01c.72.01,1.45.04,2.17.08.72.04,1.44.1,2.17.17.36.04.72.07,1.08.11.18.02.36.04.54.06.05,0,.09.01.13.02l.14.02c.09.01.18.02.27.03.72.09,1.44.2,2.16.31.72.11,1.44.24,2.16.37s1.44.27,2.15.41c.71.14,1.43.29,2.14.45.71.16,1.42.32,2.13.49.71.17,1.41.34,2.12.53.09.02.18.05.26.07.09.02.18.05.26.07.18.05.35.09.53.14.35.1.7.19,1.05.29s.7.2,1.04.31c.35.1.69.21,1.04.32.69.22,1.38.45,2.06.69.68.24,1.36.5,2.03.76.68.27,1.34.55,2.01.84.67.3,1.33.6,1.98.92.33.16.65.32.98.49.08.04.16.08.24.13.08.04.16.08.24.13.16.08.32.17.48.26.64.35,1.28.7,1.92,1.07s1.26.75,1.88,1.13c.62.39,1.24.78,1.85,1.19.61.4,1.22.82,1.82,1.24.6.42,1.19.84,1.78,1.28.59.43,1.17.87,1.75,1.31.58.44,1.15.89,1.72,1.34.57.45,1.13.91,1.69,1.37,1.12.93,2.22,1.87,3.31,2.82.54.48,1.09.96,1.63,1.45.54.48,1.08.97,1.61,1.46.13.12.27.25.4.37.07.06.13.12.2.18.07.06.13.12.2.19.27.25.53.49.8.74.53.49,1.07,1,1.6,1.49.53.5,1.06,1,1.59,1.51.53.5,1.06,1.01,1.58,1.52.52.51,1.05,1.02,1.56,1.53s1.03,1.03,1.55,1.55c.25.26.51.52.76.78.13.13.25.26.38.39l.38.39c.5.53,1,1.06,1.49,1.6.98,1.08,1.93,2.17,2.86,3.3.93,1.13,1.81,2.28,2.67,3.46.43.59.85,1.19,1.26,1.79.1.15.2.3.31.45.1.15.2.3.3.45.2.3.4.61.6.91.4.61.78,1.23,1.17,1.85.38.62.76,1.24,1.13,1.87.37.63.74,1.26,1.1,1.89.36.63.72,1.26,1.07,1.9.35.63.7,1.27,1.05,1.91.17.32.35.64.52.96.17.32.34.64.51.96.34.64.68,1.29,1.01,1.93.33.64.67,1.29.99,1.94.33.65.65,1.3.97,1.95.32.65.64,1.31.95,1.97.62,1.32,1.23,2.64,1.81,3.98.29.67.58,1.34.86,2.01.28.67.55,1.35.82,2.03.27.68.53,1.36.78,2.04.25.68.51,1.37.75,2.05s.48,1.38.71,2.07.45,1.39.66,2.08c.11.35.21.7.31,1.05.1.35.2.7.3,1.05.2.7.38,1.41.56,2.11.17.71.34,1.42.49,2.13.15.71.28,1.43.4,2.15s.22,1.44.31,2.16c.09.72.16,1.44.21,2.17.03.36.05.72.07,1.09.01.18.02.36.02.54,0,.09,0,.18.01.27s0,.18,0,.27c.02.73.03,1.45.02,2.18,0,.73-.03,1.45-.05,2.18-.03.73-.07,1.46-.11,2.18-.02.36-.04.73-.07,1.09-.02.36-.26,3.84-.29,4.2.1.01.21.02.31.02s.21,0,.31,0c.1,0,.21,0,.31,0s.21,0,.31-.01c.05,0,.11,0,.16,0s.11,0,.16,0c.11,0,.21,0,.31-.01s.21,0,.31,0c.1,0,.21,0,.31,0,.21,0,.42.01.62.03.21.02.41.04.62.07.21.03.41.07.61.12.2.05.41.1.61.16s.4.12.6.2c.2.07.39.15.59.23.39.16.77.34,1.13.54.18.1.36.2.54.31.18.11.35.22.53.33.17.11.34.23.51.35.17.12.33.24.49.37.32.26.62.53.91.82.29.29.57.59.83.91.26.32.51.65.74.99.23.35.45.7.65,1.07.2.37.39.75.57,1.13.18.38.35.77.51,1.17.16.39.31.79.46,1.19.15.4.29.8.43,1.19.14.4.28.79.42,1.19.02.05.04.1.05.15,0,.02.02.05.03.07s.02.05.03.07c.04.1.07.2.11.29.07.19.15.39.22.58.15.39.3.77.47,1.15.16.38.34.75.52,1.12.18.37.37.73.58,1.09.21.36.42.71.65,1.05.11.17.23.34.35.51.06.08.12.17.18.25.03.04.06.08.09.13.02.02.03.04.05.06.02.02.03.04.05.06.25.34.51.66.79.98.27.32.56.64.85.94.29.3.6.6.91.89.31.28.63.56.96.82.33.26.67.51,1.02.74.17.12.35.23.53.33.04.03.09.05.13.08.02.01.04.03.07.04.02.01.05.02.07.04.09.05.18.1.27.15.36.19.73.37,1.11.53.38.15.76.29,1.15.39s.78.19,1.18.26c.4.06.81.1,1.21.11.41.01.82,0,1.23-.02.1,0,.21-.01.31-.02.05,0,.1,0,.16-.01.03,0,.05,0,.08,0,.01,0,.03,0,.04,0,.01,0,.03,0,.04,0,.21-.02.42-.05.62-.08.42-.07.84-.15,1.25-.24.42-.09.83-.2,1.24-.31s.82-.23,1.24-.35c.2-.06.41-.12.61-.18.2-.06.41-.12.61-.18.41-.12.81-.24,1.22-.35.05-.01.1-.03.15-.04.02,0,.05-.01.08-.02s.05-.01.08-.02c.1-.03.2-.05.3-.08.2-.05.4-.1.61-.14.4-.09.8-.16,1.21-.23.4-.06.81-.11,1.22-.14.41-.03.81-.05,1.22-.05.41,0,.82.01,1.23.04.21.01.41.03.62.05.1,0,.21.02.31.03.05,0,.1.01.16.02.03,0,.05,0,.08,0,.02,0,.05,0,.08,0,.42.05.83.11,1.24.17.21.03.42.07.62.1.21.04.42.07.62.11.41.08.83.16,1.24.24.41.08.83.17,1.24.26.2.04.41.09.62.14.2.05.41.09.61.14.2.05.41.1.61.15l.15.04s.05.01.08.02c.02,0,.05.01.08.02.1.02.2.05.3.08.4.1.8.21,1.2.33.4.12.79.24,1.19.37.39.13.78.27,1.17.41s.77.3,1.15.47c.38.16.76.34,1.13.52.09.05.19.09.28.14.05.02.09.05.14.07.05.02.09.05.14.07.18.09.37.19.55.29.37.2.73.4,1.09.61s.72.43,1.07.65c.35.22.7.45,1.04.69.34.23.68.48,1,.73.33.25.65.51.96.77.04.03.08.07.12.1.04.03.08.07.12.1.08.07.15.14.23.2.15.14.3.28.45.42.6.57,1.15,1.17,1.66,1.82.26.33.5.66.74,1,.24.34.46.69.67,1.05.11.18.21.36.31.54.05.09.1.18.15.28.02.05.05.09.07.14s.05.09.07.14c.19.37.38.75.56,1.13s.35.77.51,1.16c.16.39.32.78.47,1.17.15.39.3.78.44,1.18.14.39.28.79.41,1.18.07.2.13.39.2.59.02.05.03.1.05.15.02.05.03.1.05.15.03.1.06.2.1.3.13.4.25.8.38,1.19.12.4.24.8.36,1.21.11.4.23.81.33,1.22.1.41.2.82.29,1.24s.17.83.24,1.25c.02.1.03.21.05.31,0,.05.01.1.02.16v.08s.02.05.02.08c.03.21.05.42.07.63.04.41.07.83.08,1.24.01.41,0,.82-.02,1.23-.02.41-.07.81-.13,1.22-.06.4-.14.8-.23,1.2s-.2.79-.32,1.18c-.02.05-.03.1-.05.14-.02.05-.03.1-.05.14-.03.1-.07.19-.1.29-.07.19-.14.39-.21.58-.15.38-.3.77-.46,1.14-.16.38-.33.76-.51,1.13-.09.19-.18.38-.27.56-.09.19-.18.38-.27.56-.09.19-.18.38-.27.56-.09.19-.18.38-.28.56-.09.19-.18.38-.28.56l-.14.28s-.05.09-.07.14c-.02.05-.05.09-.07.14-.19.38-.37.75-.55,1.13-.18.38-.37.76-.55,1.13s-.36.76-.54,1.14c-.18.38-.35.76-.52,1.14-.17.38-.34.76-.5,1.15-.08.19-.16.38-.24.58-.02.05-.04.1-.06.14-.02.05-.04.1-.06.14-.04.1-.08.19-.12.29-.31.78-.6,1.55-.87,2.34-.27.79-.51,1.58-.74,2.38-.11.4-.22.8-.32,1.21-.1.4-.2.81-.3,1.21-.1.4-.19.81-.28,1.22-.09.41-.18.82-.26,1.22-.08.41-.17.82-.24,1.23-.08.41-.15.82-.22,1.23-.07.41-.13.82-.19,1.23-.01.1-.03.21-.04.31-.01.1-.03.2-.04.31-.03.21-.05.41-.07.62-.09.83-.15,1.65-.18,2.48-.01.42-.01.83,0,1.25s.03.83.05,1.25c.01.21.03.42.05.62.02.21.04.41.06.62.05.41.1.83.16,1.24.06.41.13.82.21,1.23.08.41.16.82.25,1.22.09.41.19.81.29,1.21.1.4.21.81.32,1.2.06.2.11.4.17.6l.09.3c.03.1.06.2.09.3.12.4.25.79.38,1.19.13.4.27.79.41,1.18.14.39.29.78.44,1.17.15.39.31.77.48,1.16s.34.76.52,1.14c.05.09.09.19.14.28.02.05.05.09.07.14.02.05.05.09.07.14.09.19.19.37.29.55.2.37.4.73.61,1.09.21.36.43.71.66,1.06.23.35.46.69.71,1.03.49.68,1,1.33,1.53,1.97.26.32.53.64.8.96l.4.48c.13.16.27.32.41.47.13.15.28.32.41.47.14.16.27.31.41.47.28.33.53.62.81.95.14.16.27.32.41.48.14.17.26.31.4.48l.4.48c.13.16.27.32.41.47.27.32.54.63.82.94s.55.62.83.93.56.61.85.92.57.6.87.9c.29.3.59.59.89.88.15.15.3.29.45.43s.3.29.45.43c.3.29.61.57.91.85.15.14.31.28.46.42l.46.42c.3.28.61.57.91.85s.6.57.9.86c.3.29.59.58.89.88.15.15.29.29.44.44.14.15.29.3.43.45.29.3.57.6.85.91s.55.62.82.94c.27.32.54.64.8.96.26.32.52.65.77.99s.5.67.74,1.01c.12.17.24.34.35.52.12.17.23.35.34.52.23.35.45.7.66,1.06s.42.72.62,1.09.39.74.58,1.11c.19.37.37.75.55,1.12.18.38.36.75.54,1.13.02.05.04.1.07.14.02.05.04.1.07.14.04.09.09.19.13.28.09.19.18.38.26.57.09.19.18.38.26.57s.18.38.26.57c.18.38.35.75.54,1.13.18.38.36.74.55,1.12.19.37.37.74.56,1.11.09.19.19.37.29.55.05.09.1.18.14.28.02.05.05.09.07.14s.05.09.07.14c.1.19.19.37.29.55.1.18.19.37.29.55.1.18.2.37.29.55.1.18.2.37.29.56s.2.37.3.56.2.37.3.55c.1.18.2.37.3.55.1.18.2.37.3.55.2.37.41.73.62,1.1.11.18.21.36.32.54.01.02.03.05.04.07l.04.07s.05.09.08.13c.05.09.11.18.16.27.22.35.45.7.68,1.04.23.34.48.67.73,1,.25.33.51.64.78.95.27.31.55.61.84.91.29.3.59.58.89.86.08.07.15.14.23.21.04.04.08.07.12.1.04.03.08.07.12.1.16.14.31.27.47.41.32.27.65.53.98.79.33.26.67.51,1.01.76.34.25.68.49,1.03.73.35.24.7.47,1.05.7.35.23.71.45,1.07.66.09.05.18.11.27.16l.27.16c.18.1.36.2.55.3.37.2.73.39,1.11.56.37.18.75.35,1.13.5.38.16.76.3,1.15.44.39.14.78.27,1.18.39.2.06.4.12.59.17.1.03.2.06.3.08.05.01.1.03.15.04l.15.04c.4.11.8.2,1.21.3s.81.19,1.22.28c.2.05.41.09.61.14.2.04.41.09.61.13.2.05.41.09.61.14.2.05.41.09.61.14.41.09.81.18,1.22.28.2.05.4.1.61.15.2.05.4.1.61.15.4.1.81.2,1.21.31.4.1.81.21,1.21.32s.8.22,1.21.33c.4.11.8.23,1.2.34.4.12.8.24,1.2.36.2.06.4.12.6.18.2.06.4.12.6.19.4.13.79.26,1.19.39.39.13.79.27,1.18.41.39.14.78.29,1.17.44.39.15.77.3,1.16.46.39.16.77.32,1.15.49.1.04.19.08.28.13s.19.09.28.13c.19.09.38.18.57.27.38.18.75.36,1.12.55s.74.38,1.11.58c.18.1.37.2.55.3.18.1.37.2.55.3.18.1.37.2.55.3.18.1.37.2.55.3.18.1.37.2.55.29.09.05.18.1.28.15.05.02.09.05.14.07.05.02.09.05.14.07.37.19.74.38,1.12.56s.75.36,1.13.52c.38.17.77.32,1.15.47s.78.29,1.18.41c.4.13.79.24,1.19.35.2.05.4.1.6.15.2.05.4.09.61.14.41.09.81.16,1.22.23s.82.13,1.23.19c.41.06.82.11,1.23.15.41.05.82.09,1.24.14.41.04.83.09,1.24.13.09.01.19.02.28.03.05,0,.09.01.14.02s.09.01.14.02c.19.02.38.05.56.07.38.05.75.11,1.13.17.38.06.75.13,1.12.21.37.08.75.17,1.11.27.37.1.73.21,1.09.34.36.12.71.26,1.06.42.17.08.34.16.51.24.04.02.08.04.12.06.04.02.08.04.13.07.08.04.16.09.25.14.33.18.64.38.94.6.3.22.59.45.87.69.28.25.54.51.78.78.5.56.93,1.16,1.31,1.8.19.33.37.66.54,1,.01.02.02.04.03.06l.03.06.06.13c.04.09.08.17.12.26.08.17.16.35.23.53.15.35.29.71.42,1.07.13.36.25.73.37,1.09.12.36.22.74.33,1.1.1.37.2.74.29,1.11.09.37.17.74.25,1.11.02.09.04.19.06.28l.03.14s.02.09.03.14c.03.19.07.37.1.56.06.37.12.75.16,1.12s.09.75.12,1.13c.02.19.04.38.05.57s.03.38.05.57c.01.19.03.38.04.57.01.19.03.38.04.57.03.38.06.76.09,1.14.02.19.04.38.06.57,0,.05.01.09.01.14,0,.05.01.1.02.14l.03.28c.02.19.05.38.08.56.03.19.06.37.09.56.03.19.07.37.1.56.04.19.08.37.12.56.04.19.09.38.14.57.05.2.1.39.16.59.03.1.06.21.09.31.04.11.07.21.11.32.04.11.08.23.12.34.04.12.09.24.14.37.05.13.11.27.16.4.06.15.13.29.19.44.04.08.07.16.11.24.04.08.08.17.12.25.04.09.08.18.13.26.05.09.09.19.14.28.05.1.1.2.15.3.05.11.11.21.17.32.06.11.12.23.18.34.07.12.13.24.2.36.07.13.14.26.22.39.16.28.32.56.49.84l.02.04c.16.2,1.86,1.82,2.8,2.73.52.5,1.07.96,1.69,1.33,0,0,0,0,.01,0,.37.23.75.44,1.14.63.19.1.39.19.58.28.2.09.39.17.59.25.39.16.79.3,1.2.42.4.12.81.22,1.21.29.4.08.81.13,1.22.16.41.03.81.04,1.22.03.41-.01.81-.05,1.22-.1.41-.06.81-.13,1.21-.23.41-.1.81-.21,1.21-.34.02,0,.05-.02.08-.02.01,0,.02,0,.04-.01h.04c.05-.03.1-.05.15-.06.1-.04.2-.07.3-.11.2-.07.4-.15.6-.23.2-.08.4-.16.6-.24.2-.08.4-.17.6-.25.2-.08.41-.17.61-.25s.4-.17.61-.25c.2-.08.4-.16.6-.23.2-.07.4-.14.6-.21.2-.06.4-.13.6-.18.2-.05.4-.1.6-.14.19-.04.39-.07.59-.09.19-.02.39-.03.58-.03.19,0,.38,0,.57.03.19.02.37.05.55.1s.36.11.54.18c.01,0,.02,0,.03.01.01,0,.02,0,.03.01.02.01.04.02.06.03.04.02.09.04.13.06.09.04.17.09.25.14.17.1.33.21.49.33.08.06.16.13.23.19s.15.14.22.21c.07.07.14.15.21.23.07.08.14.16.2.25.13.17.26.35.37.53.12.19.23.38.33.58.1.2.19.41.28.61.08.21.16.42.22.63.06.21.12.42.17.64.05.21.08.42.12.63.02.1.03.21.04.31s.02.2.03.31c0,.1.02.2.02.3,0,.1.01.2.02.3,0,.1,0,.2.01.3,0,.05,0,.1,0,.15,0,.05,0,.1,0,.15,0,.1,0,.2.01.3,0,.05,0,.1,0,.16s0,.1.01.16,0,.11.01.16c0,.06.01.11.02.17,0,.06.01.11.02.17,0,.06.01.12.02.18.02.09.04.19.06.28.03.1.06.19.09.29.04.1.08.2.12.29.05.1.1.2.15.29.05.1.11.2.17.29.06.1.13.19.19.29.07.1.14.19.22.29.07.1.15.19.23.29.08.1,1.88,2.02,1.96,2.11.39.44.75.9,1.1,1.38.34.46.66.92.97,1.4.3.46.6.93.88,1.4.14.23.28.46.41.7.14.23.27.46.4.69.13.23.26.46.39.69l.38.68c.13.22.25.44.38.67.12.22.25.44.38.65.25.43.5.85.75,1.27.16.26.31.51.47.77.16.25.32.5.48.74.32.48.65.95.99,1.41.33.45.68.89,1.03,1.31.35.42.71.82,1.09,1.21.37.38.75.75,1.15,1.11.39.35.8.69,1.21,1.01.41.32.84.63,1.27.92s.88.57,1.33.83c.47.27.94.53,1.43.78.48.25.98.48,1.47.71.5.23,1,.44,1.51.65.51.21,1.02.41,1.53.6.52.19,1.04.38,1.56.56.52.18,1.04.35,1.57.53.52.17,1.05.34,1.57.5.52.16,1.05.33,1.57.49.27.08.54.17.81.25.27.08.54.17.81.25.13.04.27.08.4.12.03.01.07.02.1.03.03.01.07.02.1.03.07.02.13.04.2.06.27.08.53.17.8.25.53.17,1.06.33,1.59.5.52.17,1.05.34,1.57.51.52.17,1.03.35,1.55.53.51.18,1.02.36,1.53.55.5.18,1,.37,1.5.57.49.19.99.39,1.48.59.52.21,1.03.43,1.55.65.51.22,1.02.45,1.52.68.5.23,1,.46,1.5.7.49.24.99.48,1.48.72.97.49,1.93.99,2.89,1.51.94.52,1.88,1.04,2.81,1.58.97.56,1.93,1.14,2.89,1.72.47.29.95.58,1.42.87.47.29.94.58,1.4.87.46.29.93.58,1.39.87.46.29.91.58,1.37.87.11.07.23.14.34.22.06.04.11.07.17.11.03.02.06.04.08.05s.06.04.08.05l.68.43c.45.28.89.56,1.34.84.49.31.98.61,1.47.92.48.3.96.6,1.45.9.48.29.95.58,1.43.87.47.28.94.57,1.42.85.47.28.93.55,1.4.82.46.27.93.54,1.39.8.46.26.92.52,1.38.77.46.25.92.5,1.37.75.49.26.99.52,1.48.77.49.25.99.5,1.48.74.49.24.99.47,1.49.7.5.22,1,.44,1.5.65.5.21,1.01.4,1.52.59.51.18,1.02.36,1.54.51.52.16,1.04.3,1.57.42.53.12,1.07.22,1.61.29"/>
  <path class="uuid-f079d7f6-9158-4af2-9b5e-7af56ead7f9b" d="M223.79,163.27c.28-.23.56-.47.83-.71.28-.24.56-.48.83-.71.14-.12.28-.24.42-.36.14-.12.28-.24.42-.36.28-.24.56-.48.84-.72.28-.24.56-.48.84-.71.28-.24.56-.47.85-.7.57-.47,1.14-.92,1.72-1.37.58-.45,1.17-.89,1.77-1.32.6-.43,1.2-.84,1.81-1.25s1.23-.8,1.85-1.18c.63-.38,1.26-.75,1.9-1.11.64-.36,1.28-.7,1.93-1.04.65-.34,1.31-.66,1.97-.98.66-.32,1.33-.62,2-.92.67-.3,1.35-.59,2.03-.87.67-.28,1.35-.56,2.03-.83s1.36-.53,2.05-.79c.69-.26,1.38-.52,2.07-.77.69-.25,1.39-.5,2.08-.75.69-.24,1.38-.48,2.07-.72.69-.24,1.39-.47,2.08-.71.7-.23,1.4-.46,2.09-.69.7-.23,1.4-.45,2.11-.68.69-.22,1.39-.43,2.08-.65.7-.21,1.4-.42,2.1-.63.71-.21,1.41-.41,2.12-.6.71-.2,1.43-.39,2.15-.58.7-.18,1.4-.36,2.1-.53.71-.17,1.42-.34,2.13-.5.36-.08.72-.16,1.08-.24.36-.08.72-.16,1.08-.23.36-.08.73-.15,1.09-.23.37-.07.73-.15,1.1-.22.35-.07.71-.14,1.06-.2.36-.07.71-.13,1.07-.2.36-.07.72-.13,1.08-.19.36-.06.72-.13,1.08-.19.36-.06.72-.12,1.09-.19.36-.06.73-.12,1.09-.19.18-.03.36-.06.55-.09.18-.03.37-.06.55-.09.37-.06.73-.12,1.1-.19.72-.08,4.96-.57,5.68-.66,1.43-.17,2.91-.36,4.34-.54l1.08-.14c.36-.05.72-.09,1.08-.14.72-.09,1.44-.19,2.17-.28.72-.1,1.44-.19,2.16-.29.72-.1,1.44-.2,2.16-.3.72-.1,1.44-.2,2.16-.3.73-.1,1.43-.2,2.16-.3l1.08-.15c.18-.02.36-.05.54-.08.18-.03.36-.05.54-.08.72-.1,1.44-.2,2.16-.3.72-.1,1.44-.2,2.16-.3.72-.1,1.44-.19,2.17-.29,1.45-.18,2.89-.36,4.34-.51.72-.08,1.45-.15,2.17-.22.36-.03.72-.07,1.09-.1.36-.03.72-.06,1.09-.09.73-.06,1.45-.11,2.18-.16.73-.05,1.45-.09,2.18-.13.73-.04,1.45-.08,2.18-.11.73-.04,1.45-.07,2.18-.1.73-.03,1.45-.06,2.18-.09.36-.02.73-.03,1.09-.05s.73-.03,1.09-.05c.73-.03,1.45-.07,2.18-.11.73-.04,1.45-.08,2.18-.13,1.47-.1,2.89-.2,4.35-.34.73-.07,1.45-.13,2.17-.21s1.45-.15,2.17-.23c.18-.02.36-.04.54-.06l.54-.06c.36-.04.72-.08,1.09-.12.36-.04.73-.08,1.09-.12.36-.04.72-.08,1.09-.12.73-.08,1.45-.16,2.18-.24.73-.08,1.45-.16,2.18-.23s1.45-.14,2.18-.21c.73-.07,1.45-.13,2.18-.19.18-.01.36-.03.54-.04.18-.01.36-.03.55-.04.36-.03.73-.06,1.09-.08.73-.05,1.45-.1,2.18-.15.36-.02.73-.05,1.09-.07.36-.02.73-.05,1.09-.07.73-.05,1.46-.09,2.19-.14.73-.05,1.46-.1,2.19-.15.73-.05,1.45-.11,2.18-.17.36-.03.73-.06,1.09-.1.18-.02.36-.04.54-.05.18-.02.36-.04.54-.06.73-.07,1.45-.16,2.17-.25,1.46-.18,2.88-.38,4.33-.62,1.45-.24,2.86-.5,4.3-.77.72-.14,1.43-.28,2.15-.42l.27-.05.27-.05c.18-.04.36-.07.54-.11.36-.07.72-.15,1.07-.22.36-.07.72-.15,1.07-.22.36-.07.71-.15,1.07-.22.72-.15,1.42-.29,2.15-.44.72-.15,1.43-.29,2.15-.43.72-.14,1.43-.28,2.15-.42.72-.14,1.43-.28,2.15-.42.36-.07.72-.14,1.07-.21.09-.02.18-.04.27-.05l.27-.05c.18-.03.36-.07.54-.1l1.07-.2c.36-.07.72-.14,1.07-.2.36-.07.71-.14,1.07-.2.36-.07.71-.13,1.07-.2.36-.07.71-.13,1.07-.2.36-.06.71-.13,1.07-.19.71-.13,1.42-.25,2.13-.37.71-.12,1.42-.24,2.13-.34.71-.11,1.42-.21,2.13-.3,1.43-.18,2.84-.32,4.28-.42.72-.05,1.43-.08,2.15-.1.72-.02,1.44-.03,2.16-.02.72,0,1.45.02,2.17.05.73.03,1.46.07,2.18.11.18.01.36.02.55.04.09,0,.18.01.27.02.05,0,.09,0,.14.01s.09,0,.14.01c.36.03.73.06,1.1.09.73.06,1.46.13,2.19.21.73.08,1.46.16,2.19.25.73.09,1.46.18,2.19.28.72.1,1.45.2,2.17.32.72.11,1.44.23,2.16.36.36.06.72.13,1.07.2.18.03.36.07.53.1.09.02.18.04.27.05.09.02.18.04.27.05.71.14,1.42.3,2.12.46.71.16,1.41.34,2.11.52.7.18,1.4.37,2.1.58s1.39.41,2.09.62c.35.11.7.21,1.04.32l1.04.33c.7.22,1.39.44,2.09.65.17.05.35.11.52.16s.35.11.52.16c.35.11.7.21,1.05.31.7.2,1.4.4,2.11.58.71.18,1.41.35,2.13.51.71.16,1.42.3,2.14.43.72.13,1.43.25,2.16.36.72.11,1.44.2,2.17.29.36.04.72.08,1.09.12.09.01.18.02.27.03.09,0,.18.02.27.03.18.02.36.04.54.05.36.04.73.07,1.09.1.36.03.73.07,1.09.1.36.03.73.06,1.09.1.37.03.72.06,1.09.1.37.03.73.06,1.09.1.36.03.73.07,1.09.1.73.07,1.44.14,2.18.22.36.04.72.08,1.09.12.36.04.72.08,1.09.12.36.04.72.08,1.09.12.18.02.36.04.54.06l.54.06c.36.04.72.08,1.09.12.36.04.72.08,1.09.12.72.07,1.45.14,2.17.21.72.06,1.45.11,2.17.15.73.04,1.45.07,2.18.08.73.01,1.45,0,2.18-.01.73-.02,1.45-.06,2.18-.12.36-.03.73-.06,1.09-.1.36-.04.72-.08,1.09-.13.72-.09,1.45-.2,2.17-.33s1.44-.27,2.15-.42c.71-.16,1.43-.33,2.14-.51.71-.18,1.42-.37,2.12-.57.7-.2,1.4-.41,2.1-.62.35-.11.7-.22,1.04-.33.17-.05.35-.11.52-.17.09-.03.17-.06.26-.08.09-.03.17-.06.26-.08.69-.22,1.38-.45,2.07-.68.69-.23,1.37-.47,2.06-.7s1.37-.48,2.05-.72,1.36-.48,2.05-.73c.68-.25,1.36-.49,2.05-.74.34-.12.68-.25,1.02-.37.34-.12.68-.25,1.02-.37l.51-.19c.17-.06.34-.12.51-.19.34-.12.69-.25,1.03-.37.68-.25,1.38-.5,2.06-.74.69-.25,1.38-.49,2.07-.73s1.38-.48,2.08-.71c.69-.23,1.39-.46,2.09-.68.7-.22,1.39-.44,2.09-.64.35-.1.7-.2,1.05-.3.09-.02.18-.05.26-.07.09-.02.18-.05.26-.07.17-.05.35-.1.53-.14.7-.19,1.4-.37,2.11-.55.7-.17,1.41-.34,2.12-.5,1.42-.32,2.83-.6,4.26-.86.71-.13,1.43-.26,2.14-.38.71-.12,1.43-.24,2.15-.36.36-.06.72-.12,1.08-.18.36-.06.72-.12,1.08-.18.36-.06.72-.12,1.08-.18.36-.06.72-.12,1.08-.18s.72-.12,1.08-.18c.36-.06.72-.12,1.09-.17.36-.06.72-.12,1.09-.17s.72-.11,1.09-.17c.72-.11,1.45-.22,2.17-.32.72-.1,1.45-.2,2.18-.29.18-.02.36-.04.54-.07.09-.01.18-.02.27-.03s.18-.02.27-.03c.36-.04.72-.08,1.09-.11.72-.07,1.45-.13,2.17-.18.72-.05,1.45-.08,2.17-.1s1.45-.02,2.17-.01c.72.01,1.45.04,2.17.08.72.04,1.44.1,2.17.17.36.04.72.07,1.08.11.18.02.36.04.54.06.05,0,.09.01.13.02l.14.02c.09.01.18.02.27.03.72.09,1.44.2,2.16.31.72.11,1.44.24,2.16.37s1.44.27,2.15.41c.71.14,1.43.29,2.14.45.71.16,1.42.32,2.13.49.71.17,1.41.34,2.12.53.09.02.18.05.26.07.09.02.18.05.26.07.18.05.35.09.53.14.35.1.7.19,1.05.29s.7.2,1.04.31c.35.1.69.21,1.04.32.69.22,1.38.45,2.06.69.68.24,1.36.5,2.03.76.68.27,1.34.55,2.01.84.67.3,1.33.6,1.98.92.33.16.65.32.98.49.08.04.16.08.24.13.08.04.16.08.24.13.16.08.32.17.48.26.64.35,1.28.7,1.92,1.07s1.26.75,1.88,1.13c.62.39,1.24.78,1.85,1.19.61.4,1.22.82,1.82,1.24.6.42,1.19.84,1.78,1.28.59.43,1.17.87,1.75,1.31.58.44,1.15.89,1.72,1.34.57.45,1.13.91,1.69,1.37,1.12.93,2.22,1.87,3.31,2.82.54.48,1.09.96,1.63,1.45.54.48,1.08.97,1.61,1.46.13.12.27.25.4.37.07.06.13.12.2.18.07.06.13.12.2.19.27.25.53.49.8.74.53.49,1.07,1,1.6,1.49.53.5,1.06,1,1.59,1.51.53.5,1.06,1.01,1.58,1.52.52.51,1.05,1.02,1.56,1.53s1.03,1.03,1.55,1.55c.25.26.51.52.76.78.13.13.25.26.38.39l.38.39c.5.53,1,1.06,1.49,1.6.98,1.08,1.93,2.17,2.86,3.3.93,1.13,1.81,2.28,2.67,3.46.43.59.85,1.19,1.26,1.79.1.15.2.3.31.45.1.15.2.3.3.45.2.3.4.61.6.91.4.61.78,1.23,1.17,1.85.38.62.76,1.24,1.13,1.87.37.63.74,1.26,1.1,1.89.36.63.72,1.26,1.07,1.9.35.63.7,1.27,1.05,1.91.17.32.35.64.52.96.17.32.34.64.51.96.34.64.68,1.29,1.01,1.93.33.64.67,1.29.99,1.94.33.65.65,1.3.97,1.95.32.65.64,1.31.95,1.97.62,1.32,1.23,2.64,1.81,3.98.29.67.58,1.34.86,2.01.28.67.55,1.35.82,2.03.27.68.53,1.36.78,2.04.25.68.51,1.37.75,2.05s.48,1.38.71,2.07.45,1.39.66,2.08c.11.35.21.7.31,1.05.1.35.2.7.3,1.05.2.7.38,1.41.56,2.11.17.71.34,1.42.49,2.13.15.71.28,1.43.4,2.15s.22,1.44.31,2.16c.09.72.16,1.44.21,2.17.03.36.05.72.07,1.09.01.18.02.36.02.54,0,.09,0,.18.01.27s0,.18,0,.27c.02.73.03,1.45.02,2.18,0,.73-.03,1.45-.05,2.18-.03.73-.07,1.46-.11,2.18-.02.36-.04.73-.07,1.09-.02.36-.05.73-.07,1.09-.02.36-.05.73-.07,1.09-.01.18-.02.36-.04.54-.01.18-.11,1.77-.12,1.95,0,.16,0,.32,0,.48.01.33.04.65.07.97.04.33.09.66.15.99.03.17.07.34.1.5.04.17.08.34.12.51.04.17.08.35.13.52.05.18.1.36.14.53.03.09.05.18.08.27.03.09.05.18.08.28.03.09.05.19.08.28.03.1.06.19.09.28.03.1.06.19.09.29.03.1.06.19.09.29.03.1.06.2.09.3.03.1.06.2.1.3.03.1.07.2.1.31.03.1.07.21.1.31.03.11.07.21.1.32.03.11.07.21.1.32.04.11.07.22.1.33.04.11.07.22.11.33l.21.67c.07.23.15.46.22.69.04.12.07.23.11.35s.07.24.11.35c.08.24.15.48.23.72.07.24.15.49.23.74.08.25.15.5.23.75.08.25.15.5.23.75.15.51.3,1.02.45,1.53.15.51.29,1.03.44,1.54.14.51.28,1.02.42,1.54l.2.76c.07.25.13.5.2.76.06.25.13.5.19.75l.19.74c.06.24.12.48.18.73.06.24.12.48.18.72.06.23.12.47.18.7.06.23.11.46.17.69.06.23.11.45.17.68.05.22.11.44.16.66.05.22.11.43.16.65.05.21.11.42.16.64l.16.63c.05.2.1.41.16.61.1.4.2.79.31,1.19.1.38.2.76.3,1.14.05.19.1.37.15.56.05.18.1.36.15.55.05.18.1.36.16.54.05.18.1.35.16.53.05.17.1.35.16.52.05.17.11.34.16.51.11.34.22.67.33,1.01.11.33.22.66.34.98.03.08.06.16.09.24.03.08.06.16.09.24.06.16.11.32.17.48.12.32.23.63.35.95.12.31.24.62.36.93.16.4.32.8.48,1.2.16.39.32.79.49,1.18.16.39.33.78.49,1.17.16.39.33.78.5,1.17.08.19.17.39.25.58.08.19.17.39.25.58.08.19.17.39.25.58.02.05.04.1.06.14.02.05.04.1.06.14.04.1.08.19.12.29.17.39.33.77.5,1.16.17.39.33.77.49,1.16.17.39.33.77.49,1.16.17.39.33.77.49,1.16.16.39.33.77.49,1.16.16.39.33.77.49,1.16.17.39.33.77.49,1.16.08.19.16.39.25.58.08.19.17.39.25.58.17.39.33.77.5,1.16s.33.77.5,1.16c.17.39.33.77.5,1.15l.25.58c.08.19.17.38.25.58.17.38.34.77.5,1.15.17.39.33.77.5,1.16.08.19.17.39.25.58.04.1.08.19.12.29.04.1.08.19.12.29.16.39.32.77.48,1.16.16.39.32.78.47,1.17.16.39.31.78.46,1.17.15.39.3.78.45,1.18l.22.59c.07.2.15.39.22.59.15.39.3.79.45,1.18.15.39.3.78.46,1.18.04.1.08.19.12.29l.06.15s.04.1.06.15c.08.19.16.39.24.58.16.39.32.77.49,1.16.34.77.68,1.52,1.05,2.28.18.38.37.75.57,1.12.19.37.39.74.59,1.11s.4.74.61,1.1c.1.18.21.37.31.55.05.09.1.18.16.27.03.05.05.09.08.14.03.05.05.09.08.14.1.18.21.36.31.55s.21.36.32.55c.11.18.21.36.32.55.11.18.21.37.32.55.21.37.42.73.63,1.1.21.37.42.73.63,1.1.1.18.21.37.31.55.1.18.21.37.31.55.1.18.21.37.31.55.1.18.21.37.31.55.21.37.42.74.63,1.1.05.09.11.18.16.27.03.05.05.09.08.14.03.05.05.09.08.14.11.18.21.36.32.54.22.36.44.72.66,1.07.23.35.46.7.69,1.05.24.35.48.69.72,1.03.25.34.5.67.76,1,.26.33.52.65.79.98s.54.64.82.96c.14.16.28.31.42.47.07.08.14.16.21.24l.21.23c.28.31.56.63.85.94.14.16.28.31.42.47s.28.31.42.47c.28.31.56.63.84.94.28.32.55.63.83.95.27.32.54.64.81.97.27.33.53.65.79.98.26.33.52.66.77,1,.13.17.25.34.38.5.13.17.25.34.38.51.25.34.5.68.75,1.02l.37.51c.12.17.25.34.37.51.25.34.5.68.75,1.02.25.34.5.67.76,1.01.25.34.51.67.76,1,.26.34.51.66.77,1,.26.33.52.66.78.99.13.16.26.33.39.49l.39.49c.26.33.53.66.79.99.27.33.53.66.79.99s.52.66.79.99.52.66.78.99.52.66.77,1c.26.33.51.67.77,1,.13.17.25.34.38.5.13.17.25.34.38.51.25.34.5.67.76,1.01.25.34.5.68.75,1.01.25.34.5.68.75,1.02.25.33.5.68.75,1.02.24.33.5.68.75,1.02.25.34.5.68.75,1.02.25.34.5.68.75,1.02.12.17.25.34.37.51s.25.34.37.51c.25.34.49.68.74,1.02s.49.68.74,1.03c.25.35.49.68.74,1.03.12.17.24.34.37.52s.24.34.37.52c.24.34.49.69.74,1.03.25.34.49.69.74,1.03.12.17.25.34.37.51.06.08.12.17.19.25l.19.25c.25.34.5.68.75,1.01.51.68,1.02,1.33,1.54,1.99.53.66,1.06,1.3,1.6,1.94.27.32.55.63.82.95s.56.63.84.94c.07.08.14.16.21.23.07.08.14.15.21.23.14.16.28.31.43.46.29.31.57.61.86.92.57.6,1.17,1.22,1.75,1.81.29.3.59.6.89.89.3.3.6.59.9.89.3.29.61.58.91.87.15.14.31.29.46.43.08.07.15.14.23.21.08.07.16.14.23.21.31.28.63.56.94.83.32.27.64.54.96.81.65.53,1.31,1.04,2,1.54s1.38.96,2.09,1.41c.36.23.71.45,1.07.66.09.05.18.11.27.16.09.05.18.11.27.16.18.11.36.21.55.32.37.21.74.42,1.11.62s.74.4,1.12.6c.37.2.75.39,1.12.59.37.19.75.39,1.13.58.75.38,1.51.76,2.27,1.12.19.09.38.18.57.28.1.05.19.09.28.14s.19.09.28.14c.38.18.76.36,1.14.54.76.36,1.52.71,2.29,1.05.77.35,1.53.68,2.31,1.02.78.34,1.54.66,2.32.99.19.08.39.16.58.25.19.08.39.16.58.24.38.16.78.33,1.16.49.19.08.39.16.58.24.19.08.39.16.58.24.19.08.39.16.58.24.19.08.39.16.58.24s.39.16.58.24c.19.08.39.16.58.24.39.16.78.32,1.16.48s.77.32,1.16.48c.19.08.39.16.58.24.1.04.19.08.29.12.1.04.19.08.29.12.78.31,1.55.61,2.34.9.79.29,1.57.57,2.37.84.4.14.8.27,1.19.4s.8.26,1.2.39c.4.13.8.26,1.2.38l.3.1s.1.03.15.05c.05.02.1.03.15.05.2.06.4.13.6.19.41.13.8.25,1.21.38s.8.25,1.21.39.8.26,1.2.39.8.27,1.2.4c.4.14.8.27,1.2.41.4.14.79.28,1.19.42.4.14.79.28,1.19.43.4.14.79.28,1.19.43.4.14.79.28,1.19.43.4.14.79.28,1.19.42.4.14.79.28,1.19.41.4.14.8.27,1.2.41.4.14.8.27,1.2.4.2.07.4.13.6.2.2.07.4.13.6.2.2.07.4.13.6.2l.3.1c.1.03.2.07.3.1.4.14.8.28,1.19.42.4.14.79.28,1.19.43s.79.29,1.18.45c.39.15.78.31,1.17.47.39.16.78.33,1.16.49.39.17.77.34,1.16.52.38.17.77.35,1.15.54.1.05.19.09.29.14.1.05.19.09.29.14.19.09.38.19.57.28.38.19.76.38,1.13.57.74.38,1.5.78,2.23,1.19.37.2.74.41,1.1.62.36.21.73.42,1.09.64.36.22.72.43,1.07.66.18.11.35.23.53.34.04.03.09.06.13.09.04.03.09.06.13.09.09.06.17.12.26.17.34.24.68.48,1.02.72s.66.5.99.76c.65.52,1.27,1.07,1.87,1.65.3.29.59.59.88.89.29.31.57.62.84.94.28.32.54.65.8.98.03.04.07.08.1.12.02.02.03.04.05.06.02.02.03.04.05.06.07.08.13.17.19.25.13.17.25.34.38.51.25.34.5.69.74,1.04.24.35.48.71.71,1.06.46.71.91,1.44,1.35,2.17.22.36.43.73.64,1.1.21.37.42.73.63,1.1.1.18.21.37.31.55.03.05.05.09.08.14.03.05.05.09.08.14l.15.28c.1.18.2.37.31.55.1.18.2.37.3.55.1.18.2.37.3.55.1.18.2.37.3.55.2.37.41.73.61,1.1s.41.73.63,1.09c.21.36.43.72.65,1.08.22.36.45.72.69,1.07.24.35.48.7.73,1.05l.1.13s.03.04.05.06l.05.06c.06.09.13.17.19.26.13.17.26.34.4.51.27.33.55.66.84.98.29.32.59.63.9.93.31.3.64.59.97.87.33.28.68.55,1.03.8.35.25.72.5,1.09.72.37.23.75.44,1.14.63.19.1.39.19.58.28.2.09.39.17.59.25.39.16.79.3,1.2.42.4.12.81.22,1.21.29.4.08.81.13,1.22.16.41.03.81.04,1.22.03.41-.01.81-.05,1.22-.1.41-.06.81-.13,1.21-.23.41-.1.81-.21,1.21-.34.02,0,.05-.02.08-.02.01,0,.02,0,.04-.01h.04c.05-.03.1-.05.15-.06.1-.04.2-.07.3-.11.2-.07.4-.15.6-.23.2-.08.4-.16.6-.24.2-.08.4-.17.6-.25.2-.08.41-.17.61-.25s.4-.17.61-.25c.2-.08.4-.16.6-.23.2-.07.4-.14.6-.21.2-.06.4-.13.6-.18.2-.05.4-.1.6-.14.19-.04.39-.07.59-.09.19-.02.39-.03.58-.03.19,0,.38,0,.57.03.19.02.37.05.55.1s.36.11.54.18c.01,0,.02,0,.03.01.01,0,.02,0,.03.01.02.01.04.02.06.03.04.02.09.04.13.06.09.04.17.09.25.14.17.1.33.21.49.33.08.06.16.13.23.19s.15.14.22.21c.07.07.14.15.21.23.07.08.14.16.2.25.13.17.26.35.37.53.12.19.23.38.33.58.1.2.19.41.28.61.08.21.16.42.22.63.06.21.12.42.17.64.05.21.08.42.12.63.02.1.03.21.04.31s.02.2.03.31c0,.1.02.2.02.3,0,.1.01.2.02.3,0,.1,0,.2.01.3,0,.05,0,.1,0,.15,0,.05,0,.1,0,.15,0,.1,0,.2.01.3,0,.05,0,.1,0,.16s0,.1.01.16,0,.11.01.16c0,.06.01.11.02.17,0,.06.01.11.02.17,0,.06.01.12.02.18.02.09.04.19.06.28.03.1.06.19.09.29.04.1.08.2.12.29.05.1.1.2.15.29.05.1.11.2.17.29.06.1.13.19.19.29.07.1.14.19.22.29.07.1.15.19.23.29.08.1.16.19.24.28.08.1.17.19.25.28.08.09.17.19.26.28l.26.28c.09.09.17.18.26.28.09.09.17.18.26.28.17.18.34.37.5.56.16.19.31.37.46.57.14.19.28.38.41.58.13.2.24.4.35.6.05.1.11.2.16.31.01.03.02.05.04.08s.02.05.04.08c.02.05.05.1.07.16.09.21.17.42.25.64.07.22.14.44.2.66.06.22.12.45.17.68.05.23.1.46.15.69.02.12.05.23.07.35.02.12.05.23.07.35.02.12.04.24.06.35s.04.24.06.35l.06.36c.02.12.04.24.07.36.04.24.09.47.13.71.05.24.09.47.14.71.02.12.05.24.07.36.02.12.05.24.07.35s.05.24.07.35c.02.12.05.23.07.35.01.06.02.12.03.18,0,.01,0,.03,0,.04,0,.01,0,.03,0,.04,0,.03.01.06.02.09.02.12.05.23.07.35.04.23.08.46.12.7.04.23.07.46.1.69.03.23.05.46.07.68.02.23.03.45.04.68,0,.45,0,.89-.06,1.34-.03.22-.06.44-.1.66-.04.22-.1.44-.16.66-.06.22-.13.43-.21.65-.08.22-.16.43-.26.64-.05.11-.1.21-.14.32-.02.05-.05.11-.08.16-.01.03-.03.05-.04.08,0,.01-.01.03-.02.04,0,.01-.01.03-.02.04-.11.21-.22.42-.34.63-.12.21-.25.42-.37.62-.13.21-.27.41-.4.61-.14.2-.28.4-.42.6-.14.2-.29.4-.44.6-.15.2-.3.39-.45.59-.15.19-.3.39-.45.58-.07.1-.15.19-.23.29-.07.1-.15.19-.22.29-.07.09-.15.19-.22.28-.07.1-.15.19-.22.28-.15.19-.29.38-.44.57-.14.19-.29.37-.43.56-.07.09-.14.19-.21.28-.02.02-.04.05-.05.07,0,.01-.02.02-.03.04,0,.01-.02.02-.02.04-.04.05-.07.09-.1.14-.14.19-.27.37-.41.56-.27.37-.52.75-.78,1.13-.25.38-.49.77-.73,1.16-.24.39-.47.79-.69,1.19-.22.4-.44.81-.65,1.22-.21.42-.42.83-.61,1.26-.02.05-.05.11-.07.16-.01.03-.02.05-.04.08-.01.03-.02.05-.04.08-.05.11-.1.21-.14.32-.09.22-.19.43-.28.65-.18.44-.35.87-.52,1.32-.16.44-.32.89-.46,1.34-.15.45-.28.9-.41,1.36-.13.46-.25.91-.36,1.37-.06.23-.11.46-.16.69-.03.11-.05.23-.08.34-.01.06-.02.11-.04.17,0,.03-.01.06-.02.09,0,.03-.01.06-.02.09-.1.46-.19.92-.28,1.37-.09.46-.18.92-.26,1.37-.04.23-.08.46-.13.69-.04.23-.08.46-.13.69-.04.23-.08.46-.13.69-.04.23-.09.46-.13.68-.09.46-.18.91-.27,1.37-.05.23-.09.46-.14.69-.05.23-.09.46-.14.69s-.1.46-.14.69c-.05.23-.1.46-.14.69-.05.23-.1.46-.14.69-.05.23-.1.46-.14.69-.1.46-.19.92-.28,1.38-.09.46-.18.92-.25,1.39-.08.46-.15.93-.21,1.39-.03.23-.06.47-.08.7,0,.06-.01.12-.02.17,0,.06-.01.12-.02.18-.01.12-.02.23-.03.35-.04.47-.06.93-.08,1.4-.01.47,0,.94.01,1.4.02.47.06.93.11,1.4.06.47.13.93.22,1.39.09.46.19.92.32,1.38.03.11.06.23.09.34.02.06.03.11.05.17s.03.11.05.17c.07.23.14.45.22.68.15.45.32.89.49,1.33.35.88.76,1.74,1.19,2.58.22.42.45.83.68,1.24.23.41.48.81.72,1.21.06.1.12.2.19.3.06.1.13.2.19.3.13.2.26.39.39.59.26.39.53.78.8,1.16.54.77,1.1,1.53,1.67,2.28.29.38.57.75.86,1.13.14.19.29.37.43.56.07.09.15.19.22.28.07.09.15.19.22.28.14.19.29.37.44.56l.43.56c.29.37.58.74.87,1.12.29.37.57.74.86,1.12.28.37.57.75.85,1.12.28.37.56.75.83,1.13.14.19.27.38.41.57.03.05.07.09.1.14.03.05.07.09.1.14.07.09.14.19.2.28.27.38.54.76.81,1.13s.54.76.8,1.14c.27.38.53.77.8,1.15.27.39.53.77.79,1.16s.52.78.78,1.17c.13.2.26.39.39.59.03.05.07.1.1.15.03.05.07.1.1.15.07.1.13.2.19.29.13.2.26.39.39.59.13.2.26.4.39.59l.39.59c.13.2.26.4.39.6s.26.4.39.6c.13.2.26.4.39.6.26.4.52.79.79,1.18s.53.78.81,1.17c.07.1.14.19.2.29.03.05.07.1.1.14.04.05.07.1.1.14.14.19.28.38.42.57.57.75,1.15,1.47,1.78,2.17.31.35.63.69.96,1.02.33.33.66.66,1,.98s.69.63,1.04.94l.13.12s.09.08.13.12c.09.08.18.15.27.23.18.15.36.3.54.46.36.3.72.6,1.09.9.18.15.36.3.55.45.18.15.37.3.55.45.37.3.73.6,1.09.91.36.3.72.61,1.08.92.18.16.36.31.53.47.09.08.18.16.26.24.04.04.09.08.13.12.04.04.09.08.13.12.35.32.69.64,1.03.97.34.33.67.66,1,.99.33.33.66.67.98,1.01s.64.69.95,1.04.62.7.93,1.05c.15.18.3.35.46.53.08.09.15.18.23.27.08.09.15.18.23.27.3.36.6.72.89,1.08s.59.73.89,1.09c.15.18.29.36.44.55.15.18.29.37.44.55.29.37.59.73.89,1.1.3.36.59.73.9,1.09.15.18.3.36.45.54.15.18.3.36.46.54.31.36.62.71.93,1.06.31.35.63.7.95,1.04s.64.68.97,1.02.65.67.98,1.01.66.67.99,1c.08.08.17.17.25.25.08.08.17.17.25.25.17.17.33.33.5.5.33.34.66.67.99,1.01s.65.67.98,1.02.64.68.96,1.03c.16.17.32.34.48.52.16.17.32.35.48.52.16.17.32.35.48.52.16.17.32.35.48.52.16.17.32.34.48.52s.32.34.48.51c.33.34.65.67.99,1s.67.65,1.02.97c.35.32.7.63,1.06.93.36.3.72.6,1.1.89.37.29.75.57,1.13.84.1.07.19.14.29.2s.19.13.29.2c.19.13.39.27.59.4.39.26.79.52,1.19.77.4.25.8.49,1.21.74.4.24.81.48,1.22.72.4.24.82.47,1.22.7.2.12.41.23.61.35.2.12.41.23.61.34.41.23.82.46,1.23.68.41.23.83.45,1.24.67.42.22.83.44,1.25.66.42.22.84.43,1.27.64s.85.41,1.28.61c.21.1.43.2.64.29.05.02.11.05.16.07.05.02.11.05.16.07.11.05.22.09.32.14.43.19.86.37,1.3.54s.87.34,1.31.5c.44.16.88.31,1.32.46.22.07.44.15.66.22.22.07.44.14.67.21.22.07.45.14.67.21.11.04.22.07.33.11.11.04.22.07.34.11.22.07.45.14.67.21.03,0,.06.02.08.03s.06.02.08.03c.06.02.11.04.17.05.11.04.22.07.34.11.9.3,1.79.61,2.67.97.44.18.87.38,1.3.59.42.21.84.44,1.25.68.4.24.8.51,1.17.79.09.07.19.14.28.21l.07.05s.05.04.07.06c.05.04.09.07.13.11.18.15.35.3.52.46.34.32.65.65.94,1.01.29.36.56.73.8,1.12s.46.8.65,1.21c.19.42.36.86.5,1.3.14.45.26.9.36,1.36.01.06.02.12.04.17.01.06.02.12.04.17.02.12.04.23.06.35.04.24.08.47.11.71.06.47.11.95.15,1.43.04.48.06.96.07,1.44.01.48.02.96,0,1.44,0,.47-.02.95-.05,1.42-.01.24-.03.47-.04.71,0,.12-.02.23-.03.35,0,.06-.01.12-.02.18,0,.03,0,.06,0,.09,0,.03,0,.06,0,.09-.04.46-.1.93-.16,1.39-.07.46-.14.92-.23,1.37s-.19.9-.31,1.35c-.12.45-.24.89-.39,1.34-.14.45-.3.88-.46,1.32-.08.22-.17.44-.26.65-.04.11-.09.22-.13.33l-.03.08s-.02.05-.04.08c-.02.05-.05.11-.07.16-.19.43-.38.86-.59,1.29s-.41.85-.63,1.27-.44.84-.66,1.26c-.22.42-.45.83-.68,1.24-.23.41-.46.82-.7,1.23-.12.2-.23.41-.35.61l-.35.61c-.24.4-.47.81-.71,1.21-.24.4-.48.81-.72,1.21-.24.4-.48.8-.72,1.2-.24.4-.49.8-.73,1.2-.25.4-.49.8-.74,1.2-.06.1-.13.2-.19.3-.03.05-.06.1-.09.15s-.06.1-.09.15c-.13.2-.25.4-.38.59-.25.4-.51.79-.77,1.19-.26.4-.52.79-.78,1.18-.26.4-.52.78-.78,1.18-.13.2-.26.39-.39.59-.13.19-.26.39-.39.59-.26.39-.52.78-.78,1.17-.06.1-.13.2-.19.29-.03.05-.07.1-.1.15-.03.05-.06.1-.1.15-.13.2-.26.39-.39.59-.26.39-.51.78-.76,1.18-.25.4-.5.79-.75,1.19-.25.4-.49.8-.73,1.2-.24.4-.48.81-.71,1.22s-.47.82-.7,1.23c-.06.1-.11.2-.17.31-.06.1-.11.21-.17.31l-.34.62c-.22.41-.45.83-.67,1.24-.22.41-.45.83-.67,1.24-.22.41-.44.83-.66,1.25s-.44.83-.65,1.25c-.11.21-.22.42-.32.63-.05.1-.11.21-.16.31-.05.11-.11.21-.16.31-.21.42-.42.84-.63,1.26-.21.42-.41.84-.61,1.27-.4.85-.79,1.7-1.16,2.56-.19.43-.37.86-.55,1.3-.18.44-.35.87-.52,1.31-.17.44-.34.88-.5,1.32-.16.44-.33.88-.48,1.33-.16.44-.31.89-.47,1.33-.15.44-.31.89-.46,1.34-.15.44-.3.89-.45,1.34-.08.22-.15.45-.23.67-.04.11-.07.22-.11.33s-.07.22-.11.33c-.15.45-.3.89-.45,1.34-.15.45-.3.89-.45,1.34-.3.9-.6,1.77-.91,2.66-.16.45-.31.89-.47,1.33-.04.11-.08.22-.12.33s-.08.22-.12.33c-.08.22-.16.44-.24.66-.08.22-.16.44-.24.66-.08.22-.16.44-.24.66-.08.22-.16.44-.24.66-.08.22-.16.44-.24.66-.16.44-.32.89-.47,1.33-.16.44-.31.89-.46,1.33-.15.45-.3.89-.44,1.34-.02.06-.04.11-.05.17-.02.06-.04.11-.05.17-.03.11-.07.22-.1.34-.07.22-.13.45-.2.68-.26.91-.49,1.8-.69,2.73-.1.46-.19.92-.28,1.38-.09.46-.17.92-.24,1.39-.08.46-.15.93-.21,1.39-.02.12-.03.23-.05.35-.02.12-.03.23-.05.35-.03.23-.07.47-.1.7l-.1.7c-.03.25-.06.45-.09.7-.03.24-.06.47-.1.7-.03.23-.06.47-.1.7-.07.47-.13.92-.2,1.4-.03.23-.07.46-.1.7s-.07.47-.1.7l-.1.7c-.03.23-.07.47-.1.7-.07.47-.13.93-.2,1.4s-.13.93-.19,1.4-.12.93-.17,1.4c-.06.47-.11.93-.16,1.4-.02.23-.05.47-.08.7s-.05.47-.08.7-.05.47-.08.7c-.02.23-.05.47-.08.7-.05.47-.11.93-.17,1.4-.06.47-.12.93-.19,1.4-.07.47-.14.93-.22,1.39-.08.47-.16.92-.25,1.39-.09.46-.18.92-.27,1.39-.05.23-.09.46-.14.69-.02.11-.05.23-.07.35-.02.12-.05.23-.07.35-.09.46-.18.92-.27,1.38-.09.46-.17.92-.25,1.39-.08.46-.15.92-.22,1.39-.07.47-.13.93-.18,1.39s-.1.93-.14,1.4l-.03.35c0,.06-.01.12-.01.18,0,.06-.01.12-.01.18-.02.23-.04.47-.05.7-.03.47-.06.94-.09,1.41s-.05.94-.07,1.41c-.02.47-.04.94-.06,1.41-.01.24-.02.47-.03.7,0,.24-.02.47-.03.71-.02.48-.04.92-.06,1.41-.01.23-.02.47-.03.7,0,.24-.02.47-.03.7-.02.47-.04.94-.06,1.41-.01.24-.02.47-.03.7-.01.24-.02.47-.03.7-.02.48-.04.92-.06,1.41-.02.5-.04.91-.06,1.41-.02.47-.04.94-.06,1.41"/>
</svg>