<?xml version="1.0" encoding="UTF-8"?>
<svg id="uuid-77247962-1b4f-42ba-ba4c-14161ae3a911" data-name="Migration Routes::Costeira" xmlns="http://www.w3.org/2000/svg" viewBox="0 0 1920 960">
  <defs>
    <style>
      .uuid-17a2af76-e722-43ed-9277-5f37cd735ff1 {
        fill: none;
        stroke: #ff0;
        stroke-linecap: round;
        stroke-linejoin: round;
        stroke-width: 1.5px;
      }
    </style>
  </defs>
  <path class="uuid-17a2af76-e722-43ed-9277-5f37cd735ff1" d="M203.6,246.9c.1-.04.2-.09.3-.13.1-.04.2-.08.3-.13.1-.04.21-.09.3-.13.1-.04.2-.08.3-.13.2-.09.4-.17.6-.25.2-.09.4-.17.6-.26.1-.04.2-.09.3-.13.1-.04.2-.08.3-.13.2-.09.4-.17.6-.26.2-.09.4-.17.6-.25.2-.08.4-.17.6-.25.2-.08.4-.17.6-.25.2-.08.4-.17.6-.25.41-.17.8-.34,1.21-.51.4-.17.8-.35,1.2-.52.4-.18.79-.35,1.19-.53.4-.18.79-.36,1.19-.54.2-.09.4-.18.59-.27l.59-.27c.4-.18.79-.36,1.19-.54.4-.18.79-.36,1.19-.53.2-.09.4-.18.6-.26.2-.09.4-.17.6-.26.4-.17.8-.34,1.21-.51.81-.34,1.61-.67,2.42-1,.4-.17.81-.33,1.21-.49s.81-.33,1.21-.49c.4-.16.81-.33,1.21-.49s.81-.33,1.21-.5c.81-.33,1.61-.67,2.41-1.01.81-.34,1.6-.69,2.4-1.04.2-.09.4-.18.6-.27.2-.09.4-.18.6-.27.4-.18.79-.36,1.19-.55.79-.37,1.58-.74,2.36-1.12.39-.19.79-.38,1.18-.57.39-.19.78-.38,1.17-.58.39-.19.78-.39,1.17-.58.19-.1.39-.19.59-.29.19-.1.39-.19.59-.29.39-.19.78-.39,1.17-.58.39-.19.78-.39,1.17-.58.79-.39,1.56-.77,2.34-1.17.39-.2.78-.39,1.17-.59.19-.1.39-.19.58-.29.2-.1.39-.19.59-.29l1.17-.59c.39-.2.78-.39,1.17-.59.4-.2.77-.39,1.17-.59.41-.2.76-.38,1.17-.59.37-.18.8-.4,1.17-.59.19-.1.39-.2.58-.29s.39-.2.58-.29c.39-.2.78-.4,1.17-.59.39-.2.78-.4,1.16-.6.78-.4,1.54-.81,2.31-1.22.38-.21.76-.42,1.15-.63.19-.11.38-.21.57-.32.19-.11.38-.22.57-.32.38-.22.75-.44,1.13-.66.38-.22.75-.45,1.12-.67.37-.23.74-.45,1.12-.68.37-.23.74-.46,1.11-.69l1.11-.69c.37-.23.74-.46,1.11-.69.19-.12.37-.23.56-.34.19-.11.37-.23.56-.34.37-.23.75-.45,1.12-.67.38-.22.75-.44,1.13-.66.38-.22.76-.43,1.14-.65.76-.43,1.52-.84,2.29-1.26.38-.2.77-.41,1.16-.61.39-.2.77-.4,1.16-.6.39-.2.78-.4,1.16-.6s.78-.4,1.16-.6c.38-.2.78-.4,1.17-.6.38-.19.78-.4,1.17-.59.19-.1.39-.2.58-.3.19-.1.39-.2.58-.3.39-.2.78-.4,1.17-.59.78-.4,1.56-.78,2.34-1.18.79-.39,1.55-.77,2.34-1.16.2-.1.39-.19.59-.29.19-.1.39-.19.59-.29.39-.19.78-.38,1.18-.57.39-.19.78-.38,1.18-.57s.79-.38,1.18-.57c.2-.09.39-.19.59-.28.2-.09.39-.19.59-.28.4-.19.78-.37,1.18-.57.4-.19.78-.37,1.18-.57.1-.05.2-.09.3-.14.1-.05.2-.1.29-.14.2-.09.39-.19.59-.28.39-.19.79-.38,1.18-.57.39-.19.79-.38,1.18-.57.8-.38,1.57-.74,2.37-1.12.4-.18.79-.37,1.19-.55.1-.05.2-.09.3-.14.1-.05.2-.09.3-.14.2-.09.4-.18.59-.27.4-.18.79-.36,1.19-.54.2-.09.4-.18.59-.27s.4-.18.59-.27c.4-.18.79-.36,1.19-.54s.79-.37,1.19-.55c.39-.19.79-.38,1.18-.57.2-.1.39-.19.59-.29.1-.05.2-.1.29-.15.1-.05.19-.1.29-.15.78-.4,1.54-.82,2.3-1.26.76-.44,1.5-.89,2.23-1.38.37-.24.73-.48,1.08-.74.18-.12.36-.25.53-.38.09-.06.18-.13.26-.19.04-.03.09-.06.13-.1.04-.03.09-.06.13-.1.35-.26.69-.52,1.03-.79.34-.27.68-.54,1.01-.82.34-.28.66-.56.99-.84s.65-.57.98-.86c.33-.29.65-.58.97-.87.16-.15.32-.29.48-.44l.49-.44c.08-.07.16-.15.24-.22.08-.07.16-.14.24-.22l.49-.43c.33-.29.65-.58.99-.86.33-.29.66-.57,1-.84.34-.28.68-.55,1.03-.81.35-.27.7-.53,1.05-.78s.71-.5,1.08-.74c.18-.12.36-.24.55-.36s.37-.23.55-.35c.37-.23.75-.45,1.12-.67.38-.22.76-.43,1.15-.64.38-.21.77-.41,1.16-.61.39-.2.78-.4,1.17-.59s.79-.39,1.18-.57c.2-.1.39-.19.59-.28.1-.05.2-.09.3-.14s.2-.09.3-.14c.39-.18.79-.37,1.19-.55.4-.18.8-.36,1.19-.54.4-.18.8-.36,1.2-.53s.8-.34,1.2-.51c.4-.17.81-.33,1.21-.49.2-.08.41-.16.61-.23.2-.08.41-.15.61-.23.41-.15.82-.29,1.24-.42s.83-.27,1.25-.39c.42-.12.84-.24,1.26-.35.42-.11.85-.21,1.27-.31.43-.1.85-.19,1.28-.28.43-.09.86-.17,1.29-.25.22-.04.43-.08.65-.11.22-.04.43-.07.65-.11.43-.07.86-.13,1.3-.19.43-.06.87-.12,1.3-.17s.87-.1,1.3-.15.87-.09,1.3-.14c.43-.04.87-.08,1.3-.12.11-.01.22-.02.33-.03.11-.01.22-.02.33-.03l.65-.06c.43-.04.87-.08,1.3-.12.43-.04.87-.09,1.3-.13.87-.09,1.73-.2,2.59-.33.43-.06.86-.14,1.29-.21.21-.04.43-.08.64-.12.11-.02.21-.04.32-.07.11-.02.21-.04.32-.07.86-.19,1.69-.4,2.53-.65.42-.12.83-.25,1.25-.39s.83-.28,1.24-.44c.41-.15.82-.31,1.22-.47.2-.08.4-.17.61-.25.2-.08.4-.17.6-.25.4-.17.8-.35,1.2-.53.4-.18.8-.36,1.2-.54.2-.09.4-.18.6-.27.2-.09.4-.18.6-.27.4-.18.79-.36,1.19-.54.4-.18.8-.35,1.19-.53.4-.17.8-.34,1.2-.51.2-.08.4-.17.6-.25s.4-.16.61-.24c.41-.16.81-.32,1.22-.47.41-.15.82-.3,1.23-.45.41-.15.82-.29,1.24-.43.41-.14.83-.28,1.24-.42s.83-.27,1.25-.4c.21-.07.42-.13.63-.2.21-.06.42-.13.63-.19.42-.13.84-.26,1.25-.38.42-.13.84-.25,1.26-.37s.84-.24,1.26-.36c.84-.23,1.68-.46,2.52-.68.21-.05.42-.11.63-.16.21-.05.42-.11.63-.16.42-.1.85-.2,1.27-.3.42-.1.85-.2,1.27-.29.43-.1.85-.19,1.28-.28.85-.18,1.71-.37,2.56-.54.21-.04.43-.09.64-.13s.43-.09.64-.13c.43-.08.86-.17,1.29-.25.43-.08.86-.16,1.29-.24.43-.08.86-.16,1.29-.23.43-.08.86-.15,1.29-.23.21-.04.43-.07.64-.11.22-.04.43-.07.64-.11.21-.04.43-.07.64-.11.21-.04.43-.07.64-.11.11-.02.21-.04.32-.06.11-.02.21-.04.32-.06.21-.04.43-.08.64-.12.43-.08.86-.16,1.28-.24.43-.08.85-.17,1.28-.26.43-.09.85-.19,1.28-.29.43-.1.85-.2,1.27-.31.43-.11.84-.22,1.27-.34l.32-.09c.05-.02.11-.03.16-.05.05-.01.11-.03.16-.04.21-.06.42-.12.63-.18s.42-.12.63-.18c.21-.06.42-.12.63-.18.42-.12.84-.25,1.26-.37s.84-.24,1.26-.35c.42-.11.84-.22,1.27-.32.42-.1.84-.19,1.27-.28.43-.08.85-.16,1.28-.23.43-.07.86-.12,1.29-.17.43-.05.86-.09,1.3-.12.43-.03.87-.06,1.31-.08.44-.02.88-.04,1.31-.04.44,0,.88-.01,1.32-.01.44,0,.88,0,1.32.02.44.01.88.03,1.32.05.44.02.88.05,1.32.08.43.03.87.08,1.31.13.43.05.86.11,1.29.19.43.07.85.16,1.27.26.21.05.42.1.63.16.1.03.21.06.31.09.05.02.1.03.16.05.05.02.1.03.15.05.41.13.82.27,1.22.43.4.16.8.33,1.18.52.39.19.78.39,1.15.6.38.22.75.44,1.12.68.37.24.73.49,1.09.75.36.26.71.52,1.06.8.09.07.17.14.26.21.09.07.17.14.26.21.17.14.34.28.51.42.34.28.67.57,1,.86.33.29.65.58.98.88.32.3.64.6.95.9.31.3.62.61.93.91.3.31.6.62.9.93.07.08.15.16.22.24.07.08.15.16.22.24.15.16.29.32.43.48.29.32.57.65.85.98.28.33.55.67.82,1.01.27.34.54.69.8,1.03.26.35.52.7.77,1.06.25.36.51.72.75,1.08.12.18.25.36.37.54.06.09.12.18.18.27s.12.18.18.27c.24.36.48.73.72,1.1.12.18.24.37.36.55l.36.55.36.55c.12.18.24.36.36.54.24.36.48.72.73,1.08.24.36.49.71.74,1.07.12.18.25.35.37.53.12.18.25.35.37.53.25.35.5.7.75,1.06.13.18.25.35.38.53.13.18.25.35.38.53.13.18.25.35.38.53l.19.27c.06.09.13.18.19.26s.13.18.19.27l.19.27c.13.18.26.35.38.53.13.18.26.35.39.53s.26.35.39.53c.13.18.26.35.39.53.13.18.26.35.4.52.07.09.13.17.2.26.07.09.13.17.2.26.14.17.27.34.41.51.28.34.56.67.85,1s.59.64.91.94c.31.3.63.59.97.87.33.28.68.54,1.03.79.36.25.72.48,1.1.7.19.11.38.22.57.32.19.1.38.2.58.3.39.2.78.38,1.18.55.2.09.4.17.6.26.2.08.4.17.61.25.2.08.41.16.61.24.2.08.41.16.61.23.4.15.82.3,1.22.45.2.07.41.14.61.21.2.07.41.14.62.21.21.07.41.13.62.2.05.02.1.03.16.05.05.01.1.03.16.05.1.03.21.06.31.09.21.06.42.12.63.17.21.05.42.1.63.15.21.05.42.09.62.12.1.02.21.04.31.05s.2.03.31.05c.1.01.2.03.3.04.1.01.2.02.3.03.1.01.2.02.29.03.1,0,.19.02.29.02.09,0,.19.02.28.02.09,0,.18.01.27.02.04,0,.09,0,.13.01h.13s.09.02.13.02.09,0,.13.01c.04,0,.09,0,.13.01.04,0,.09,0,.13.01.04,0,.09,0,.13.01.05,0,.09,0,.13.01.05,0,.09,0,.14.01.05,0,.1,0,.14.01.05,0,.1,0,.15.01.05,0,.1,0,.16.01.06,0,.11,0,.17,0,.06,0,.12,0,.18,0,.07,0,.13,0,.2,0,.07,0,.15,0,.22,0,.08,0,.16,0,.25-.01.09,0,.18-.02.28-.03.1-.01.21-.03.31-.04.06,0,.11-.02.17-.03.06,0,.12-.02.18-.03,1.81-.33,4.85-.89,5.53-1.02.92-.18,1.85-.35,2.77-.53.92-.18,1.85-.37,2.77-.56.92-.19,1.84-.39,2.76-.59.46-.1.92-.2,1.38-.31.46-.11.92-.21,1.37-.32.92-.22,1.83-.45,2.74-.68s1.82-.49,2.72-.75,1.8-.53,2.7-.82c.9-.29,1.78-.58,2.67-.89.89-.31,1.77-.64,2.64-.98.88-.34,1.75-.69,2.61-1.06.22-.09.43-.18.65-.28.22-.09.43-.19.65-.28.43-.19.86-.38,1.29-.57.86-.39,1.71-.79,2.55-1.19.85-.41,1.69-.82,2.53-1.24.42-.21.84-.42,1.26-.63.42-.21.84-.43,1.26-.64.42-.21.84-.43,1.26-.64.42-.21.84-.43,1.26-.64.84-.43,1.68-.85,2.52-1.27.21-.1.42-.21.63-.31.11-.05.21-.1.32-.15l.32-.15c.42-.2.85-.41,1.27-.6.85-.4,1.7-.78,2.56-1.16s1.73-.73,2.6-1.06c.88-.34,1.76-.66,2.65-.96.89-.3,1.79-.58,2.69-.83.91-.26,1.82-.49,2.74-.71.46-.11.92-.21,1.38-.31.12-.02.23-.05.35-.07s.23-.05.35-.07c.23-.05.46-.09.7-.14.46-.09.93-.17,1.4-.25.47-.08.93-.15,1.4-.22.93-.14,1.87-.26,2.81-.37.94-.11,1.88-.2,2.82-.28.93-.08,1.87-.15,2.81-.2.93-.06,1.87-.1,2.8-.13.47-.02.93-.03,1.4-.04.23,0,.47,0,.7-.01.12,0,.23,0,.35,0,.06,0,.12,0,.17,0,.06,0,.12,0,.17,0,.93,0,1.86,0,2.79.02.93.02,1.86.06,2.79.12.93.06,1.86.14,2.79.25.93.11,1.86.24,2.79.41.93.17,1.86.36,2.77.6.92.23,1.83.5,2.73.81.23.08.45.16.67.24.22.08.45.17.67.25.44.17.88.36,1.31.55.86.39,1.71.82,2.53,1.29.81.47,1.6.98,2.36,1.54.75.55,1.46,1.15,2.14,1.78.33.32.66.64.97.98.31.33.62.68.91,1.03.29.35.57.71.84,1.08.27.37.53.74.77,1.13.12.19.24.39.36.58.12.2.23.39.35.59.23.4.44.8.65,1.21.41.82.78,1.66,1.12,2.52s.66,1.74.96,2.63c.15.45.29.89.44,1.34.14.45.28.9.42,1.35.07.23.14.45.21.68s.14.45.21.68c.14.46.28.91.42,1.36s.29.91.44,1.36c.15.45.3.9.46,1.36.16.45.32.9.49,1.34.04.11.09.22.13.33.02.06.04.11.07.17s.04.11.07.17c.09.22.18.44.27.66.18.44.38.87.58,1.31.2.43.41.86.62,1.28.43.84.89,1.67,1.39,2.47.5.8,1.02,1.58,1.59,2.33.56.75,1.15,1.47,1.77,2.17.62.7,1.26,1.37,1.92,2.02.33.32.67.64,1.01.95.17.16.34.31.52.46.09.08.17.15.26.23.04.04.09.08.13.11.04.04.09.08.13.11.7.6,1.41,1.19,2.14,1.76.73.57,1.47,1.13,2.21,1.68.37.28.75.55,1.12.83.38.28.75.55,1.13.83.38.28.76.55,1.13.83.38.28.76.56,1.14.84.38.29.76.57,1.13.86.38.29,1.87,1.5,2.24,1.8,8.41,5.52,27.3,9.02,58.85-1.48,8.14-2.71,16.96-2.66,25.51-3.67,8.55-1.01,17.09-2.17,25.66-2.53,8.57-.36,17.19.09,25.79.52s17.2.84,25.76,1.56c8.57.72,17.11,1.77,25.54,3.41,8.43,1.64,16.73,3.89,25.33,4.7"/>
  <path class="uuid-17a2af76-e722-43ed-9277-5f37cd735ff1" d="M203.6,246.9c.1-.04.2-.09.3-.13.1-.04.2-.08.3-.13.1-.04.21-.09.3-.13.1-.04.2-.08.3-.13.2-.09.4-.17.6-.25.2-.09.4-.17.6-.26.1-.04.2-.09.3-.13.1-.04.2-.08.3-.13.2-.09.4-.17.6-.26.2-.09.4-.17.6-.25.2-.08.4-.17.6-.25.2-.08.4-.17.6-.25.2-.08.4-.17.6-.25.41-.17.8-.34,1.21-.51.4-.17.8-.35,1.2-.52.4-.18.79-.35,1.19-.53.4-.18.79-.36,1.19-.54.2-.09.4-.18.59-.27l.59-.27c.4-.18.79-.36,1.19-.54.4-.18.79-.36,1.19-.53.2-.09.4-.18.6-.26.2-.09.4-.17.6-.26.4-.17.8-.34,1.21-.51.81-.34,1.61-.67,2.42-1,.4-.17.81-.33,1.21-.49s.81-.33,1.21-.49c.4-.16.81-.33,1.21-.49s.81-.33,1.21-.5c.81-.33,1.61-.67,2.41-1.01.81-.34,1.6-.69,2.4-1.04.2-.09.4-.18.6-.27.2-.09.4-.18.6-.27.4-.18.79-.36,1.19-.55.79-.37,1.58-.74,2.36-1.12.39-.19.79-.38,1.18-.57.39-.19.78-.38,1.17-.58.39-.19.78-.39,1.17-.58.19-.1.39-.19.59-.29.19-.1.39-.19.59-.29.39-.19.78-.39,1.17-.58.39-.19.78-.39,1.17-.58.79-.39,1.56-.77,2.34-1.17.39-.2.78-.39,1.17-.59.19-.1.39-.19.58-.29.2-.1.39-.19.59-.29l1.17-.59c.39-.2.78-.39,1.17-.59.4-.2.77-.39,1.17-.59.41-.2.76-.38,1.17-.59.37-.18.8-.4,1.17-.59.19-.1.39-.2.58-.29s.39-.2.58-.29c.39-.2.78-.4,1.17-.59.39-.2.78-.4,1.16-.6.78-.4,1.54-.81,2.31-1.22.38-.21.76-.42,1.15-.63.19-.11.38-.21.57-.32.19-.11.38-.22.57-.32.38-.22.75-.44,1.13-.66.38-.22.75-.45,1.12-.67.37-.23.74-.45,1.12-.68.37-.23.74-.46,1.11-.69l1.11-.69c.37-.23.74-.46,1.11-.69.19-.12.37-.23.56-.34.19-.11.37-.23.56-.34.37-.23.75-.45,1.12-.67.38-.22.75-.44,1.13-.66.38-.22.76-.43,1.14-.65.76-.43,1.52-.84,2.29-1.26.38-.2.77-.41,1.16-.61.39-.2.77-.4,1.16-.6.39-.2.78-.4,1.16-.6s.78-.4,1.16-.6c.38-.2.78-.4,1.17-.6.38-.19.78-.4,1.17-.59.19-.1.39-.2.58-.3.19-.1.39-.2.58-.3.39-.2.78-.4,1.17-.59.78-.4,1.56-.78,2.34-1.18.79-.39,1.55-.77,2.34-1.16.2-.1.39-.19.59-.29.19-.1.39-.19.59-.29.39-.19.78-.38,1.18-.57.39-.19.78-.38,1.18-.57s.79-.38,1.18-.57c.2-.09.39-.19.59-.28.2-.09.39-.19.59-.28.4-.19.78-.37,1.18-.57.4-.19.78-.37,1.18-.57.1-.05.2-.09.3-.14.1-.05.2-.1.29-.14.2-.09.39-.19.59-.28.39-.19.79-.38,1.18-.57.39-.19.79-.38,1.18-.57.8-.38,1.57-.74,2.37-1.12.4-.18.79-.37,1.19-.55.1-.05.2-.09.3-.14.1-.05.2-.09.3-.14.2-.09.4-.18.59-.27.4-.18.79-.36,1.19-.54.2-.09.4-.18.59-.27s.4-.18.59-.27c.4-.18.79-.36,1.19-.54s.79-.37,1.19-.55c.39-.19.79-.38,1.18-.57.2-.1.39-.19.59-.29.1-.05.2-.1.29-.15.1-.05.19-.1.29-.15.78-.4,1.54-.82,2.3-1.26.76-.44,1.5-.89,2.23-1.38.37-.24.73-.48,1.08-.74.18-.12.36-.25.53-.38.09-.06.18-.13.26-.19.04-.03.09-.06.13-.1.04-.03.09-.06.13-.1.35-.26.69-.52,1.03-.79.34-.27.68-.54,1.01-.82.34-.28.66-.56.99-.84s.65-.57.98-.86c.33-.29.65-.58.97-.87.16-.15.32-.29.48-.44l.49-.44c.08-.07.16-.15.24-.22.08-.07.16-.14.24-.22.16-.14.96-.65,1.12-.65.24,0,1.29.52,1.87.78.16.07.37.28.56.43.09.07.19.14.28.22.09.07.19.14.28.22.19.14.37.29.56.43.37.29.75.57,1.12.85.38.28.75.55,1.14.83.38.27.77.53,1.16.79.39.26.78.51,1.18.75s.8.48,1.21.71c.41.23.82.45,1.23.67.42.22.83.43,1.25.64s.85.41,1.27.61c.43.2.86.4,1.28.59.22.1.43.19.65.29l.32.14c.11.05.22.09.32.14.43.19.87.37,1.3.56.86.36,1.75.74,2.61,1.09.43.18.87.36,1.31.53.43.18.87.35,1.31.52.44.17.87.34,1.31.51.44.17.88.34,1.31.5.88.33,1.76.65,2.64.96.89.31,1.77.61,2.66.9.45.14.89.29,1.34.43.11.04.22.07.34.1.11.04.22.07.34.1.22.07.45.14.67.2.9.27,1.8.53,2.7.78.9.25,1.81.49,2.72.72s1.82.46,2.74.67c.91.22,1.83.43,2.75.63.92.2,1.84.41,2.76.6.46.1.92.19,1.38.29.23.05.46.09.69.14.23.05.46.09.69.14.92.18,1.85.36,2.77.53.92.17,1.85.33,2.78.48.93.15,1.86.3,2.79.43s1.86.25,2.79.36c.93.11,1.86.21,2.8.29.93.08,1.87.15,2.81.2.12,0,.23.01.35.02.12,0,.23.01.35.02.23.01.47.02.7.03.47.02.94.04,1.41.05,1.88.05,3.75.03,5.63-.04.94-.04,1.88-.08,2.82-.14.94-.06,1.88-.13,2.82-.21.94-.08,1.87-.17,2.81-.27.23-.02.47-.05.7-.08.23-.03.47-.05.7-.08.47-.05.94-.11,1.4-.17.93-.11,1.87-.23,2.8-.36.93-.12,1.87-.25,2.79-.38.93-.13,1.86-.27,2.79-.4s1.86-.27,2.79-.41,1.86-.28,2.78-.42c.46-.07.93-.14,1.39-.22.23-.04.46-.07.7-.11.23-.04.46-.07.7-.11.93-.15,1.85-.3,2.78-.45.93-.15,1.85-.31,2.78-.47.93-.16,1.85-.32,2.78-.48s1.85-.33,2.77-.51,1.84-.35,2.77-.53c.46-.09.92-.18,1.38-.27.23-.05.46-.09.69-.14.23-.05.46-.09.69-.14.92-.18,1.84-.37,2.76-.56.92-.19,1.84-.38,2.76-.57.92-.19,1.84-.38,2.76-.57.92-.19,1.84-.38,2.76-.56.92-.19,1.84-.37,2.76-.55.92-.18,1.84-.36,2.76-.53.23-.04.46-.09.69-.13.23-.04.46-.09.69-.13.46-.08.92-.17,1.38-.25.93-.17,1.85-.33,2.77-.49,1.86-.32,3.69-.63,5.56-.94.93-.15,1.86-.3,2.78-.45.46-.07.93-.15,1.39-.23.46-.08.93-.15,1.39-.23.46-.08.93-.15,1.39-.23.46-.08.93-.15,1.39-.23.93-.15,1.85-.3,2.78-.46.93-.16,1.85-.31,2.78-.47.93-.16,1.85-.32,2.78-.48.92-.16,1.85-.32,2.77-.48.92-.16,1.85-.33,2.77-.49.46-.08.92-.16,1.39-.25.46-.08.92-.17,1.39-.25.92-.17,1.85-.34,2.77-.51.92-.17,1.85-.34,2.77-.52.92-.17,1.85-.35,2.77-.53.92-.18,1.85-.37,2.77-.56.92-.19,1.84-.39,2.76-.59.46-.1.92-.2,1.38-.31.46-.11.92-.21,1.37-.32.92-.22,1.83-.45,2.74-.68s1.82-.49,2.72-.75,1.8-.53,2.7-.82c.9-.29,1.78-.58,2.67-.89.89-.31,1.77-.64,2.64-.98.88-.34,1.75-.69,2.61-1.06.22-.09.43-.18.65-.28.22-.09.43-.19.65-.28.43-.19.86-.38,1.29-.57.86-.39,1.71-.79,2.55-1.19.85-.41,1.69-.82,2.53-1.24.42-.21.84-.42,1.26-.63.42-.21.84-.43,1.26-.64.42-.21.84-.43,1.26-.64.42-.21.84-.43,1.26-.64.84-.43,1.68-.85,2.52-1.27.21-.1.42-.21.63-.31.11-.05.21-.1.32-.15l.32-.15c.42-.2.85-.41,1.27-.6.85-.4,1.7-.78,2.56-1.16s1.73-.73,2.6-1.06c.88-.34,1.76-.66,2.65-.96.89-.3,1.79-.58,2.69-.83.91-.26,1.82-.49,2.74-.71.46-.11.92-.21,1.38-.31.12-.02.23-.05.35-.07s.23-.05.35-.07c.23-.05.46-.09.7-.14.46-.09.93-.17,1.4-.25.47-.08.93-.15,1.4-.22.93-.14,1.87-.26,2.81-.37.94-.11,1.88-.2,2.82-.28.93-.08,1.87-.15,2.81-.2.93-.06,1.87-.1,2.8-.13.47-.02.93-.03,1.4-.04.23,0,.47,0,.7-.01.12,0,.23,0,.35,0,.06,0,.12,0,.17,0,.06,0,.12,0,.17,0,.93,0,1.86,0,2.79.02.93.02,1.86.06,2.79.12.93.06,1.86.14,2.79.25.93.11,1.86.24,2.79.41.93.17,1.86.36,2.77.6.92.23,1.83.5,2.73.81.23.08.45.16.67.24.22.08.45.17.67.25.44.17.88.36,1.31.55.86.39,1.71.82,2.53,1.29.81.47,1.6.98,2.36,1.54.75.55,1.46,1.15,2.14,1.78.33.32.66.64.97.98.31.33.62.68.91,1.03.29.35.57.71.84,1.08.27.37.53.74.77,1.13.12.19.24.39.36.58.12.2.23.39.35.59.23.4.44.8.65,1.21.41.82.78,1.66,1.12,2.52s.66,1.74.96,2.63c.15.45.29.89.44,1.34.14.45.28.9.42,1.35.07.23.14.45.21.68s.14.45.21.68c.14.46.28.91.42,1.36s.29.91.44,1.36c.15.45.3.9.46,1.36.16.45.32.9.49,1.34.04.11.09.22.13.33.02.06.04.11.07.17s.04.11.07.17c.09.22.18.44.27.66.18.44.38.87.58,1.31.2.43.41.86.62,1.28.43.84.89,1.67,1.39,2.47.5.8,1.02,1.58,1.59,2.33.56.75,1.15,1.47,1.77,2.17.62.7,1.26,1.37,1.92,2.02.33.32.67.64,1.01.95.17.16.34.31.52.46.09.08.17.15.26.23.04.04.09.08.13.11.04.04.09.08.13.11.7.6,1.41,1.19,2.14,1.76.73.57,1.47,1.13,2.21,1.68.37.28.75.55,1.12.83.38.28.75.55,1.13.83.38.28.76.55,1.13.83.38.28.76.56,1.14.84.38.29.76.57,1.13.86.38.29.75.59,1.13.88.37.3.75.6,1.11.91.37.31.73.62,1.1.94.09.08.18.16.27.24s.18.16.27.24c.18.16.36.33.53.49.35.33.7.66,1.04,1.01.34.34.67.69,1,1.04.32.35.64.71.95,1.07.31.36.6.73.89,1.11.29.37.56.75.83,1.13.26.38.51.77.75,1.17.24.39.46.79.67,1.19.21.4.4.8.58,1.22.18.41.34.82.48,1.23.14.41.27.83.37,1.25.11.42.2.84.27,1.27.04.21.07.42.09.64.01.11.02.21.04.32.01.11.02.21.03.32.03.43.05.86.05,1.29,0,.43-.02.87-.06,1.3-.04.44-.09.88-.17,1.31-.07.44-.16.88-.26,1.32-.1.45-.22.89-.35,1.33-.13.45-.28.9-.43,1.34-.16.45-.32.9-.49,1.35-.18.46-.36.91-.55,1.37-.1.23-.19.46-.29.69-.1.23-.2.46-.3.69l-.3.69-.31.7c-.1.23-.21.47-.31.7-.1.23-.21.47-.31.7-.2.47-.41.94-.61,1.41-.05.12-.1.24-.15.35-.02.06-.05.12-.07.18-.02.06-.05.12-.07.18-.1.24-.19.47-.29.71-.19.47-.37.95-.55,1.43-.17.47-.34.95-.5,1.43-.16.47-.3.95-.44,1.43-.13.47-.26.95-.37,1.43-.11.47-.21.95-.29,1.42-.08.47-.15.94-.21,1.42-.05.47-.09.93-.12,1.4-.02.46-.03.93-.03,1.39,0,.46.02.92.06,1.37.03.45.08.91.14,1.36.06.45.14.9.22,1.34.04.22.09.44.14.66.05.22.1.44.16.66.22.88.49,1.75.78,2.61.15.43.3.86.47,1.29.16.43.33.86.5,1.28.17.43.35.86.53,1.28.18.43.37.85.55,1.28.09.21.19.43.28.64s.19.43.28.64c.09.21.19.43.28.64.09.22.19.43.28.65.09.22.19.43.28.65.09.22.19.43.28.65.09.22.19.44.28.65.09.22.19.44.28.66.09.22.19.44.28.66.09.22.18.44.28.66.09.22.18.44.28.66.09.22.18.44.27.66.09.22.18.45.27.67.09.22.18.45.27.67s.18.45.27.67c.09.22.18.45.27.67.18.44.37.89.55,1.34.18.44.37.89.56,1.33.19.44.38.88.58,1.31.2.43.4.87.61,1.29.42.85.86,1.68,1.33,2.5.47.81.98,1.59,1.52,2.35.54.76,1.12,1.48,1.74,2.18.15.17.31.35.47.52.08.08.16.17.24.25.04.04.08.08.12.13.04.04.08.08.12.13.33.33.66.66,1,.98.34.32.69.64,1.04.94.35.31.71.61,1.07.92.36.3.73.6,1.1.89.37.29.74.59,1.11.88.37.29.74.58,1.11.87.37.29.74.58,1.1.88.72.59,1.43,1.19,2.12,1.82.34.31.67.63,1,.95s.64.65.94.99c.3.34.6.68.88,1.04.07.09.14.18.21.27.07.09.14.18.21.27.14.18.27.36.4.55.53.75,1.01,1.51,1.44,2.32.45.82.84,1.65,1.2,2.5.18.43.36.87.53,1.31.17.44.33.89.49,1.34.16.45.31.91.46,1.36.15.46.3.92.45,1.37l.22.69c.07.23.15.46.22.69.15.46.3.92.45,1.38.15.46.31.91.46,1.37.08.23.16.45.24.68.04.11.08.23.12.34.01.03.02.06.03.08l.03.08c.02.06.04.11.06.17.17.45.34.89.52,1.33.18.44.36.87.55,1.31.19.43.39.86.59,1.28.2.42.42.84.63,1.26.44.83.9,1.64,1.39,2.44.49.8,1,1.58,1.53,2.35.26.39.53.77.8,1.15.27.38.55.76.82,1.14.28.38.56.76.84,1.13.28.38.57.76.85,1.13.28.37.57.75.86,1.13.29.37.58.75.87,1.13.29.37.58.75.87,1.13.29.37.58.75.87,1.12.29.37.59.75.88,1.12s.59.75.88,1.12c.3.37.59.74.89,1.11.3.37.6.73.9,1.09s.61.72.92,1.08c.31.36.62.71.94,1.06.63.7,1.28,1.37,1.94,2.03.17.17.33.33.5.49.04.04.08.08.13.12.04.04.08.08.13.12.08.08.17.16.26.24.34.32.69.63,1.04.94.71.61,1.43,1.2,2.18,1.76.75.57,1.52,1.11,2.3,1.63.39.26.79.52,1.19.77.4.25.8.5,1.21.74s.81.48,1.23.72c.41.24.82.47,1.23.71.41.23.83.47,1.24.7.41.23.83.46,1.24.7.41.23.82.47,1.23.7l.15.09s.05.03.08.04c.03.01.05.03.08.04.1.06.2.12.3.18.2.12.41.24.61.36.4.24.8.48,1.2.73.4.25.79.5,1.18.75.78.51,1.54,1.04,2.29,1.59.75.55,1.46,1.13,2.17,1.73.71.6,1.39,1.22,2.06,1.87.34.32.67.65,1,.98.33.33.65.67.97,1.01.32.34.64.69.96,1.04.16.18.32.35.47.53.16.18.32.35.47.53.63.71,1.25,1.43,1.88,2.14.31.36.63.71.94,1.07.31.36.63.71.95,1.06.32.35.64.7.96,1.05s.65.69.98,1.03c.66.68,1.33,1.33,2.02,1.97.69.64,1.39,1.24,2.12,1.83.73.59,1.46,1.15,2.23,1.69.1.07.19.13.29.2.1.07.19.13.29.2.19.13.39.26.58.39.39.26.78.51,1.18.76.4.25.8.49,1.2.73.4.24.81.47,1.22.7.41.23.82.46,1.24.68.41.22.83.44,1.25.66.42.22.84.43,1.26.65.42.21.85.43,1.27.64.42.21.85.42,1.28.63.43.21.86.42,1.29.62.43.2.86.41,1.29.61.43.2.86.41,1.29.61.43.2.86.4,1.3.6s.87.39,1.3.58c.43.19.87.38,1.31.56s.88.36,1.32.54c.44.17.88.34,1.33.51.44.16.89.32,1.34.47.9.3,1.8.57,2.71.82.92.24,1.84.45,2.78.63.47.09.94.17,1.41.24.47.07.95.14,1.43.19.24.03.48.06.72.08.12.01.24.02.36.04.06,0,.12.01.18.02s.12.01.18.02c.48.04.96.08,1.45.12.49.03.97.06,1.46.09s.97.05,1.46.07c.24.01.49.02.73.03l.73.03c.48.02.97.05,1.45.07.48.03.96.06,1.44.09.47.03.95.07,1.42.12.47.05.93.1,1.4.16.46.06.92.13,1.37.21.45.08.9.17,1.35.27.44.1.88.21,1.32.34.43.12.86.26,1.29.4.11.04.21.07.32.11.05.02.11.04.16.06.05.02.11.04.16.06.21.08.42.16.63.24.42.17.83.34,1.24.53.41.19.81.38,1.22.58.81.41,1.6.84,2.38,1.3.4.23.79.46,1.18.69.39.24.78.47,1.18.71.2.12.39.24.59.36.2.12.39.24.59.36.4.24.79.47,1.19.7s.8.46,1.21.68c.41.22.81.44,1.22.66.41.21.83.42,1.24.62.21.1.42.2.63.3.11.05.21.1.32.15.05.02.11.05.16.07l.16.07c.43.19.86.37,1.29.55.44.18.87.35,1.31.52.44.17.88.33,1.33.49.45.16.89.31,1.34.47.45.15.9.3,1.35.45.45.15.9.3,1.35.45.45.15.9.31,1.35.46.45.16.89.32,1.33.49.44.17.88.34,1.31.52.43.18.86.37,1.29.57.42.2.84.4,1.26.62.41.22.82.44,1.22.68.4.24.79.48,1.18.74.39.26.76.53,1.14.8.75.56,1.46,1.16,2.14,1.79.69.64,1.35,1.31,1.98,2,.64.7,1.25,1.42,1.86,2.15.3.36.6.73.9,1.1.3.37.59.74.88,1.11.15.18.29.37.44.55.15.18.29.37.44.55.29.37.59.73.88,1.1.15.18.29.36.44.54.04.04.07.09.11.13.04.04.07.09.11.13l.22.27c.3.36.6.71.91,1.06.31.35.61.69.93,1.03.31.34.63.67.95,1s.65.65.99.97c.34.32.67.63,1.02.94.35.31.7.61,1.05.91.36.3.72.59,1.09.88.37.29.74.58,1.12.85.38.28.76.55,1.15.82.78.54,1.58,1.05,2.39,1.54.41.24.82.48,1.23.71.21.12.42.23.63.34.21.11.42.22.63.33.42.21.85.42,1.28.62s.86.39,1.3.57c.43.18.87.35,1.31.52.44.16.88.32,1.33.46.45.14.89.28,1.35.41.45.13.91.25,1.36.36.46.11.92.21,1.38.3.46.09.93.18,1.4.26.47.08.94.15,1.41.21s.95.12,1.42.16c.47.05.95.08,1.43.11.24.01.48.02.71.03.12,0,.24,0,.36.01s.24,0,.36,0c.47,0,.94,0,1.41-.03.47-.03.93-.07,1.39-.13.46-.06.91-.14,1.36-.25.45-.11.88-.23,1.31-.39.22-.08.43-.16.64-.25.21-.09.42-.19.62-.29.21-.1.41-.21.61-.33.2-.12.4-.24.6-.36.2-.13.39-.26.59-.4.19-.14.39-.28.58-.42.19-.14.38-.29.57-.44.19-.15.38-.3.57-.45.19-.15.38-.3.57-.45.19-.15.38-.29.57-.43.19-.14.38-.28.58-.42.1-.07.19-.13.29-.2s.19-.13.29-.19c.1-.06.2-.13.29-.19.1-.06.2-.12.3-.18.1-.06.2-.12.3-.18.1-.06.2-.12.3-.18.1-.06.2-.12.3-.19s.2-.13.29-.2c.1-.07.19-.14.29-.21.1-.07.19-.15.28-.23.06-.05.12-.1.18-.15.03-.03.06-.05.09-.08s.06-.06.09-.09c.03-.03.06-.06.09-.09s.06-.06.08-.09l.08-.1s.06-.06.08-.1c.03-.03.06-.07.08-.1.03-.03.06-.07.08-.1l.08-.1s.06-.07.09-.1c.06-.07.12-.13.17-.2.06-.07.12-.13.18-.2.12-.13.24-.26.36-.4.06-.07.12-.13.18-.2.06-.07.12-.13.18-.2.12-.13.24-.26.36-.4.12-.13.24-.27.35-.4s.23-.27.34-.41c.11-.14.22-.28.33-.42s.21-.28.31-.43c.1-.15.19-.29.29-.45.18-.3.35-.61.51-.93.16-.32.3-.64.44-.97s.26-.66.38-1c.06-.17.12-.34.18-.5s.12-.34.17-.5c.03-.08.06-.17.09-.25.03-.08.06-.17.09-.25.06-.17.11-.33.17-.5.06-.17.12-.33.17-.5.06-.16.12-.33.18-.49.06-.16.12-.33.18-.49.03-.08.06-.16.1-.24.02-.04.03-.08.05-.12.02-.04.03-.08.05-.12.13-.32.26-.64.4-.96.14-.32.28-.63.43-.95.15-.32.3-.63.46-.94.16-.31.32-.63.49-.94.17-.31.34-.62.52-.93.18-.31.36-.62.55-.93.19-.31.38-.61.58-.91.2-.3.4-.6.61-.89.21-.29.42-.58.64-.86.22-.28.44-.55.68-.82.23-.26.47-.52.72-.76.24-.24.5-.48.76-.7.13-.11.26-.22.39-.33.07-.05.13-.11.2-.16l.1-.08s.07-.05.1-.08c.27-.2.55-.4.84-.58.29-.18.58-.35.88-.52.3-.16.61-.32.92-.46.31-.15.63-.28.95-.41.33-.13.65-.26.98-.38.33-.12.67-.24,1-.35.17-.06.34-.11.51-.17l.51-.17c.17-.06.34-.11.51-.17.17-.06.34-.11.51-.17.34-.11.68-.23,1.02-.35.34-.12.68-.24,1.02-.36.34-.12.68-.25,1.01-.38.34-.13.67-.27,1-.4.17-.07.33-.14.5-.21l.25-.11s.08-.04.12-.05c.04-.02.08-.04.12-.05.33-.14.65-.29.98-.44.16-.07.33-.15.49-.22.16-.07.32-.15.48-.22.16-.07.32-.15.48-.22s.32-.15.48-.22c.32-.15.64-.29.96-.43.32-.14.64-.28.96-.41.32-.13.64-.25.96-.37.32-.12.64-.22.97-.32.32-.1.65-.19.98-.27.33-.08.66-.14.99-.2.33-.06.67-.1,1-.13.34-.03.68-.05,1.02-.05.34,0,.69,0,1.03.02.17.01.35.02.52.04l.26.03s.04,0,.06,0,.04,0,.07,0c.04,0,.09.01.13.02.35.05.7.1,1.05.17.36.07.71.15,1.06.24.36.09.71.19,1.06.3.36.11.71.22,1.06.35.36.12.71.25,1.06.39.35.13.7.27,1.05.42.35.14.7.29,1.05.44.35.15.69.3,1.04.45.17.07.34.15.51.22l.51.22c.34.15.67.3,1.01.44.33.14.66.29.99.43.33.14.65.28.98.41.17.07.33.14.5.2.04.02.08.03.12.05.04.02.08.03.12.05.08.03.17.07.25.1.33.13.66.25.99.38.33.12.65.24.98.35.33.11.65.22.98.32.65.2,1.3.39,1.97.55.66.17,1.33.31,1.99.44.68.13,1.36.24,2.05.33.7.09,1.41.17,2.11.22.36.03.72.05,1.08.07.09,0,.18,0,.27.01.05,0,.09,0,.14,0,.05,0,.09,0,.14,0,.18,0,.37.01.55.02.37,0,.74.01,1.11.01s.75,0,1.12-.01c.38,0,.76-.02,1.13-.04.38-.02.76-.04,1.14-.06.38-.02.76-.05,1.15-.08.38-.03.76-.07,1.15-.1.38-.04.76-.08,1.15-.12l.57-.06c.19-.02.38-.04.57-.06.19-.02.38-.04.57-.06.19-.02.38-.04.57-.06s.38-.04.56-.06l.56-.06c.37-.04.74-.07,1.11-.1.18-.01.37-.03.55-.04.09,0,.18-.01.28-.02.05,0,.09,0,.14,0,.05,0,.09,0,.14,0,.36-.02.72-.04,1.09-.05.36-.01.71-.02,1.07-.01.7,0,1.39.04,2.09.12.68.07,1.35.19,2.01.34.66.16,1.3.35,1.94.59.64.24,1.25.52,1.86.84.61.32,1.2.68,1.77,1.06.07.05.14.1.22.15.04.02.07.05.11.07.04.02.07.05.11.07.14.1.28.2.42.31.28.21.56.42.83.64.55.44,1.08.91,1.6,1.38.52.48,1.02.97,1.52,1.47.49.5.97,1,1.45,1.52.23.25.47.51.7.77.23.25.46.51.69.77.23.26.45.51.68.77.22.26.45.51.67.77.11.13.22.26.33.39.06.06.11.13.17.19.06.06.11.13.17.19.22.26.44.51.67.77.22.26.45.51.67.77.22.26.45.52.68.77.23.26.46.52.68.77.23.26.46.52.7.77.24.26.47.51.71.77.24.26.48.51.73.76.49.51,1,1.01,1.51,1.5.52.49,1.05.98,1.6,1.44.28.23.55.46.84.68.14.11.28.22.43.33.04.03.07.05.11.08.04.03.07.05.11.08.07.05.14.11.22.16.57.41,1.16.8,1.76,1.16.6.36,1.22.68,1.85.98.63.29,1.27.55,1.93.77.66.22,1.33.41,2.01.57.69.16,1.37.28,2.07.38.71.1,1.41.17,2.12.23.09,0,.18.01.27.02.02,0,.05,0,.07,0,.02,0,.05,0,.07,0,.04,0,.09,0,.13.01.18.01.36.02.54.04.36.02.72.05,1.08.07.36.02.72.04,1.09.06.36.02.73.04,1.09.07.36.02.73.05,1.09.08s.73.06,1.09.1.72.08,1.08.13.72.11,1.08.17c.36.06.71.14,1.06.22s.7.17,1.05.27c.35.1.69.2,1.03.32.34.12.68.24,1.01.37s.66.28.99.43c.16.08.33.16.48.24.16.08.32.16.48.25.63.34,1.24.72,1.83,1.13.59.41,1.15.86,1.7,1.33.54.47,1.05.97,1.54,1.5.49.52.95,1.07,1.39,1.63.44.56.85,1.14,1.24,1.74.19.3.39.6.57.9.09.15.18.3.27.46.05.08.09.15.13.23.04.08.09.15.13.23.35.61.68,1.23,1,1.86.32.63.62,1.26.91,1.89.29.64.58,1.27.86,1.92.14.32.28.64.42.96.14.32.28.64.42.96.28.64.57,1.29.86,1.92.29.64.59,1.28.91,1.91.16.32.32.63.48.94s.33.62.5.93c.34.61.7,1.22,1.09,1.81.38.59.78,1.16,1.21,1.72.42.55.87,1.09,1.34,1.6.47.51.96.99,1.48,1.45.52.46,1.06.88,1.62,1.28.28.2.57.39.86.57.15.09.29.18.44.27l.11.06s.07.04.11.07c.07.04.15.08.23.13.6.34,1.22.64,1.85.92.64.28,1.29.54,1.94.77.66.24,1.33.46,2.01.67.34.1.68.21,1.02.31.34.1.68.2,1.02.3.34.1.68.2,1.03.3.34.1.68.2,1.02.3.34.1.68.21,1.02.31.34.11.67.22,1.01.33.08.03.17.06.25.09.04.01.08.03.13.04.04.01.08.03.12.04.17.06.33.12.5.18.33.12.66.24.99.37.66.26,1.3.53,1.94.83.32.15.64.3.96.45.32.16.63.31.95.47.31.16.63.32.94.49.31.17.62.33.93.5.16.08.31.17.47.25.16.08.31.17.47.25.31.17.62.34.93.5.63.33,1.25.66,1.89.97.32.15.64.3.96.45.08.04.16.07.24.11.08.04.16.07.24.1.16.07.33.14.49.2.66.27,1.32.5,2,.71.69.21,1.37.38,2.07.53.35.07.71.14,1.06.19.36.06.72.11,1.08.15.36.04.72.08,1.09.12.37.03.73.06,1.1.09s.73.05,1.1.07c.18.01.37.02.55.03s.37.02.55.03c.36.02.73.04,1.09.06.36.02.72.05,1.08.08.09,0,.18.01.27.02.02,0,.04,0,.07,0,.02,0,.04,0,.07,0,.04,0,.09,0,.13.01.18.02.35.03.53.05.35.04.7.08,1.04.14.34.05.68.11,1.02.18.33.07.66.14,1,.23.33.08.65.18.97.29.32.1.63.22.94.34s.61.26.92.4c.3.14.6.3.89.46.3.16.59.33.88.51.29.18.58.36.86.55.29.19.57.39.85.59.28.2.57.41.85.61.14.1.28.21.43.31s.28.21.43.31c.29.21.57.42.86.62.29.21.58.41.88.61.3.2.59.4.89.59s.61.38.92.56c.31.18.63.35.94.52.64.34,1.29.63,1.97.9.34.14.68.26,1.02.38.35.12.69.23,1.04.34.35.11.7.2,1.06.3.35.09.71.18,1.07.27.36.08.71.17,1.07.24.18.04.35.08.53.12.18.04.35.08.53.12.05.01.09.02.13.03.02,0,.04.01.07.01s.04.01.07.01c.09.02.18.04.27.06.18.04.35.08.53.12.17.04.35.08.52.12.17.04.34.09.51.13.17.05.34.09.5.14.17.05.33.1.49.15.32.1.64.21.95.33.31.12.61.25.9.39.29.14.57.29.84.45.27.16.53.34.78.53.25.19.49.39.71.61.23.22.44.45.65.69.21.25.4.51.58.78.18.28.35.56.51.86.08.15.16.3.23.46.07.16.15.32.21.48.07.16.14.33.2.49.03.08.06.17.1.25.01.04.03.08.05.13,0,.01,0,.02.01.03,0,.01,0,.02.01.03,0,.02.01.04.02.06.06.17.12.35.17.52.06.18.11.36.16.54.05.18.1.37.14.55.05.19.09.37.13.56.04.19.08.38.12.57.04.19.08.39.11.58.07.39.14.79.2,1.18.06.4.11.8.16,1.2.05.4.1.8.14,1.2.04.4.08.8.12,1.2.02.2.03.4.05.59.02.2.03.39.05.59.01.19.03.39.04.59.01.19.03.39.04.58.01.19.02.38.03.58.01.19.02.38.03.57.01.19.02.37.03.56,0,.19.02.37.02.56,0,.18.01.36.02.55,0,.18,0,.36.01.54,0,.18,0,.36,0,.53,0,.04,0,.09,0,.13v.07s0,.04,0,.07v.26c0,.17,0,.35,0,.52,0,.17,0,.34,0,.52,0,.34-.02.68-.04,1.01-.02.33-.04.66-.07.99-.03.33-.06.65-.1.98-.08.65-.19,1.28-.33,1.92-.07.32-.14.64-.23.95-.08.32-.18.63-.28.95-.1.32-.21.63-.33.95-.12.32-.25.64-.38.95-.14.32-.28.64-.43.95-.16.32-.32.64-.48.95-.04.08-.09.16-.13.24-.02.04-.04.08-.07.12-.01.02-.02.04-.03.06-.01.02-.02.04-.03.06-.09.16-.18.32-.27.47-.19.32-.38.63-.58.95-.2.32-.41.63-.62.94-.21.31-.43.63-.65.93-.45.62-.92,1.23-1.39,1.84-.24.3-.48.6-.73.9-.24.3-.49.59-.74.88-.25.29-.5.58-.75.87-.25.29-.5.57-.75.85-.12.14-.25.28-.37.42-.12.14-.25.28-.37.42l-.37.41-.36.41c-.12.14-.24.27-.36.41-.12.13-.24.27-.35.41-.03.03-.06.07-.09.1,0,0-.01.02-.02.02,0,0-.01.02-.02.03-.01.02-.03.03-.04.05-.06.07-.12.13-.17.2-.11.13-.23.27-.34.4-.23.27-.45.53-.67.8-.22.27-.43.53-.64.81-.21.27-.41.54-.61.81-.2.27-.39.54-.58.82-.38.54-.73,1.1-1.07,1.67-.34.57-.65,1.15-.94,1.74-.29.6-.56,1.2-.81,1.82-.13.31-.25.63-.36.94-.06.16-.12.32-.17.48-.03.08-.06.16-.08.24-.01.04-.03.08-.04.12l-.04.12c-.22.66-.42,1.32-.6,1.98-.09.34-.18.68-.27,1.02-.09.34-.17.68-.25,1.03-.08.35-.16.69-.24,1.04-.08.35-.16.7-.23,1.04-.08.35-.15.7-.22,1.05-.07.35-.15.7-.22,1.05-.07.35-.14.7-.22,1.05-.07.35-.14.7-.22,1.05-.07.35-.14.7-.22,1.05-.07.35-.15.7-.22,1.04-.04.17-.08.35-.11.52,0,.04-.02.09-.03.13,0,.04-.02.09-.03.13-.02.09-.04.17-.06.26-.08.35-.16.69-.24,1.04-.16.69-.32,1.37-.5,2.06-.17.69-.35,1.36-.53,2.05-.18.68-.37,1.36-.56,2.04-.1.34-.19.68-.29,1.02-.1.34-.19.68-.29,1.02-.1.34-.2.68-.3,1.02-.1.34-.2.69-.3,1.02-.05.17-.1.34-.15.51-.05.17-.1.34-.15.51-.02.09-.05.17-.08.26l-.04.13s-.02.09-.04.13c-.05.17-.1.34-.15.52-.1.34-.2.69-.3,1.03-.1.34-.2.69-.31,1.03-.1.34-.21.69-.31,1.03-.1.34-.21.69-.32,1.03-.11.34-.21.69-.32,1.03-.11.34-.22.68-.33,1.02s-.23.68-.35,1.02c-.12.34-.24.68-.36,1.01-.25.67-.51,1.33-.79,1.99-.28.66-.58,1.3-.9,1.94-.16.32-.33.64-.5.95-.17.31-.35.63-.53.93-.37.62-.76,1.22-1.18,1.81-.42.59-.87,1.17-1.33,1.72-.47.56-.96,1.1-1.48,1.62-.51.52-1.05,1.02-1.6,1.51-.55.48-1.11.94-1.69,1.38-.29.22-.58.43-.87.64-.02.01-.04.03-.05.04-.02.01-.04.03-.06.04-.04.03-.07.05-.11.08-.07.05-.15.1-.22.15-.15.1-.29.2-.44.3-.29.19-.59.38-.89.56-.3.18-.6.36-.9.53-.3.17-.6.33-.91.48-.3.15-.61.3-.91.44-.3.14-.61.27-.92.4-.31.13-.62.25-.93.36-.31.11-.62.22-.94.32-.32.1-.63.19-.95.28-.32.09-.65.17-.97.24-.33.08-.66.14-.99.21-.34.06-.68.12-1.02.18-.17.03-.35.05-.52.08-.09.01-.17.02-.26.04-.02,0-.04,0-.07,0s-.04,0-.07,0l-.13.02c-.35.05-.71.09-1.07.13-.36.04-.73.08-1.1.11-.19.02-.37.04-.56.05-.19.02-.38.03-.57.05-.19.02-.38.03-.57.05-.19.02-.39.03-.58.05-.39.03-.78.07-1.17.1-.4.04-.79.07-1.19.11-.8.08-1.6.18-2.39.3-.4.06-.79.12-1.19.2-.39.07-.78.15-1.17.24-.38.09-.76.18-1.13.29-.37.1-.73.22-1.09.34-.18.06-.35.13-.53.19-.02,0-.04.02-.07.02-.02,0-.04.02-.06.03-.04.02-.08.03-.13.05-.08.04-.17.07-.25.11-.33.14-.66.3-.98.47-.31.16-.61.34-.9.53-.29.19-.56.38-.83.6-.26.21-.51.43-.75.66-.23.23-.45.47-.66.72-.21.25-.4.51-.58.78s-.35.55-.5.84c-.16.29-.3.58-.43.88-.13.3-.25.61-.36.92-.11.32-.21.64-.3.96-.09.33-.18.65-.26.98-.08.33-.15.67-.22,1-.03.17-.07.34-.1.5-.03.17-.07.34-.1.51-.03.17-.06.34-.1.51-.03.17-.06.34-.1.51-.07.34-.13.67-.2,1.01-.07.33-.14.66-.22,1-.07.33-.15.66-.24.98-.08.32-.18.65-.27.96-.1.32-.2.63-.31.95-.22.63-.47,1.23-.76,1.84-.28.61-.59,1.19-.92,1.77-.17.29-.34.58-.52.87-.18.29-.36.58-.55.86-.02.04-.05.07-.07.11-.01.02-.02.04-.04.05-.01.02-.02.04-.04.05-.05.07-.1.14-.14.22-.1.14-.19.29-.29.43s-.19.29-.29.43c-.1.14-.2.29-.29.43l-.3.43c-.1.15-.2.29-.3.44-.1.15-.2.29-.3.44-.1.15-.2.29-.3.44-.2.3-.4.59-.59.89-.2.3-.39.6-.59.9-.19.3-.39.61-.58.91-.19.31-.38.61-.57.92-.19.31-.37.62-.56.93-.18.31-.37.62-.55.93-.09.16-.18.31-.27.47l-.27.47c-.18.31-.36.62-.54.93-.09.15-.18.31-.28.46-.05.08-.09.15-.14.23-.02.04-.05.08-.07.11-.02.04-.05.08-.07.11-.18.3-.37.6-.56.9-.38.6-.77,1.18-1.17,1.75-.41.57-.83,1.12-1.27,1.67-.22.27-.44.54-.67.8-.23.27-.46.53-.7.78-.24.26-.48.51-.72.77-.24.25-.49.51-.74.76-.25.25-.5.5-.75.75-.25.25-.51.5-.76.75-.26.25-.51.5-.76.75-.13.13-.25.25-.38.38-.06.06-.13.13-.19.19l-.1.1-.1.1c-.25.25-.5.51-.75.76s-.49.52-.74.78c-.24.26-.48.53-.72.79-.24.27-.47.53-.71.81-.23.27-.46.54-.69.82-.23.28-.45.55-.68.83-.11.14-.22.28-.34.41s-.22.28-.34.41c-.11.14-.22.28-.34.41-.11.14-.22.28-.34.41-.22.27-.45.54-.68.81s-.46.53-.69.79c-.47.52-.95,1.02-1.46,1.5-.13.12-.26.24-.39.35-.07.06-.13.12-.2.17s-.13.11-.2.17c-.27.22-.54.44-.82.65-.28.21-.57.41-.87.6-.3.19-.6.38-.91.56-.31.18-.63.35-.95.51-.33.17-.65.32-.98.48-.33.15-.67.3-1.01.45-.34.15-.68.29-1.02.43-.17.07-.34.14-.51.21-.17.07-.34.14-.51.21-.17.07-.34.14-.5.21-.17.07-.33.14-.5.22-.16.07-.33.15-.49.22-.16.07-.32.15-.48.23-.31.15-.62.32-.92.49-.29.17-.58.35-.86.54-.07.05-.14.1-.2.14-.03.02-.07.05-.1.07-.02.01-.03.02-.05.04,0,0-.02.01-.02.02,0,0-.02.01-.02.02-.13.1-.26.2-.39.31-.25.21-.49.43-.71.66-.23.23-.44.48-.64.73-.2.26-.39.53-.56.8-.18.28-.34.57-.49.87-.15.3-.3.62-.43.93-.14.32-.26.65-.38.98-.06.17-.12.34-.18.51-.06.17-.12.34-.17.51-.06.17-.12.34-.17.52-.06.17-.11.35-.17.52-.12.35-.23.7-.35,1.04-.12.35-.25.69-.38,1.03-.13.34-.28.67-.43,1-.15.33-.31.65-.49.96-.04.08-.09.16-.13.23l-.03.06-.03.06s-.05.08-.07.11c-.09.15-.19.3-.29.45-.2.29-.41.58-.64.85-.22.27-.46.53-.71.79-.25.25-.51.49-.78.72-.27.23-.55.45-.84.66-.29.21-.59.42-.89.61-.3.19-.61.38-.93.56-.31.18-.63.35-.95.52-.32.17-.64.33-.96.49-.32.16-.65.31-.97.46-.32.15-.65.29-.97.43-.32.14-.65.27-.98.39-.33.13-.65.25-.98.36-.08.03-.17.06-.25.08l-.25.08c-.17.05-.33.11-.5.16-.34.1-.68.19-1.02.28-.35.09-.69.16-1.04.23-.35.07-.71.13-1.06.19-.36.06-.72.1-1.08.15s-.72.08-1.08.12c-.18.02-.36.04-.54.05-.18.02-.36.03-.53.05-.09,0-.18.02-.27.02l-.27.02c-.09,0-.18.02-.26.02l-.26.02-.26.02c-.09,0-.17.02-.26.02-.09,0-.17.02-.26.02-.09,0-.17.02-.26.02-.17.01-.35.03-.52.05-.17.01-.35.03-.52.04-.09,0-.18.01-.26.02-.09,0-.18.01-.27.02-.09,0-.18.01-.27.02-.09,0-.18.01-.27.01h-.27c-.09.02-.18.02-.27.03-.09,0-.18,0-.27.01-.09,0-.18,0-.28.01-.09,0-.18,0-.27.01-.05,0-.09,0-.14,0-.04,0-.09,0-.13,0-.04,0-.09,0-.13.01-.04,0-.09,0-.13.01-.04,0-.08,0-.13.01-.04,0-.08.01-.12.02"/>
  <path class="uuid-17a2af76-e722-43ed-9277-5f37cd735ff1" d="M203.6,246.9c.1-.04.2-.09.3-.13.1-.04.2-.08.3-.13.1-.04.21-.09.3-.13.1-.04.2-.08.3-.13.2-.09.4-.17.6-.25.2-.09.4-.17.6-.26.1-.04.2-.09.3-.13.1-.04.2-.08.3-.13.2-.09.4-.17.6-.26.2-.09.4-.17.6-.25.2-.08.4-.17.6-.25.2-.08.4-.17.6-.25.2-.08.4-.17.6-.25.41-.17.8-.34,1.21-.51.4-.17.8-.35,1.2-.52.4-.18.79-.35,1.19-.53.4-.18.79-.36,1.19-.54.2-.09.4-.18.59-.27l.59-.27c.4-.18.79-.36,1.19-.54.4-.18.79-.36,1.19-.53.2-.09.4-.18.6-.26.2-.09.4-.17.6-.26.4-.17.8-.34,1.21-.51.81-.34,1.61-.67,2.42-1,.4-.17.81-.33,1.21-.49s.81-.33,1.21-.49c.4-.16.81-.33,1.21-.49s.81-.33,1.21-.5c.81-.33,1.61-.67,2.41-1.01.81-.34,1.6-.69,2.4-1.04.2-.09.4-.18.6-.27.2-.09.4-.18.6-.27.4-.18.79-.36,1.19-.55.79-.37,1.58-.74,2.36-1.12.39-.19.79-.38,1.18-.57.39-.19.78-.38,1.17-.58.39-.19.78-.39,1.17-.58.19-.1.39-.19.59-.29.19-.1.39-.19.59-.29.39-.19.78-.39,1.17-.58.39-.19.78-.39,1.17-.58.79-.39,1.56-.77,2.34-1.17.39-.2.78-.39,1.17-.59.19-.1.39-.19.58-.29.2-.1.39-.19.59-.29l1.17-.59c.39-.2.78-.39,1.17-.59.4-.2.77-.39,1.17-.59.41-.2.76-.38,1.17-.59.37-.18.8-.4,1.17-.59.19-.1.39-.2.58-.29s.39-.2.58-.29c.39-.2.78-.4,1.17-.59.39-.2.78-.4,1.16-.6.78-.4,1.54-.81,2.31-1.22.38-.21.76-.42,1.15-.63.19-.11.38-.21.57-.32.19-.11.38-.22.57-.32.38-.22.75-.44,1.13-.66.38-.22.75-.45,1.12-.67.37-.23.74-.45,1.12-.68.37-.23.74-.46,1.11-.69l1.11-.69c.37-.23.74-.46,1.11-.69.19-.12.37-.23.56-.34.19-.11.37-.23.56-.34.37-.23.75-.45,1.12-.67.38-.22.75-.44,1.13-.66.38-.22.76-.43,1.14-.65.76-.43,1.52-.84,2.29-1.26.38-.2.77-.41,1.16-.61.39-.2.77-.4,1.16-.6.39-.2.78-.4,1.16-.6s.78-.4,1.16-.6c.38-.2.78-.4,1.17-.6.38-.19.78-.4,1.17-.59.19-.1.39-.2.58-.3.19-.1.39-.2.58-.3.39-.2.78-.4,1.17-.59.78-.4,1.56-.78,2.34-1.18.79-.39,1.55-.77,2.34-1.16.2-.1.39-.19.59-.29.19-.1.39-.19.59-.29.39-.19.78-.38,1.18-.57.39-.19.78-.38,1.18-.57s.79-.38,1.18-.57c.2-.09.39-.19.59-.28.2-.09.39-.19.59-.28.4-.19.78-.37,1.18-.57.4-.19.78-.37,1.18-.57.1-.05.2-.09.3-.14.1-.05.2-.1.29-.14.2-.09.39-.19.59-.28.39-.19.79-.38,1.18-.57.39-.19.79-.38,1.18-.57.8-.38,1.57-.74,2.37-1.12.4-.18.79-.37,1.19-.55.1-.05.2-.09.3-.14.1-.05.2-.09.3-.14.2-.09.4-.18.59-.27.4-.18.79-.36,1.19-.54.2-.09.4-.18.59-.27s.4-.18.59-.27c.4-.18.79-.36,1.19-.54s.79-.37,1.19-.55c.39-.19.79-.38,1.18-.57.2-.1.39-.19.59-.29.1-.05.2-.1.29-.15.1-.05.19-.1.29-.15.78-.4,1.54-.82,2.3-1.26.76-.44,1.5-.89,2.23-1.38.37-.24.73-.48,1.08-.74.18-.12.36-.25.53-.38.09-.06.18-.13.26-.19.04-.03.09-.06.13-.1.04-.03.09-.06.13-.1.35-.26.69-.52,1.03-.79.34-.27.68-.54,1.01-.82.34-.28.66-.56.99-.84s.65-.57.98-.86c.33-.29.65-.58.97-.87.16-.15.32-.29.48-.44l.49-.44c.08-.07.16-.15.24-.22.08-.07.16-.14.24-.22.16-.14.96-.65,1.12-.65.24,0,1.29.52,1.87.78.16.07.37.28.56.43.09.07.19.14.28.22.09.07.19.14.28.22.19.14.37.29.56.43.37.29.75.57,1.12.85.38.28.75.55,1.14.83.38.27.77.53,1.16.79.39.26.78.51,1.18.75s.8.48,1.21.71c.41.23.82.45,1.23.67.42.22.83.43,1.25.64s.85.41,1.27.61c.43.2.86.4,1.28.59.22.1.43.19.65.29l.32.14c.11.05.22.09.32.14.43.19.87.37,1.3.56.86.36,1.75.74,2.61,1.09.43.18.87.36,1.31.53.43.18.87.35,1.31.52.44.17.87.34,1.31.51.44.17.88.34,1.31.5.88.33,1.76.65,2.64.96.89.31,1.77.61,2.66.9.45.14.89.29,1.34.43.11.04.22.07.34.1.11.04.22.07.34.1.22.07.45.14.67.2.9.27,1.8.53,2.7.78.9.25,1.81.49,2.72.72s1.82.46,2.74.67c.91.22,1.83.43,2.75.63.92.2,1.84.41,2.76.6.46.1.92.19,1.38.29.23.05.46.09.69.14.23.05.46.09.69.14.92.18,1.85.36,2.77.53.92.17,1.85.33,2.78.48.93.15,1.86.3,2.79.43s1.86.25,2.79.36c.93.11,1.86.21,2.8.29.93.08,1.87.15,2.81.2.12,0,.23.01.35.02.12,0,.23.01.35.02.23.01.47.02.7.03.47.02.94.04,1.41.05,1.88.05,3.75.03,5.63-.04.94-.04,1.88-.08,2.82-.14.94-.06,1.88-.13,2.82-.21.94-.08,1.87-.17,2.81-.27.23-.02.47-.05.7-.08.23-.03.47-.05.7-.08.47-.05.94-.11,1.4-.17.93-.11,1.87-.23,2.8-.36.93-.12,1.87-.25,2.79-.38.93-.13,1.86-.27,2.79-.4s1.86-.27,2.79-.41,1.86-.28,2.78-.42c.46-.07.93-.14,1.39-.22.23-.04.46-.07.7-.11.23-.04.46-.07.7-.11.93-.15,1.85-.3,2.78-.45.93-.15,1.85-.31,2.78-.47.93-.16,1.85-.32,2.78-.48s1.85-.33,2.77-.51,1.84-.35,2.77-.53c.46-.09.92-.18,1.38-.27.23-.05.46-.09.69-.14.23-.05.46-.09.69-.14.92-.18,1.84-.37,2.76-.56.92-.19,1.84-.38,2.76-.57.92-.19,1.84-.38,2.76-.57.92-.19,1.84-.38,2.76-.56.92-.19,1.84-.37,2.76-.55.92-.18,1.84-.36,2.76-.53.23-.04.46-.09.69-.13.23-.04.46-.09.69-.13.46-.08.92-.17,1.38-.25.93-.17,1.85-.33,2.77-.49,1.86-.32,3.69-.63,5.56-.94.93-.15,1.86-.3,2.78-.45.46-.07.93-.15,1.39-.23.46-.08.93-.15,1.39-.23.46-.08.93-.15,1.39-.23.46-.08.93-.15,1.39-.23.93-.15,1.85-.3,2.78-.46.93-.16,1.85-.31,2.78-.47.93-.16,1.85-.32,2.78-.48.92-.16,1.85-.32,2.77-.48.92-.16,1.85-.33,2.77-.49.46-.08.92-.16,1.39-.25.46-.08.92-.17,1.39-.25.92-.17,1.85-.34,2.77-.51.92-.17,1.85-.34,2.77-.52.92-.17,1.85-.35,2.77-.53.92-.18,1.85-.37,2.77-.56.92-.19,1.84-.39,2.76-.59.46-.1.92-.2,1.38-.31.46-.11.92-.21,1.37-.32.92-.22,1.83-.45,2.74-.68s1.82-.49,2.72-.75,1.8-.53,2.7-.82c.9-.29,1.78-.58,2.67-.89.89-.31,1.77-.64,2.64-.98.88-.34,1.75-.69,2.61-1.06.22-.09.43-.18.65-.28.22-.09.43-.19.65-.28.43-.19.86-.38,1.29-.57.86-.39,1.71-.79,2.55-1.19.85-.41,1.69-.82,2.53-1.24.42-.21.84-.42,1.26-.63.42-.21.84-.43,1.26-.64.42-.21.84-.43,1.26-.64.42-.21.84-.43,1.26-.64.84-.43,1.68-.85,2.52-1.27.21-.1.42-.21.63-.31.11-.05.21-.1.32-.15l.32-.15c.42-.2.85-.41,1.27-.6.85-.4,1.7-.78,2.56-1.16s1.73-.73,2.6-1.06c.88-.34,1.76-.66,2.65-.96.89-.3,1.79-.58,2.69-.83.91-.26,1.82-.49,2.74-.71.46-.11.92-.21,1.38-.31.12-.02.23-.05.35-.07s.23-.05.35-.07c.23-.05.46-.09.7-.14.46-.09.93-.17,1.4-.25.47-.08.93-.15,1.4-.22.93-.14,1.87-.26,2.81-.37.94-.11,1.88-.2,2.82-.28.93-.08,1.87-.15,2.81-.2.93-.06,1.87-.1,2.8-.13.47-.02.93-.03,1.4-.04.23,0,.47,0,.7-.01.12,0,.23,0,.35,0,.06,0,.12,0,.17,0,.06,0,.12,0,.17,0,.93,0,1.86,0,2.79.02.93.02,1.86.06,2.79.12.93.06,1.86.14,2.79.25.93.11,1.86.24,2.79.41.93.17,1.86.36,2.77.6.92.23,1.83.5,2.73.81.23.08.45.16.67.24.22.08.45.17.67.25.44.17.88.36,1.31.55.86.39,1.71.82,2.53,1.29.81.47,1.6.98,2.36,1.54.75.55,1.46,1.15,2.14,1.78.33.32.66.64.97.98.31.33.62.68.91,1.03.29.35.57.71.84,1.08.27.37.53.74.77,1.13.12.19.24.39.36.58.12.2.23.39.35.59.23.4.44.8.65,1.21.41.82.78,1.66,1.12,2.52s.66,1.74.96,2.63c.15.45.29.89.44,1.34.14.45.28.9.42,1.35.07.23.14.45.21.68s.14.45.21.68c.14.46.28.91.42,1.36s.29.91.44,1.36c.15.45.3.9.46,1.36.16.45.32.9.49,1.34.04.11.09.22.13.33.02.06.04.11.07.17s.04.11.07.17c.09.22.18.44.27.66.18.44.38.87.58,1.31.2.43.41.86.62,1.28.43.84.89,1.67,1.39,2.47.5.8,1.02,1.58,1.59,2.33.56.75,1.15,1.47,1.77,2.17.62.7,1.26,1.37,1.92,2.02.33.32.67.64,1.01.95.17.16.34.31.52.46.09.08.17.15.26.23.04.04.09.08.13.11.04.04.09.08.13.11.7.6,1.41,1.19,2.14,1.76.73.57,1.47,1.13,2.21,1.68.37.28.75.55,1.12.83.38.28.75.55,1.13.83.38.28.76.55,1.13.83.38.28.76.56,1.14.84.38.29.76.57,1.13.86.38.29.75.59,1.13.88.37.3.75.6,1.11.91.37.31.73.62,1.1.94.09.08.18.16.27.24s.18.16.27.24c.18.16.36.33.53.49.35.33.7.66,1.04,1.01.34.34.67.69,1,1.04.32.35.64.71.95,1.07.31.36.6.73.89,1.11.29.37.56.75.83,1.13.26.38.51.77.75,1.17.24.39.46.79.67,1.19.21.4.4.8.58,1.22.18.41.34.82.48,1.23.14.41.27.83.37,1.25.11.42.2.84.27,1.27.04.21.07.42.09.64.01.11.02.21.04.32.01.11.02.21.03.32.03.43.05.86.05,1.29,0,.43-.02.87-.06,1.3-.04.44-.09.88-.17,1.31-.07.44-.16.88-.26,1.32-.1.45-.22.89-.35,1.33-.13.45-.28.9-.43,1.34-.16.45-.32.9-.49,1.35-.18.46-.36.91-.55,1.37-.1.23-.19.46-.29.69-.1.23-.2.46-.3.69l-.3.69-.31.7c-.1.23-.21.47-.31.7-.1.23-.21.47-.31.7-.2.47-.41.94-.61,1.41-.05.12-.1.24-.15.35-.02.06-.05.12-.07.18-.02.06-.05.12-.07.18-.1.24-.19.47-.29.71-.19.47-.37.95-.55,1.43-.17.47-.34.95-.5,1.43-.16.47-.3.95-.44,1.43-.13.47-.26.95-.37,1.43-.11.47-.21.95-.29,1.42-.08.47-.15.94-.21,1.42-.05.47-.09.93-.12,1.4-.02.46-.03.93-.03,1.39,0,.46.02.92.06,1.37.03.45.08.91.14,1.36.06.45.14.9.22,1.34.04.22.09.44.14.66.05.22.1.44.16.66.22.88.49,1.75.78,2.61.15.43.3.86.47,1.29.16.43.33.86.5,1.28.17.43.35.86.53,1.28.18.43.37.85.55,1.28.09.21.19.43.28.64s.19.43.28.64c.09.21.19.43.28.64.09.22.19.43.28.65.09.22.19.43.28.65.09.22.19.43.28.65.09.22.19.44.28.65.09.22.19.44.28.66.09.22.19.44.28.66.09.22.18.44.28.66.09.22.18.44.28.66.09.22.18.44.27.66.09.22.18.45.27.67.09.22.18.45.27.67s.18.45.27.67c.09.22.18.45.27.67.18.44.37.89.55,1.34.18.44.37.89.56,1.33.19.44.38.88.58,1.31.2.43.4.87.61,1.29.42.85.86,1.68,1.33,2.5.47.81.98,1.59,1.52,2.35.54.76,1.12,1.48,1.74,2.18.15.17.31.35.47.52.08.08.16.17.24.25.04.04.08.08.12.13.04.04.08.08.12.13.33.33.66.66,1,.98.34.32.69.64,1.04.94.35.31.71.61,1.07.92.36.3.73.6,1.1.89.37.29.74.59,1.11.88.37.29.74.58,1.11.87.37.29.74.58,1.1.88.72.59,1.43,1.19,2.12,1.82.34.31.67.63,1,.95s.64.65.94.99c.3.34.6.68.88,1.04.07.09.14.18.21.27.07.09.14.18.21.27.14.18.27.36.4.55.53.75,1.01,1.51,1.44,2.32.45.82.84,1.65,1.2,2.5.18.43.36.87.53,1.31.17.44.33.89.49,1.34.16.45.31.91.46,1.36.15.46.3.92.45,1.37l.22.69c.07.23.15.46.22.69.15.46.3.92.45,1.38.15.46.31.91.46,1.37.08.23.16.45.24.68.04.11.08.23.12.34.01.03.02.06.03.08l.03.08c.02.06.04.11.06.17.17.45.34.89.52,1.33.18.44.36.87.55,1.31.19.43.39.86.59,1.28.2.42.42.84.63,1.26.44.83.9,1.64,1.39,2.44.49.8,1,1.58,1.53,2.35.26.39.53.77.8,1.15.27.38.55.76.82,1.14.28.38.56.76.84,1.13.28.38.57.76.85,1.13.28.37.57.75.86,1.13.29.37.58.75.87,1.13.29.37.58.75.87,1.13.29.37.58.75.87,1.12.29.37.59.75.88,1.12s.59.75.88,1.12c.3.37.59.74.89,1.11.3.37.6.73.9,1.09s.61.72.92,1.08c.31.36.62.71.94,1.06.63.7,1.28,1.37,1.94,2.03.17.17.33.33.5.49.04.04.08.08.13.12.04.04.08.08.13.12.08.08.17.16.26.24.34.32.69.63,1.04.94.71.61,1.43,1.2,2.18,1.76.75.57,1.52,1.11,2.3,1.63.39.26.79.52,1.19.77.4.25.8.5,1.21.74s.81.48,1.23.72c.41.24.82.47,1.23.71.41.23.83.47,1.24.7.41.23.83.46,1.24.7.41.23.82.47,1.23.7l.15.09s.05.03.08.04c.03.01.05.03.08.04.1.06.2.12.3.18.2.12.41.24.61.36.4.24.8.48,1.2.73.4.25.79.5,1.18.75.78.51,1.54,1.04,2.29,1.59.75.55,1.46,1.13,2.17,1.73.71.6,1.39,1.22,2.06,1.87.34.32.67.65,1,.98.33.33.65.67.97,1.01.32.34.64.69.96,1.04.16.18.32.35.47.53.16.18.32.35.47.53.63.71,1.25,1.43,1.88,2.14.31.36.63.71.94,1.07.31.36.63.71.95,1.06.32.35.64.7.96,1.05s.65.69.98,1.03c.66.68,1.33,1.33,2.02,1.97.69.64,1.39,1.24,2.12,1.83.73.59,1.46,1.15,2.23,1.69.1.07.19.13.29.2.1.07.19.13.29.2.19.13.39.26.58.39.39.26.78.51,1.18.76.4.25.8.49,1.2.73.4.24.81.47,1.22.7.41.23.82.46,1.24.68.41.22.83.44,1.25.66.42.22.84.43,1.26.65.42.21.85.43,1.27.64.42.21.85.42,1.28.63.43.21.86.42,1.29.62.43.2.86.41,1.29.61.43.2.86.41,1.29.61.43.2.86.4,1.3.6s.87.39,1.3.58c.43.19.87.38,1.31.56s.88.36,1.32.54c.44.17.88.34,1.33.51.44.16.89.32,1.34.47.9.3,1.8.57,2.71.82.92.24,1.84.45,2.78.63.47.09.94.17,1.41.24.47.07.95.14,1.43.19.24.03.48.06.72.08.12.01.24.02.36.04.06,0,.12.01.18.02s.12.01.18.02c.48.04.96.08,1.45.12.49.03.97.06,1.46.09s.97.05,1.46.07c.24.01.49.02.73.03l.73.03c.48.02.97.05,1.45.07.48.03.96.06,1.44.09.47.03.95.07,1.42.12.47.05.93.1,1.4.16.46.06.92.13,1.37.21.45.08.9.17,1.35.27.44.1.88.21,1.32.34.43.12.86.26,1.29.4.11.04.21.07.32.11.05.02.11.04.16.06.05.02.11.04.16.06.21.08.42.16.63.24.42.17.83.34,1.24.53.41.19.81.38,1.22.58.81.41,1.6.84,2.38,1.3.4.23.79.46,1.18.69.39.24.78.47,1.18.71.2.12.39.24.59.36.2.12.39.24.59.36.4.24.79.47,1.19.7s.8.46,1.21.68c.41.22.81.44,1.22.66.41.21.83.42,1.24.62.21.1.42.2.63.3.11.05.21.1.32.15.05.02.11.05.16.07l.16.07c.43.19.86.37,1.29.55.44.18.87.35,1.31.52.44.17.88.33,1.33.49.45.16.89.31,1.34.47.45.15.9.3,1.35.45.45.15.9.3,1.35.45.45.15.9.31,1.35.46.45.16.89.32,1.33.49.44.17.88.34,1.31.52.43.18.86.37,1.29.57.42.2.84.4,1.26.62.41.22.82.44,1.22.68.4.24.79.48,1.18.74.39.26.76.53,1.14.8.75.56,1.46,1.16,2.14,1.79.69.64,1.35,1.31,1.98,2,.64.7,1.25,1.42,1.86,2.15.3.36.6.73.9,1.1.3.37.59.74.88,1.11.15.18.29.37.44.55.15.18.29.37.44.55.29.37.59.73.88,1.1.15.18.29.36.44.54.04.04.07.09.11.13.04.04.07.09.11.13l.22.27c.3.36.6.71.91,1.06.31.35.61.69.93,1.03.31.34.63.67.95,1s.65.65.99.97c.34.32.67.63,1.02.94.35.31.7.61,1.05.91.36.3.72.59,1.09.88.37.29.74.58,1.12.85.38.28.76.55,1.15.82.78.54,1.58,1.05,2.39,1.54.41.24.82.48,1.23.71.21.12.42.23.63.34.21.11.42.22.63.33.42.21.85.42,1.28.62s.86.39,1.3.57c.43.18.87.35,1.31.52.44.16.88.32,1.33.46.45.14.89.28,1.35.41.45.13.91.25,1.36.36.46.11.92.21,1.38.3.46.09.93.18,1.4.26.47.08.94.15,1.41.21s.95.12,1.42.16c.47.05.95.08,1.43.11.24.01.48.02.71.03.12,0,.24,0,.36.01s.24,0,.36,0c.47,0,.94,0,1.41-.03.47-.03.93-.07,1.39-.13.46-.06.91-.14,1.36-.25.45-.11.88-.23,1.31-.39.22-.08.43-.16.64-.25.21-.09.42-.19.62-.29.21-.1.41-.21.61-.33.2-.12.4-.24.6-.36.2-.13.39-.26.59-.4.19-.14.39-.28.58-.42.19-.14.38-.29.57-.44.19-.15.38-.3.57-.45.19-.15.38-.3.57-.45.19-.15.38-.29.57-.43.19-.14.38-.28.58-.42.1-.07.19-.13.29-.2s.19-.13.29-.19c.1-.06.2-.13.29-.19.1-.06.2-.12.3-.18.1-.06.2-.12.3-.18.1-.06.2-.12.3-.18.1-.06,1.17.28,1.17.32,0,.1,0,.19,0,.29s0,.19.01.29c0,.1,0,.19.01.29,0,.1.01.2.02.29,0,.1.01.19.02.29,0,.1.01.19.01.29s0,.19.01.29c0,.1,0,.19,0,.29,0,.19,0,.38,0,.58,0,.19,0,.38-.02.57,0,.19-.02.38-.03.57,0,.1-.01.19-.02.29,0,.1-.01.19-.02.29,0,.1-.01.19-.02.29,0,.1-.01.19-.02.29-.01.19-.03.39-.04.58,0,.1-.01.19-.02.29,0,.05,0,.1-.01.14v.07s-.01.05-.01.07c-.02.19-.04.38-.06.58-.02.19-.05.38-.09.57-.03.19-.07.37-.11.56-.09.37-.2.72-.33,1.07-.14.35-.3.69-.48,1.02-.09.17-.19.33-.29.49-.1.16-.21.33-.31.48-.11.16-.22.32-.33.48-.11.16-.23.32-.34.47l-.17.24c-.06.08-.12.16-.17.24s-.12.16-.17.24c-.03.04-.06.08-.09.12l-.08.12c-.11.16-.23.32-.34.48-.11.16-.22.32-.33.48-.11.16-.22.32-.32.48s-.21.32-.31.48c-.1.16-.2.32-.31.49-.05.08-.1.16-.15.24-.05.08-.1.16-.15.24-.1.16-.2.32-.3.48-.1.16-.2.32-.31.47-.21.31-.42.62-.65.92-.23.3-.46.59-.71.88-.03.04-.06.07-.09.11-.02.02-.03.04-.05.05-.02.02-.03.04-.05.05-.06.07-.13.14-.19.21-.13.14-.26.28-.4.41-.13.14-.27.27-.41.41-.14.13-.28.27-.42.4-.29.27-.58.53-.87.79-.15.13-.3.26-.44.39-.15.13-.29.26-.44.4-.15.13-.29.27-.44.4-.14.13-.29.27-.43.41-.28.27-.55.55-.82.84-.13.14-.26.29-.39.43-.13.14-.25.29-.37.44-.25.3-.48.6-.71.91-.23.31-.45.62-.66.94-.21.32-.42.64-.62.97-.1.16-.2.33-.3.49-.1.16-.2.33-.29.49-.1.16-.2.33-.29.49-.1.16-.19.33-.29.5-.1.16-.19.33-.29.5-.05.08-.1.17-.14.25-.02.04-.05.08-.07.12-.02.04-.05.08-.07.12-.1.16-.19.33-.29.5-.1.17-.19.33-.29.5-.1.17-.19.33-.29.5s-.19.33-.28.5c-.19.33-.38.67-.56,1.01-.18.34-.36.68-.54,1.02-.17.34-.34.69-.51,1.04s-.32.7-.47,1.06c-.04.09-.07.18-.11.27-.02.05-.04.09-.05.13-.02.05-.04.09-.05.13-.07.18-.14.36-.2.54-.13.36-.26.73-.38,1.1-.12.37-.23.74-.34,1.11s-.2.75-.3,1.12c-.09.37-.18.75-.26,1.13s-.16.76-.23,1.13c-.04.19-.07.38-.11.57,0,.05-.02.1-.03.14,0,.05-.02.09-.02.14-.02.1-.03.19-.05.28-.07.38-.13.76-.19,1.14s-.11.76-.17,1.14c-.05.38-.1.76-.15,1.14-.05.38-.09.76-.14,1.14s-.09.76-.13,1.15c-.04.38-.08.76-.12,1.15-.01.1-.02.19-.03.29-.01.1-.02.19-.03.29-.02.19-.04.38-.06.58-.04.38-.08.77-.12,1.15-.04.39-.09.76-.13,1.15s-.09.76-.14,1.15c-.05.38-.1.76-.16,1.14-.05.38-.11.76-.17,1.14-.03.19-.06.38-.08.57-.01.1-.03.19-.04.29s-.03.19-.04.28c-.03.19-.06.38-.08.57s-.06.38-.08.57c-.05.38-.11.76-.16,1.14-.05.38-.09.76-.13,1.14-.04.38-.07.76-.1,1.14-.02.38-.04.76-.05,1.15,0,.19,0,.38,0,.57,0,.1,0,.19,0,.29,0,.1,0,.19.01.29.02.38.04.77.09,1.15.04.38.1.76.16,1.14.07.38.15.76.25,1.13.1.37.21.75.33,1.11.25.74.55,1.45.9,2.15.18.35.36.69.56,1.02.2.33.4.66.62.99.22.32.44.64.67.95.23.31.47.61.72.91.24.3.49.59.75.87.26.28.52.57.78.84s.53.55.8.82c.27.27.54.54.81.81.13.13.27.27.41.4.13.13.27.27.41.4.27.27.54.54.81.81.27.27.53.55.8.82s.52.56.78.84c.26.29.51.58.75.87.03.04.06.07.09.11l.09.11c.06.07.12.15.18.22.12.15.24.3.35.45.47.61.91,1.24,1.33,1.89.21.33.41.65.61.98.2.33.39.66.58,1,.19.34.37.68.55,1.02.09.17.18.34.27.51.04.09.09.17.13.26.04.09.09.17.13.26.17.34.35.69.52,1.03.09.17.17.34.26.52.09.17.17.34.26.52.17.35.34.68.52,1.03.18.34.35.68.53,1.02.18.34.36.68.54,1.02.09.17.18.34.28.51.05.08.09.17.14.25.05.08.09.17.14.25.19.34.37.67.56,1.01.09.17.19.34.28.5.09.17.19.34.28.51.38.68.75,1.35,1.11,2.03.18.34.36.68.54,1.02.18.34.35.69.52,1.03.04.09.08.17.12.26.04.09.08.17.12.26.08.17.16.35.24.52.16.35.31.7.47,1.05.15.35.3.71.44,1.07.14.36.28.71.42,1.07.14.36.27.72.4,1.08s.26.72.39,1.09c.06.18.13.36.19.55.06.18.13.36.19.54.13.36.25.73.38,1.09.13.36.26.72.39,1.09.13.36.27.72.4,1.08.14.36.28.71.42,1.07.15.36.3.71.45,1.06.16.35.31.7.48,1.04l.13.26c.04.08.08.17.13.26.09.17.17.34.26.51.36.68.74,1.34,1.15,1.99.41.65.84,1.28,1.3,1.89.23.31.47.61.71.91.12.15.25.3.37.44.03.04.06.07.09.11.03.04.06.07.1.11.06.07.13.14.19.22.51.58,1.05,1.13,1.6,1.67.55.54,1.13,1.05,1.72,1.54.59.49,1.2.96,1.82,1.42.62.45,1.26.88,1.91,1.3.33.21.65.41.98.6s.66.39,1,.58c.34.19.67.37,1.01.55s.68.36,1.03.53c.17.09.35.17.52.26.17.08.35.17.52.25.35.17.7.33,1.05.49.35.16.71.32,1.06.48.36.16.71.32,1.07.48.35.16.72.32,1.07.48.36.16.71.32,1.07.48.35.16.7.33,1.06.49.35.17.69.34,1.04.51.34.17.68.35,1.02.54.33.18.66.37.99.57.32.2.64.4.96.61.31.21.62.43.92.66.3.23.59.47.88.71.14.12.28.25.42.38.14.13.28.26.41.39.27.27.53.54.78.83.25.29.5.58.73.89.46.61.88,1.26,1.24,1.94.18.34.35.69.5,1.04.15.35.29.72.41,1.08.12.37.22.74.31,1.11.08.38.15.75.21,1.14.05.38.09.76.11,1.15s.03.77.02,1.16c0,.39-.02.77-.05,1.16-.01.19-.03.39-.05.58-.02.19-.04.39-.06.58-.04.38-.09.77-.14,1.15-.03.19-.05.38-.08.57s-.05.38-.08.57-.05.38-.08.57c-.03.19-.05.38-.08.57-.05.38-.1.76-.14,1.15s-.08.76-.12,1.15c-.03.38-.06.76-.08,1.15,0,.1-.01.19-.02.29,0,.05,0,.1,0,.14,0,.05,0,.1,0,.14,0,.19-.01.38-.02.58-.01.39-.02.77-.02,1.16,0,.39,0,.77,0,1.16,0,.39,0,.77,0,1.16,0,.39,0,.77,0,1.16,0,.39,0,.77-.02,1.16,0,.19-.01.39-.02.58,0,.05,0,.1,0,.14,0,.05,0,.1,0,.14,0,.1,0,.19-.01.29-.02.38-.05.77-.08,1.15-.07.77-.16,1.52-.28,2.28-.06.38-.13.76-.2,1.13-.07.38-.15.75-.23,1.13s-.17.75-.25,1.12c-.02.09-.04.19-.07.28-.02.09-.04.19-.07.28l-.14.56c-.05.19-.09.37-.14.56-.05.19-.09.37-.14.56-.09.37-.18.75-.27,1.12-.09.38-.18.75-.26,1.12s-.17.75-.24,1.13c-.08.38-.15.75-.23,1.13-.04.19-.07.38-.11.57-.02.09-.03.19-.05.28-.02.1-.03.19-.05.28-.13.76-.25,1.51-.36,2.28-.06.38-.11.76-.16,1.14-.05.38-.11.76-.16,1.14l-.08.57c-.02.19-.05.38-.08.57l-.08.57c-.01.1-.03.19-.04.29-.01.1-.03.19-.04.29-.05.39-.1.75-.16,1.14l-.08.57c-.03.19-.05.38-.08.57-.05.38-.11.77-.16,1.14-.05.38-.1.76-.16,1.15-.05.38-.1.76-.14,1.15-.05.38-.09.76-.13,1.15-.01.1-.02.19-.03.29,0,.05,0,.1-.01.14v.14c-.03.19-.05.38-.06.57-.03.38-.06.76-.08,1.15-.02.38-.04.76-.06,1.15-.01.38-.03.76-.03,1.15,0,.38-.01.76-.02,1.15,0,.39,0,.77,0,1.15,0,.19,0,.38,0,.58,0,.1,0,.19,0,.29,0,.05,0,.1,0,.14s0,.1,0,.14c0,.39,0,.77-.02,1.15,0,.39-.02.77-.04,1.16-.01.39-.03.77-.06,1.16-.02.39-.05.77-.09,1.15-.03.39-.07.77-.12,1.15-.05.38-.1.76-.16,1.15,0,.05-.01.1-.02.14,0,.05-.01.1-.02.14-.01.09-.03.19-.05.28-.03.19-.06.38-.1.57-.07.38-.14.75-.22,1.13-.08.37-.17.75-.26,1.12-.09.37-.19.74-.3,1.1-.11.37-.22.73-.34,1.09-.12.36-.24.72-.38,1.08-.07.18-.13.36-.2.54-.02.05-.04.09-.05.13-.02.04-.04.09-.05.13-.04.09-.07.18-.11.27-.15.36-.3.71-.46,1.06-.16.36-.32.71-.48,1.06-.17.35-.33.7-.5,1.06-.17.35-.34.71-.51,1.06s-.33.7-.49,1.06c-.16.35-.32.71-.47,1.06-.01.02-.02.04-.03.07s-.02.04-.03.07c-.02.04-.04.09-.06.13l-.11.27c-.07.18-.14.36-.21.54-.14.36-.26.71-.39,1.08-.12.36-.23.72-.34,1.09-.11.36-.21.73-.31,1.1-.05.18-.1.37-.14.55s-.09.37-.14.55c-.05.19-.09.37-.14.56-.05.19-.09.37-.14.56-.02.09-.05.19-.07.28-.01.05-.02.09-.03.14l-.02.07s-.01.05-.02.07c-.02.1-.05.19-.07.28-.02.09-.04.19-.07.28-.04.19-.09.38-.13.57-.04.19-.09.38-.13.57s-.08.38-.13.57c-.04.19-.08.38-.12.57-.04.19-.08.38-.11.57-.04.19-.07.38-.1.57-.06.38-.12.76-.15,1.14-.04.38-.07.75-.08,1.13,0,.19,0,.38,0,.56,0,.09,0,.19,0,.28,0,.09,0,.19.01.28.02.38.06.75.1,1.12.05.38.11.75.17,1.12.03.19.07.37.1.56.02.09.03.19.05.28.02.1.04.19.05.28.04.19.07.38.11.57.04.19.07.38.1.57s.06.38.09.58c.03.19.06.39.08.58s.05.39.07.58c.02.2.04.39.06.59,0,.05.01.1.02.15,0,.05,0,.1.01.15.01.1.02.2.03.29.01.1.02.2.03.29l.03.29c.02.19.04.39.07.58.02.19.05.38.08.57.03.19.07.38.11.56.04.19.08.37.14.55.05.18.11.36.17.54s.13.35.21.53c.08.17.16.35.25.51.09.17.18.34.28.5.1.17.2.33.31.49.11.16.22.33.33.49.06.08.11.16.17.24.06.08.11.16.17.24.01.02.03.04.04.06s.03.04.04.06c.03.04.05.08.08.12.05.08.11.16.16.24.11.16.21.33.32.49.1.16.2.33.3.5.1.17.19.33.28.5.05.08.09.17.14.25l.14.25c.09.17.18.34.27.5.09.17.19.33.28.5.05.08.1.17.15.25.05.08.1.17.15.25.05.08.11.16.16.25s.11.16.16.24c.05.08.11.16.16.24s.11.16.16.24c.05.08.1.16.15.25s.1.17.14.25c.02.04.05.08.07.13l.07.13s.04.08.07.13c.02.04.05.08.07.13l.07.13s.05.08.07.12c.02.04.05.08.08.12s.06.08.09.12"/>
</svg>