<?xml version="1.0" encoding="UTF-8"?>
<svg id="uuid-53c2ed10-bfd1-423a-bb14-5c70e3ade74a" data-name="Migration Routes::Pacifico" xmlns="http://www.w3.org/2000/svg" viewBox="0 0 1920 960">
  <defs>
    <style>
      .uuid-d8cd2619-804b-4464-b77c-c5e9f59d7de6 {
        fill: none;
        stroke: red;
        stroke-linecap: round;
        stroke-linejoin: round;
        stroke-width: 1.5px;
      }
    </style>
  </defs>
  <path class="uuid-d8cd2619-804b-4464-b77c-c5e9f59d7de6" d="M915.92,566.99c-1.29.24-2.58.44-3.88.59-1.29.16-2.59.27-3.89.36-1.3.09-2.6.15-3.91.19-1.3.04-2.61.06-3.91.06-.65,0-1.31,0-1.96,0-.65,0-1.31-.01-1.96-.02-.65-.01-1.31-.02-1.96-.04-.65-.01-1.31-.03-1.96-.05-.65-.02-1.31-.04-1.96-.06-.65-.02-1.31-.04-1.96-.06-.65-.02-1.31-.04-1.96-.06-.65-.02-1.31-.05-1.96-.07-.65-.02-1.31-.05-1.96-.07s-1.31-.05-1.96-.07c-.65-.02-1.31-.05-1.96-.07-.33-.01-.65-.02-.98-.04-.16,0-.33-.01-.49-.02-.16,0-.33-.01-.49-.02-1.31-.05-2.61-.1-3.92-.15-1.31-.05-2.61-.11-3.91-.18-1.31-.06-2.6-.13-3.91-.2-1.3-.07-2.6-.15-3.91-.23-2.62-.17-5.2-.36-7.81-.58-1.3-.11-2.6-.22-3.9-.34-1.3-.12-2.6-.25-3.9-.38-1.3-.13-2.6-.27-3.9-.41-.65-.07-1.3-.14-1.95-.21-.16-.02-.33-.04-.49-.05-.16-.02-.33-.04-.49-.05-.33-.04-.65-.07-.97-.11-1.29-.14-2.6-.29-3.9-.44-1.29-.15-2.61-.3-3.9-.45-.65-.07-1.3-.15-1.95-.23-.65-.08-1.3-.15-1.95-.23-1.32-.15-2.58-.3-3.9-.45-1.31-.15-2.59-.3-3.9-.45-1.31-.15-2.59-.3-3.9-.45-.65-.07-1.3-.15-1.95-.22-.65-.07-1.3-.15-1.95-.22-.65-.07-1.3-.15-1.95-.22-.65-.07-1.3-.15-1.95-.22-1.29-.15-2.6-.3-3.89-.45-.65-.08-1.3-.15-1.95-.23-.33-.04-.65-.08-.97-.12-.33-.04-.65-.08-.97-.12-1.3-.16-2.59-.31-3.89-.48-1.3-.16-2.59-.33-3.88-.51-1.29-.17-2.59-.35-3.88-.53-1.29-.18-2.58-.37-3.87-.57-2.59-.39-5.15-.81-7.73-1.25-1.29-.22-2.57-.45-3.86-.68-1.29-.23-2.57-.47-3.85-.71-1.28-.24-2.56-.49-3.85-.75-.32-.06-.64-.13-.96-.19-.32-.06-.64-.13-.96-.19-.64-.13-1.28-.26-1.92-.39-1.28-.26-2.56-.53-3.84-.79-1.28-.27-2.56-.54-3.84-.81-1.28-.27-2.56-.54-3.83-.82-1.27-.27-2.56-.55-3.83-.82-1.27-.27-2.56-.55-3.83-.83-1.27-.28-2.56-.56-3.83-.83-1.27-.28-2.56-.56-3.83-.84-1.27-.28-2.56-.56-3.83-.84-1.27-.28-2.56-.57-3.83-.85-.32-.07-.64-.14-.96-.21-.32-.07-.64-.14-.96-.22-.64-.14-1.27-.29-1.91-.43-1.28-.29-2.54-.58-3.82-.87-1.28-.29-2.54-.59-3.82-.89-1.27-.3-2.54-.6-3.81-.91-1.27-.31-2.53-.61-3.8-.93-1.27-.31-2.53-.62-3.8-.94-1.27-.32-2.53-.63-3.8-.95-.63-.16-1.27-.32-1.9-.48-.63-.16-1.27-.32-1.9-.48-1.26-.32-2.54-.64-3.8-.96-1.26-.32-2.54-.63-3.8-.95-.32-.08-.63-.16-.95-.23-.32-.08-.63-.16-.95-.23-.64-.16-1.27-.31-1.91-.46-1.27-.31-2.54-.6-3.81-.9-1.28-.29-2.55-.58-3.83-.86s-2.56-.55-3.84-.82c-1.28-.27-2.56-.52-3.85-.77-2.58-.5-5.15-.96-7.74-1.39-1.29-.22-2.59-.42-3.88-.62s-2.59-.39-3.89-.57c-.65-.09-1.3-.18-1.95-.27-.33-.04-.65-.09-.97-.13-.16-.02-.33-.04-.49-.06s-.33-.04-.49-.06c-1.3-.17-2.6-.33-3.9-.49-1.3-.16-2.59-.31-3.89-.46-1.29-.15-2.59-.29-3.89-.43-1.29-.14-2.59-.28-3.88-.41-1.29-.13-2.58-.26-3.87-.39-1.29-.13-2.58-.25-3.87-.37-1.29-.12-2.58-.24-3.86-.35-1.29-.11-2.58-.23-3.86-.33-1.29-.11-2.58-.21-3.87-.31-.65-.05-1.29-.1-1.94-.14-.32-.02-.65-.05-.97-.07-.32-.02-.65-.05-.97-.07-1.3-.09-2.6-.17-3.9-.25-1.31-.08-2.62-.15-3.93-.21-1.32-.06-2.64-.12-3.96-.16-1.33-.04-2.65-.08-3.98-.1-1.33-.02-2.67-.03-4-.03-1.34,0-2.68.02-4.02.06-1.34.04-2.68.09-4.02.17-1.34.08-2.68.17-4.01.3-1.33.12-2.65.27-3.98.45-.66.09-1.31.18-1.97.29-.16.03-.33.05-.49.08l-.12.02s-.08.01-.12.02l-.24.04c-.33.06-.65.11-.98.17-1.29.24-2.57.51-3.85.82-1.26.31-2.51.65-3.75,1.04-1.23.38-2.44.81-3.63,1.27-1.19.46-2.39.98-3.54,1.52-.1-.88-.14-1.76-.14-2.64,0-.44.01-.88.03-1.33.02-.45.05-.89.08-1.33.03-.45.07-.89.12-1.34.05-.45.1-.9.15-1.35.03-.23.06-.46.08-.68.03-.23.06-.46.09-.69.03-.23.06-.46.09-.69.03-.23.06-.46.09-.7.03-.23.06-.47.09-.7l.1-.71c.03-.24.06-.48.09-.71.03-.24.06-.48.09-.72.03-.24.06-.48.09-.73.03-.24.06-.49.09-.73.03-.25.06-.49.08-.74.03-.25.05-.5.08-.75.05-.5.1-1.01.14-1.51.04-.51.08-1.03.11-1.54.03-.52.06-1.05.08-1.57.02-.53.03-1.07.04-1.6,0-.43,0-.85,0-1.28,0-.43-.01-.86-.02-1.3-.03-.88-.07-1.77-.13-2.65-.07-.91-.15-1.82-.26-2.72-.11-.93-.24-1.86-.39-2.79-.16-.95-.33-1.91-.52-2.86-.2-.98-.42-1.95-.66-2.91-.25-.99-.51-1.98-.79-2.96-.29-1.01-.6-2.01-.92-3-.29-.88-.59-1.76-.9-2.64-.16-.44-.32-.88-.48-1.33-.01-.03-.02-.06-.03-.08-.01-.03-.02-.06-.03-.08l-.06-.17c-.04-.11-.08-.22-.12-.33-.08-.22-.17-.44-.25-.66-.34-.89-.69-1.78-1.05-2.66-.36-.89-.73-1.77-1.11-2.66-.76-1.77-1.56-3.53-2.38-5.27-.41-.87-.83-1.74-1.25-2.6-.42-.86-.85-1.71-1.28-2.56-.46-.9-.92-1.79-1.39-2.69-.46-.88-.94-1.76-1.41-2.64-.47-.86-.94-1.72-1.42-2.58-.47-.84-.95-1.68-1.43-2.52-.47-.82-.95-1.64-1.43-2.46-.47-.8-.95-1.6-1.43-2.39-.47-.78-.94-1.55-1.42-2.32-.47-.75-.93-1.5-1.4-2.25-.57-.91-1.15-1.81-1.74-2.71-.56-.87-1.13-1.74-1.7-2.6-.55-.83-1.11-1.66-1.67-2.49-.54-.8-1.09-1.59-1.64-2.39-.27-.39-.54-.77-.81-1.16-.27-.38-.53-.76-.8-1.13-.26-.37-.52-.74-.79-1.11l-.1-.14s-.03-.05-.05-.07-.03-.05-.05-.07c-.07-.09-.13-.18-.2-.27-.13-.18-.26-.36-.39-.54-.51-.71-1.02-1.41-1.54-2.11-.5-.68-1-1.36-1.51-2.04-.61-.82-1.23-1.64-1.85-2.46-.6-.79-1.21-1.58-1.82-2.37-.59-.77-1.19-1.54-1.79-2.3-.3-.38-.59-.75-.89-1.13-.29-.37-.59-.74-.88-1.11-.29-.37-.59-.74-.88-1.1-.29-.36-.58-.73-.87-1.09-.29-.36-.58-.72-.87-1.08-.29-.36-.58-.72-.87-1.07-.29-.36-.58-.71-.87-1.07-.29-.35-.58-.71-.87-1.06-.29-.35-.58-.7-.86-1.05-.29-.35-.58-.7-.87-1.05-.61-.74-1.23-1.48-1.84-2.21-.61-.73-1.23-1.46-1.85-2.19-.62-.72-1.24-1.45-1.87-2.17-.16-.18-.31-.36-.47-.54l-.23-.27c-.08-.09-.16-.18-.23-.27-.31-.36-.63-.71-.94-1.07-1.26-1.42-2.54-2.83-3.83-4.22-1.3-1.39-2.62-2.75-3.96-4.09-1.35-1.34-2.72-2.65-4.13-3.93-1.41-1.28-2.85-2.52-4.33-3.71-1.49-1.19-3.01-2.34-4.58-3.43-1.58-1.09-3.19-2.12-4.86-3.08"/>
  <path class="uuid-d8cd2619-804b-4464-b77c-c5e9f59d7de6" d="M35.78,354.07c0,.65-.01,1.31-.01,1.96,0,.65,0,1.31,0,1.96s0,1.31,0,1.96,0,1.31,0,1.96c0,.65,0,1.31.01,1.97,0,.66,0,1.3.01,1.96,0,.66,0,1.31.01,1.97,0,.66,0,1.31,0,1.96,0,1.32,0,2.61,0,3.93,0,1.32,0,2.61-.01,3.92,0,.65,0,1.31-.01,1.96,0,.65-.01,1.3-.02,1.96,0,.66-.01,1.3-.02,1.96,0,.66-.01,1.3-.02,1.96,0,.65-.01,1.31-.02,1.96,0,.65-.01,1.31-.02,1.96,0,.65-.01,1.31-.01,1.96,0,.33,0,.65,0,.98,0,.16,0,.33,0,.49v.49c0,1.31,0,2.61.02,3.92.02,1.31.05,2.62.09,3.92.04,1.31.1,2.62.18,3.93.08,1.31.18,2.62.29,3.93.12,1.31.26,2.62.42,3.92s.36,2.61.57,3.9.46,2.59.74,3.88.58,2.57.92,3.84c.34,1.27.7,2.53,1.11,3.78.2.63.41,1.25.63,1.86.05.16.11.31.16.46.03.08.06.15.08.23l.08.23c.11.31.23.61.35.92.47,1.22.98,2.42,1.52,3.61.54,1.18,1.12,2.35,1.73,3.5.61,1.14,1.26,2.27,1.95,3.37.69,1.1,1.41,2.17,2.17,3.22,1.52,2.1,3.18,4.08,4.98,5.94,1.8,1.87,3.73,3.61,5.77,5.21,1.02.81,2.07,1.58,3.15,2.31.54.37,1.08.73,1.63,1.08.07.04.14.09.21.13.07.04.14.09.21.13.14.09.28.17.42.26.28.17.56.34.84.51,1.12.67,2.27,1.31,3.43,1.91,1.16.6,2.34,1.17,3.54,1.71,1.19.53,2.4,1.04,3.62,1.51,1.22.47,2.45.91,3.69,1.32,1.24.41,2.49.79,3.75,1.14,1.26.35,2.52.68,3.8.99,1.27.3,2.55.58,3.83.85,1.28.26,2.57.5,3.85.73,1.29.23,2.58.44,3.87.64.32.05.65.1.97.15.32.05.65.1.97.15.65.1,1.29.19,1.94.28.65.09,1.29.19,1.94.28.64.09,1.3.18,1.94.28.65.09,1.29.18,1.94.28.65.09,1.29.19,1.94.28,1.29.19,2.58.38,3.87.58,1.29.2,2.57.41,3.86.63,1.29.22,2.57.45,3.85.69,1.28.24,2.56.49,3.83.76,2.56.54,5.08,1.12,7.62,1.77,1.27.32,2.53.66,3.79,1.01.16.04.31.09.47.13l.47.13c.31.09.63.18.94.27.63.18,1.26.36,1.88.55,1.25.37,2.51.76,3.75,1.15,1.25.39,2.49.8,3.74,1.21,2.48.82,4.97,1.69,7.42,2.59,2.45.89,4.91,1.83,7.34,2.8,1.22.48,2.43.98,3.64,1.48,1.21.5,2.41,1.01,3.61,1.53,1.2.52,2.39,1.05,3.58,1.59l.45.2c.15.07.3.14.44.2.3.14.59.28.89.41.59.28,1.18.56,1.76.84,1.17.57,2.34,1.15,3.5,1.74,1.16.59,2.31,1.2,3.46,1.82,1.15.62,2.28,1.25,3.42,1.9,1.13.65,2.26,1.3,3.38,1.97,1.12.67,2.23,1.35,3.34,2.04,1.11.69,2.21,1.39,3.31,2.1,1.1.71,2.19,1.42,3.29,2.14.55.36,1.09.72,1.64,1.08s1.09.72,1.64,1.09c.55.37,1.08.72,1.64,1.09.27.18.54.36.82.54.27.18.54.36.82.54.55.36,1.09.72,1.64,1.08.55.36,1.09.72,1.64,1.08,1.1.71,2.19,1.42,3.3,2.12,1.11.7,2.21,1.39,3.33,2.06,1.12.68,2.24,1.34,3.37,1.98,1.13.65,2.27,1.28,3.42,1.89,1.15.62,2.3,1.21,3.47,1.8,1.17.58,2.34,1.15,3.52,1.69,2.37,1.1,4.76,2.11,7.19,3.06.61.24,1.22.47,1.83.7.31.11.61.23.92.34.15.06.31.11.46.17.15.06.31.11.46.17,1.23.44,2.47.86,3.71,1.27,2.48.82,4.99,1.58,7.51,2.29,2.52.71,5.06,1.37,7.6,2,2.54.62,5.1,1.21,7.65,1.76,2.55.55,5.12,1.07,7.69,1.57.64.12,1.28.25,1.93.37.32.06.64.12.96.18.32.06.64.12.96.18,1.28.24,2.57.47,3.86.7,1.29.23,2.57.46,3.86.68,1.29.22,2.58.44,3.86.65,2.57.43,5.17.85,7.74,1.26,2.57.41,5.17.81,7.75,1.19,2.58.39,5.19.77,7.76,1.13.65.09,1.3.18,1.94.27.65.09,1.3.18,1.94.26,1.3.17,2.59.35,3.89.51,2.61.33,5.18.65,7.79.95,1.3.15,2.6.3,3.9.44,1.3.14,2.6.28,3.9.42,1.3.14,2.6.27,3.9.4,1.31.13,2.6.26,3.9.39.65.06,1.3.13,1.95.19.65.06,1.3.13,1.95.19,1.3.13,2.61.26,3.9.39.33.03.65.07.98.1.33.03.65.07.98.1.65.07,1.3.14,1.95.21,1.3.14,2.6.28,3.9.43,1.3.15,2.6.3,3.9.46,1.3.16,2.59.33,3.89.5,2.61.35,5.17.73,7.77,1.13,1.3.2,2.59.41,3.88.63,1.29.22,2.58.44,3.87.67s2.58.46,3.87.7c1.29.24,2.57.48,3.86.72l.48.09.48.09.96.18c.64.12,1.29.25,1.93.37.64.12,1.29.25,1.93.37.64.12,1.28.25,1.93.37,1.29.24,2.56.48,3.85.73,1.29.24,2.56.48,3.85.71,1.29.24,2.56.46,3.85.69,1.28.23,2.56.45,3.85.67,1.29.22,2.56.44,3.85.66,1.29.22,2.56.43,3.85.64.64.11,1.28.21,1.92.32.64.11,1.28.21,1.93.32.64.11,1.28.21,1.93.32.64.11,1.29.22,1.93.32.64.11,1.29.22,1.93.33.64.11,1.29.22,1.93.33.65.11,1.29.23,1.94.34.65.12,1.29.23,1.94.35.65.12,1.29.24,1.94.36.65.12,1.29.24,1.94.37.65.12,1.3.25,1.94.38.65.13,1.3.26,1.95.39.65.13,1.3.26,1.95.4.65.13,1.3.27,1.95.4s1.3.27,1.95.41c.65.14,1.3.27,1.95.41.65.14,1.31.28,1.96.41.65.14,1.31.27,1.96.41.65.14,1.31.27,1.96.4.65.13,1.31.27,1.96.4s1.31.26,1.96.38c.65.13,1.3.25,1.96.37.65.12,1.3.24,1.96.35.33.06.65.11.98.17l.24.04c.08.01.16.03.24.04l.49.08c1.3.2,2.6.39,3.91.55,1.3.16,2.59.29,3.89.39,1.29.1,2.58.17,3.88.21,1.28.03,2.57.03,3.85,0,1.28-.04,2.55-.12,3.82-.24,1.27-.12,2.53-.29,3.78-.49,1.25-.21,2.5-.46,3.74-.75,1.24-.29,2.47-.63,3.68-1.01,1.22-.38,2.42-.8,3.62-1.27.6-.23,1.19-.48,1.78-.73.15-.06.3-.13.44-.19.04-.02.07-.03.11-.05.04-.02.07-.03.11-.05l.22-.1c.29-.13.59-.27.88-.4,1.17-.55,2.32-1.13,3.46-1.75,1.14-.62,2.26-1.28,3.37-1.96,1.11-.69,2.2-1.41,3.28-2.16,1.08-.75,2.14-1.53,3.19-2.32,1.05-.8,2.08-1.62,3.1-2.46,1.02-.84,2.03-1.7,3.03-2.57.5-.43,1-.87,1.49-1.31.49-.44.99-.88,1.48-1.33s.98-.89,1.47-1.33c.49-.45.98-.89,1.46-1.34.49-.44.98-.89,1.46-1.33s.97-.89,1.46-1.33c.49-.44.98-.88,1.47-1.31.49-.43.98-.86,1.47-1.29.49-.42.99-.85,1.49-1.26.5-.42,1-.83,1.5-1.23,1-.81,2.02-1.59,3.06-2.35,1.03-.75,2.08-1.48,3.16-2.17,1.07-.69,2.16-1.34,3.27-1.96.98-.55,1.97-1.06,2.98-1.55.26-.13.56-.15.83-.06s.63.2.86.27c.44.14.88.29,1.32.44.44.16.88.32,1.32.49.44.17.88.35,1.32.53.44.18.88.37,1.32.56.44.19.88.39,1.32.6.44.2.88.41,1.32.63.44.22.88.43,1.32.66.44.22.88.45,1.32.68.44.23.88.47,1.31.7.88.48,1.76.97,2.63,1.47.88.5,1.75,1.01,2.62,1.53.87.52,1.75,1.05,2.61,1.58.83.51,1.66,1.03,2.48,1.54.83.52,1.65,1.05,2.47,1.57.82.53,1.65,1.06,2.47,1.59.82.53,1.64,1.07,2.46,1.61.41.27.82.54,1.23.81.41.27.82.54,1.22.81.82.54,1.63,1.09,2.44,1.63,1.63,1.1,3.24,2.19,4.86,3.31,1.62,1.11,3.21,2.23,4.82,3.35,1.61,1.13,3.19,2.25,4.79,3.39.8.57,1.59,1.14,2.39,1.71.8.57,1.59,1.14,2.39,1.71.4.28.79.57,1.19.86.4.28.8.57,1.19.85.79.57,1.59,1.14,2.39,1.71.8.57,1.59,1.14,2.39,1.7l.6.42c.2.14.4.28.6.42.4.28.8.57,1.2.85.8.56,1.6,1.12,2.4,1.68.8.56,1.61,1.11,2.41,1.67,1.62,1.11,3.23,2.19,4.86,3.28,1.64,1.08,3.27,2.14,4.92,3.19,1.65,1.05,3.31,2.07,4.98,3.09,1.68,1.02,3.35,2.01,5.04,3,.85.49,1.69.98,2.54,1.47s1.7.97,2.55,1.45c.21.12.43.24.64.36.21.12.43.24.64.36.43.24.86.48,1.28.72.86.48,1.72.95,2.57,1.42.86.47,1.72.94,2.57,1.41.86.47,1.72.94,2.58,1.41,1.7.93,3.46,1.88,5.17,2.79.86.46,1.73.93,2.59,1.39.86.46,1.73.92,2.59,1.38.86.46,1.73.92,2.59,1.37.86.46,1.73.91,2.6,1.36.87.45,1.74.9,2.61,1.35s1.74.89,2.62,1.33c.87.44,1.75.88,2.63,1.31l.66.32c.22.11.44.21.66.32.44.21.88.43,1.32.64.88.42,1.77.83,2.66,1.25.89.41,1.78.81,2.67,1.21.89.4,1.78.79,2.68,1.18.9.39,1.79.77,2.69,1.15.46.2.93.39,1.39.58.46.19.93.39,1.39.58.46.19.93.38,1.39.57.23.1.46.19.69.29s.46.19.69.29c.46.19.92.38,1.38.57.46.19.92.38,1.38.58.46.19.91.39,1.37.58.45.19.91.39,1.36.59.45.2.9.4,1.34.6.44.2.89.4,1.33.61.44.21.88.42,1.31.63.43.21.86.43,1.29.65.42.22.85.44,1.26.67.42.23.83.46,1.24.7.81.47,1.61.97,2.38,1.5"/>
  <path class="uuid-d8cd2619-804b-4464-b77c-c5e9f59d7de6" d="M915.92,566.99c-1.29.24-2.58.44-3.88.59-1.29.16-2.59.27-3.89.36-1.3.09-2.6.15-3.91.19-1.3.04-2.61.06-3.91.06-.65,0-1.31,0-1.96,0-.65,0-1.31-.01-1.96-.02-.65-.01-1.31-.02-1.96-.04-.65-.01-1.31-.03-1.96-.05-.65-.02-1.31-.04-1.96-.06-.65-.02-1.31-.04-1.96-.06-.65-.02-1.31-.04-1.96-.06-.65-.02-1.31-.05-1.96-.07-.65-.02-1.31-.05-1.96-.07s-1.31-.05-1.96-.07c-.65-.02-1.31-.05-1.96-.07-.33-.01-.65-.02-.98-.04-.16,0-.33-.01-.49-.02-.16,0-.33-.01-.49-.02-1.31-.05-2.61-.1-3.92-.15-1.31-.05-2.61-.11-3.91-.18-1.31-.06-2.6-.13-3.91-.2-1.3-.07-2.6-.15-3.91-.23-2.62-.17-5.2-.36-7.81-.58-1.3-.11-2.6-.22-3.9-.34-1.3-.12-2.6-.25-3.9-.38-1.3-.13-2.6-.27-3.9-.41-.65-.07-1.3-.14-1.95-.21-.16-.02-.33-.04-.49-.05-.16-.02-.33-.04-.49-.05-.33-.04-.65-.07-.97-.11-1.29-.14-2.6-.29-3.9-.44-1.29-.15-2.61-.3-3.9-.45-.65-.07-1.3-.15-1.95-.23-.65-.08-1.3-.15-1.95-.23-1.32-.15-2.58-.3-3.9-.45-1.31-.15-2.59-.3-3.9-.45-1.31-.15-2.59-.3-3.9-.45-.65-.07-1.3-.15-1.95-.22-.65-.07-1.3-.15-1.95-.22-.65-.07-1.3-.15-1.95-.22-.65-.07-1.3-.15-1.95-.22-1.29-.15-2.6-.3-3.89-.45-.65-.08-1.3-.15-1.95-.23-.33-.04-.65-.08-.97-.12-.33-.04-.65-.08-.97-.12-1.3-.16-2.59-.31-3.89-.48-1.3-.16-2.59-.33-3.88-.51-1.29-.17-2.59-.35-3.88-.53-1.29-.18-2.58-.37-3.87-.57-2.59-.39-5.15-.81-7.73-1.25-1.29-.22-2.57-.45-3.86-.68-1.29-.23-2.57-.47-3.85-.71-1.28-.24-2.56-.49-3.85-.75-.32-.06-.64-.13-.96-.19-.32-.06-.64-.13-.96-.19-.64-.13-1.28-.26-1.92-.39-1.28-.26-2.56-.53-3.84-.79-1.28-.27-2.56-.54-3.84-.81-1.28-.27-2.56-.54-3.83-.82-1.27-.27-2.56-.55-3.83-.82-1.27-.27-2.56-.55-3.83-.83-1.27-.28-2.56-.56-3.83-.83-1.27-.28-2.56-.56-3.83-.84-1.27-.28-2.56-.56-3.83-.84-1.27-.28-2.56-.57-3.83-.85-.32-.07-.64-.14-.96-.21-.32-.07-.64-.14-.96-.22-.64-.14-1.27-.29-1.91-.43-1.28-.29-2.54-.58-3.82-.87-1.28-.29-2.54-.59-3.82-.89-1.27-.3-2.54-.6-3.81-.91-1.27-.31-2.53-.61-3.8-.93-1.27-.31-2.53-.62-3.8-.94-1.27-.32-2.53-.63-3.8-.95-.63-.16-1.27-.32-1.9-.48-.63-.16-1.27-.32-1.9-.48-1.26-.32-2.54-.64-3.8-.96-1.26-.32-2.54-.63-3.8-.95-.32-.08-.63-.16-.95-.23-.32-.08-.63-.16-.95-.23-.64-.16-1.27-.31-1.91-.46-1.27-.31-2.54-.6-3.81-.9-1.28-.29-2.55-.58-3.83-.86s-2.56-.55-3.84-.82c-1.28-.27-2.56-.52-3.85-.77-2.58-.5-5.15-.96-7.74-1.39-1.29-.22-2.59-.42-3.88-.62s-2.59-.39-3.89-.57c-.65-.09-1.3-.18-1.95-.27-.33-.04-.65-.09-.97-.13-.16-.02-.33-.04-.49-.06s-.33-.04-.49-.06c-1.3-.17-2.6-.33-3.9-.49-1.3-.16-2.59-.31-3.89-.46-1.29-.15-2.59-.29-3.89-.43-1.29-.14-2.59-.28-3.88-.41-1.29-.13-2.58-.26-3.87-.39-1.29-.13-2.58-.25-3.87-.37-1.29-.12-2.58-.24-3.86-.35-1.29-.11-2.58-.23-3.86-.33-1.29-.11-2.58-.21-3.87-.31-.65-.05-1.29-.1-1.94-.14-.32-.02-.65-.05-.97-.07-.32-.02-.65-.05-.97-.07-1.3-.09-2.6-.17-3.9-.25-1.31-.08-2.62-.15-3.93-.21-1.32-.06-2.64-.12-3.96-.16-1.33-.04-2.65-.08-3.98-.1-1.33-.02-2.67-.03-4-.03-1.34,0-2.68.02-4.02.06-1.34.04-2.68.09-4.02.17-1.34.08-2.68.17-4.01.3-1.33.12-2.65.27-3.98.45-.66.09-1.31.18-1.97.29-.16.03-.33.05-.49.08l-.12.02s-.08.01-.12.02l-.24.04c-.33.06-.65.11-.98.17-1.29.24-2.57.51-3.85.82-1.26.31-2.51.65-3.75,1.04-1.23.38-2.44.81-3.63,1.27-1.19.46-2.36.96-3.51,1.51-1.15.54-2.28,1.12-3.39,1.74s-2.2,1.27-3.27,1.96c-1.07.69-2.12,1.42-3.16,2.17-1.04.76-2.06,1.54-3.06,2.35-.5.41-1,.82-1.5,1.23-.5.42-.99.84-1.49,1.26-.49.43-.99.86-1.47,1.29-.49.43-.98.87-1.47,1.31-.49.44-.98.88-1.46,1.33s-.98.89-1.46,1.33c-.49.45-.97.89-1.46,1.34-.16.14-8.86,7.62-9.02,7.77l-.3.26c-.46.4-.92.81-1.38,1.21-.45.4-.89.8-1.34,1.2-.44.39-.87.79-1.31,1.19-.43.39-.85.78-1.28,1.18-.42.39-.83.77-1.25,1.16-.41.38-.82.77-1.23,1.15-.4.38-.8.76-1.21,1.14-.4.38-.79.75-1.19,1.13-.78.74-1.55,1.48-2.33,2.23-.38.37-.76.73-1.15,1.1l-1.14,1.09c-.38.36-.75.72-1.13,1.08-.37.36-.75.71-1.13,1.07-.37.35-.75.7-1.12,1.06-.37.35-.75.7-1.12,1.05-.41.38-.82.76-1.23,1.13-.41.38-.82.75-1.23,1.12-.82.74-1.64,1.48-2.46,2.22-.82.73-1.65,1.46-2.48,2.18-.83.72-1.66,1.43-2.5,2.14-.84.71-1.68,1.41-2.52,2.11-.42.35-.85.7-1.27,1.04-.42.35-.85.69-1.28,1.04-.85.69-1.71,1.38-2.57,2.06-.86.68-1.72,1.36-2.58,2.04-.86.68-1.73,1.36-2.6,2.03-.87.67-1.74,1.35-2.61,2.02s-1.75,1.34-2.62,2.01c-.87.67-1.75,1.34-2.62,2-.87.66-1.75,1.33-2.63,2-.87.66-1.76,1.33-2.63,1.99-1.73,1.31-3.53,2.67-5.27,3.98-.88.66-1.76,1.32-2.64,1.98s-1.76,1.32-2.64,1.98c-.44.33-.88.66-1.32.99-.44.33-.88.66-1.32.98-.88.66-1.77,1.31-2.65,1.96-1.78,1.31-3.54,2.6-5.33,3.89s-3.56,2.57-5.36,3.85c-1.8,1.28-3.58,2.54-5.39,3.8-.9.63-1.8,1.26-2.71,1.89-.9.63-1.81,1.25-2.71,1.88-.91.63-1.81,1.25-2.72,1.87-.91.63-1.81,1.24-2.72,1.87-.45.31-.91.62-1.36.93-.45.31-.91.62-1.36.93-.91.63-1.81,1.24-2.72,1.87-.91.63-1.81,1.25-2.72,1.87-.91.63-1.81,1.25-2.71,1.88-1.82,1.26-3.6,2.5-5.41,3.78-.9.63-1.8,1.26-2.7,1.9-.9.64-1.79,1.27-2.69,1.91-.9.64-1.79,1.27-2.69,1.91-.91.65-1.78,1.26-2.69,1.91-.89.63-1.8,1.28-2.69,1.91-.89.64-1.8,1.27-2.69,1.91-.9.63-1.8,1.27-2.7,1.9-.45.31-.9.63-1.35.94-.45.31-.9.63-1.35.94-.91.63-1.81,1.25-2.72,1.87-.91.62-1.82,1.23-2.73,1.84-.92.61-1.83,1.22-2.75,1.82-.92.6-1.84,1.2-2.76,1.8-.93.6-1.84,1.19-2.77,1.78-.46.3-.93.59-1.39.89-.46.29-.93.59-1.39.88-.46.3-.93.59-1.39.89-.46.29-.93.59-1.39.89-.92.59-1.86,1.18-2.78,1.78-.92.59-1.85,1.2-2.76,1.8-.92.6-1.83,1.22-2.74,1.84-.91.62-1.81,1.25-2.7,1.89s-1.78,1.29-2.65,1.96"/>
  <path class="uuid-d8cd2619-804b-4464-b77c-c5e9f59d7de6" d="M35.78,354.07c0,.65-.01,1.31-.01,1.96,0,.65,0,1.31,0,1.96s0,1.31,0,1.96,0,1.31,0,1.96c0,.65,0,1.31.01,1.97,0,.66,0,1.3.01,1.96,0,.66,0,1.31.01,1.97,0,.66,0,1.31,0,1.96,0,1.32,0,2.61,0,3.93,0,1.32,0,2.61-.01,3.92,0,.65,0,1.31-.01,1.96,0,.65-.01,1.3-.02,1.96,0,.66-.01,1.3-.02,1.96,0,.66-.01,1.3-.02,1.96,0,.65-.01,1.31-.02,1.96,0,.65-.01,1.31-.02,1.96,0,.65-.01,1.31-.01,1.96,0,.33,0,.65,0,.98,0,.16,0,.33,0,.49v.49c0,1.31,0,2.61.02,3.92.02,1.31.05,2.62.09,3.92.04,1.31.1,2.62.18,3.93.08,1.31.18,2.62.29,3.93.12,1.31.26,2.62.42,3.92s.36,2.61.57,3.9.46,2.59.74,3.88.58,2.57.92,3.84c.34,1.27.7,2.53,1.11,3.78.2.63.41,1.25.63,1.86.05.16.11.31.16.46.03.08.06.15.08.23l.08.23c.11.31.23.61.35.92.47,1.22.98,2.42,1.52,3.61.54,1.18,1.12,2.35,1.73,3.5.61,1.14,1.26,2.27,1.95,3.37.69,1.1,1.41,2.17,2.17,3.22,1.52,2.1,3.18,4.08,4.98,5.94,1.8,1.87,3.73,3.61,5.77,5.21,1.02.81,2.07,1.58,3.15,2.31.54.37,1.08.73,1.63,1.08.07.04.14.09.21.13.07.04.14.09.21.13.14.09.28.17.42.26.28.17.56.34.84.51,1.12.67,2.27,1.31,3.43,1.91,1.16.6,2.34,1.17,3.54,1.71,1.19.53,2.4,1.04,3.62,1.51,1.22.47,2.45.91,3.69,1.32,1.24.41,2.49.79,3.75,1.14,1.26.35,2.52.68,3.8.99,1.27.3,2.55.58,3.83.85,1.28.26,2.57.5,3.85.73,1.29.23,2.58.44,3.87.64.32.05.65.1.97.15.32.05.65.1.97.15.65.1,1.29.19,1.94.28.65.09,1.29.19,1.94.28.64.09,1.3.18,1.94.28.65.09,1.29.18,1.94.28.65.09,1.29.19,1.94.28,1.29.19,2.58.38,3.87.58,1.29.2,2.57.41,3.86.63,1.29.22,2.57.45,3.85.69,1.28.24,2.56.49,3.83.76,2.56.54,5.08,1.12,7.62,1.77,1.27.32,2.53.66,3.79,1.01.16.04.31.09.47.13l.47.13c.31.09.63.18.94.27.63.18,1.26.36,1.88.55,1.25.37,2.51.76,3.75,1.15,1.25.39,2.49.8,3.74,1.21,2.48.82,4.97,1.69,7.42,2.59,2.45.89,4.91,1.83,7.34,2.8,1.22.48,2.43.98,3.64,1.48,1.21.5,2.41,1.01,3.61,1.53,1.2.52,2.39,1.05,3.58,1.59l.45.2c.15.07.3.14.44.2.3.14.59.28.89.41.59.28,1.18.56,1.76.84,1.17.57,2.34,1.15,3.5,1.74,1.16.59,2.31,1.2,3.46,1.82,1.15.62,2.28,1.25,3.42,1.9,1.13.65,2.26,1.3,3.38,1.97,1.12.67,2.23,1.35,3.34,2.04,1.11.69,2.21,1.39,3.31,2.1,1.1.71,2.19,1.42,3.29,2.14.55.36,1.09.72,1.64,1.08s1.09.72,1.64,1.09c.55.37,1.08.72,1.64,1.09.27.18.54.36.82.54.27.18.54.36.82.54.55.36,1.09.72,1.64,1.08.55.36,1.09.72,1.64,1.08,1.1.71,2.19,1.42,3.3,2.12,1.11.7,2.21,1.39,3.33,2.06,1.12.68,2.24,1.34,3.37,1.98,1.13.65,5.65,3.03,6.8,3.65.46.24.93.48,1.39.72s.93.49,1.39.73c.46.24.93.49,1.39.73.46.24.94.49,1.4.74.47.25.93.49,1.4.74.47.24.93.49,1.39.73.47.24.93.49,1.39.73.46.24.93.48,1.39.73.47.24.93.49,1.4.73.47.24.93.48,1.39.72.47.24.93.48,1.39.72.47.24.93.48,1.39.72.23.12.46.24.7.36.12.06.23.12.35.18.12.06.23.12.35.18.47.24.93.48,1.4.72.47.24.93.48,1.4.73.47.24.94.49,1.4.73.46.24.92.48,1.38.73.46.24.92.49,1.38.74.46.25.92.5,1.38.75s.92.51,1.38.77c.92.52,1.83,1.05,2.73,1.59s1.8,1.11,2.68,1.69c.45.3.89.6,1.33.9.22.15.44.31.65.46.05.04.11.08.16.12.05.04.11.08.16.12.11.08.21.16.32.24.85.63,1.67,1.29,2.47,1.99.78.68,1.54,1.4,2.26,2.15.71.74,1.38,1.52,2.02,2.33.64.82,1.24,1.66,1.79,2.54.55.88,1.06,1.79,1.53,2.72.24.47.46.94.68,1.42.22.48.42.97.62,1.46.05.12.1.25.15.37.01.03.02.06.04.09.01.03.02.06.04.09.02.06.05.12.07.19.1.25.19.5.28.75.18.5.36,1.01.53,1.52.17.49.33.99.48,1.48.15.5.3,1,.45,1.5.29,1.01.56,2.03.81,3.05.25,1.02.49,2.06.7,3.08.11.51.21,1.03.3,1.55.1.52.18,1.03.27,1.55.08.53.16,1.06.23,1.59.07.53.13,1.05.18,1.58.05.52.09,1.05.11,1.58v.2s.01.06.01.1c0,.03,0,.07,0,.1,0,.13,0,.26.01.39,0,.26.01.52.01.78,0,.52-.01,1.04-.04,1.56-.03.52-.07,1.04-.12,1.55-.06.52-.12,1.03-.21,1.54-.08.52-.18,1.03-.29,1.54-.11.51-.22,1.01-.35,1.52-.13.51-.26,1.01-.4,1.51-.07.25-.14.5-.21.76s-.14.5-.22.76c-.07.25-.14.51-.22.76-.07.25-.14.51-.21.76-.07.25-.14.51-.21.76s-.13.51-.19.76c-.12.51-.24,1.02-.34,1.54-.1.52-.18,1.04-.23,1.56-.05.53-.08,1.06-.07,1.59"/>
  <path class="uuid-d8cd2619-804b-4464-b77c-c5e9f59d7de6" d="M35.78,354.07c0,.65-.01,1.31-.01,1.96,0,.65,0,1.31,0,1.96s0,1.31,0,1.96,0,1.31,0,1.96c0,.65,0,1.31.01,1.97,0,.66,0,1.3.01,1.96,0,.66,0,1.31.01,1.97,0,.66,0,1.31,0,1.96,0,1.32,0,2.61,0,3.93,0,1.32,0,2.61-.01,3.92,0,.65,0,1.31-.01,1.96,0,.65-.01,1.3-.02,1.96,0,.66-.01,1.3-.02,1.96,0,.66-.01,1.3-.02,1.96,0,.65-.01,1.31-.02,1.96,0,.65-.01,1.31-.02,1.96,0,.65-.01,1.31-.01,1.96,0,.33,0,.65,0,.98,0,.16,0,.33,0,.49v.49c0,1.31,0,2.61.02,3.92.02,1.31.05,2.62.09,3.92.04,1.31.1,2.62.18,3.93.08,1.31.18,2.62.29,3.93.12,1.31.26,2.62.42,3.92s.36,2.61.57,3.9.46,2.59.74,3.88.58,2.57.92,3.84c.34,1.27.7,2.53,1.11,3.78.2.63.41,1.25.63,1.86.05.16.11.31.16.46.03.08.06.15.08.23l.08.23c.11.31.23.61.35.92.47,1.22.98,2.42,1.52,3.61.54,1.18,1.12,2.35,1.73,3.5.61,1.14,1.26,2.27,1.95,3.37.69,1.1,1.41,2.17,2.17,3.22,1.52,2.1,3.18,4.08,4.98,5.94,1.8,1.87,3.73,3.61,5.77,5.21,1.02.81,2.07,1.58,3.15,2.31.54.37,1.08.73,1.63,1.08.07.04.14.09.21.13.07.04.14.09.21.13.14.09.28.17.42.26.28.17.56.34.84.51,1.12.67,2.27,1.31,3.43,1.91,1.16.6,2.34,1.17,3.54,1.71,1.19.53,2.4,1.04,3.62,1.51,1.22.47,2.45.91,3.69,1.32,1.24.41,2.49.79,3.75,1.14,1.26.35,2.52.68,3.8.99,1.27.3,2.55.58,3.83.85,1.28.26,2.57.5,3.85.73,1.29.23,2.58.44,3.87.64.32.05.65.1.97.15.32.05.65.1.97.15.65.1,1.29.19,1.94.28.65.09,1.29.19,1.94.28.64.09,1.3.18,1.94.28.65.09,1.29.18,1.94.28.65.09,1.29.19,1.94.28,1.29.19,2.58.38,3.87.58,1.29.2,2.57.41,3.86.63,1.29.22,2.57.45,3.85.69,1.28.24,2.56.49,3.83.76,2.56.54,5.08,1.12,7.62,1.77,1.27.32,2.53.66,3.79,1.01.16.04.31.09.47.13l.47.13c.31.09.63.18.94.27.63.18,1.26.36,1.88.55,1.25.37,2.51.76,3.75,1.15,1.25.39,2.49.8,3.74,1.21,2.48.82,4.97,1.69,7.42,2.59,2.45.89,4.91,1.83,7.34,2.8,1.22.48,2.43.98,3.64,1.48,1.21.5,2.41,1.01,3.61,1.53,1.2.52,2.39,1.05,3.58,1.59l.45.2c.15.07.3.14.44.2.3.14.59.28.89.41.59.28,1.18.56,1.76.84,1.17.57,2.34,1.15,3.5,1.74,1.16.59,2.31,1.2,3.46,1.82,1.15.62,2.28,1.25,3.42,1.9,1.13.65,2.26,1.3,3.38,1.97,1.12.67,2.23,1.35,3.34,2.04,1.11.69,2.21,1.39,3.31,2.1,1.1.71,2.19,1.42,3.29,2.14.55.36,1.09.72,1.64,1.08s1.09.72,1.64,1.09c.55.37,1.08.72,1.64,1.09.27.18.54.36.82.54.27.18.54.36.82.54.55.36,1.09.72,1.64,1.08.55.36,1.09.72,1.64,1.08,1.1.71,2.19,1.42,3.3,2.12,1.11.7,2.21,1.39,3.33,2.06,1.12.68,2.24,1.34,3.37,1.98,1.13.65,5.71,3.06,6.86,3.68l-.06-.03c.17.09.35.18.52.27l.51.26c.17.08.33.17.5.25.16.08.32.16.49.24.16.08.32.16.48.24.16.08.31.15.47.23.15.07.31.15.46.22.15.07.3.14.45.21l.44.21c.14.07.29.13.43.2.28.13.57.26.85.39.27.12.55.25.82.37.27.12.53.24.8.36l.78.35c.26.11.51.23.77.34.25.11.51.22.76.34.25.11.5.22.75.34.25.11.5.22.74.33.25.11.49.22.74.33.49.22.98.45,1.47.68.27.12.53.25.79.37.27.12.53.25.8.37.27.13.53.25.8.38.27.13.54.26.8.38.27.13.54.26.81.39.27.13.54.26.82.39.27.13.55.26.82.39.28.13.55.26.83.39.28.13.55.26.83.39.28.13.56.26.84.39.57.26,1.13.51,1.7.76.57.25,1.14.49,1.72.73.58.24,1.16.47,1.74.7.56.22,1.13.44,1.7.65.57.21,1.14.42,1.71.62.57.2,1.15.4,1.72.6.58.19,1.15.39,1.73.57.58.19,1.16.37,1.74.56.29.09.58.19.87.28l.87.28c.58.19,1.16.37,1.74.56s1.16.38,1.74.58c.54.18,1.09.37,1.63.56.54.19,1.09.39,1.63.59.27.1.54.2.82.31.27.11.55.21.82.32.28.11.55.22.82.33.28.11.55.23.83.34.28.12.55.23.83.35.28.12.56.24.84.36.28.12.57.25.85.37.29.13.57.26.86.39.29.13.58.27.87.4.29.14.59.27.88.41.6.29,1.21.58,1.81.87.24.11.47.23.71.34.06.03.12.06.18.09.01,0,.03.01.04.02.01,0,.03.01.04.02.03.01.06.03.09.04.12.06.24.12.36.18.24.12.49.24.73.36l.74.37c.25.13.51.25.76.38.26.13.52.26.77.39s.53.26.79.4c.27.13.54.27.81.4.27.14.55.28.82.41.28.14.56.28.84.42.29.14.57.29.86.43l.87.43.89.44c.3.15.6.3.91.45.31.15.61.3.92.46.31.15.63.31.94.46.52.25,1.03.51,1.55.76.53.26,1.06.51,1.59.77.54.26,1.08.52,1.62.78.55.26,1.1.53,1.65.79,1.12.53,2.24,1.06,3.37,1.59,1.14.53,2.28,1.06,3.42,1.59.59.27,1.18.54,1.77.81.15.07.29.13.44.2.07.03.15.07.22.1.04.02.07.03.11.05.04.02.07.03.11.05.29.13.58.27.88.4,1.15.52,2.29,1.03,3.44,1.55.55.25,1.11.49,1.67.74.54.24,1.08.48,1.62.71.52.23,1.05.46,1.57.68.51.22,1.01.44,1.52.66.34.15.69.3,1.03.45.34.14.67.29,1.01.43.33.14.65.28.98.42.32.13.63.27.95.4.31.13.61.26.92.39.3.13.59.25.89.38.29.12.57.24.86.36.28.12.56.24.83.35.27.11.54.23.81.35.26.11.52.22.78.34.25.11.51.22.76.33.25.11.49.22.74.33.24.11.48.22.73.33.24.11.47.22.71.32.47.22.93.43,1.39.66"/>
  <path class="uuid-d8cd2619-804b-4464-b77c-c5e9f59d7de6" d="M35.78,354.07c0,.65-.01,1.31-.01,1.96,0,.65,0,1.31,0,1.96s0,1.31,0,1.96,0,1.31,0,1.96c0,.65,0,1.31.01,1.97,0,.66,0,1.3.01,1.96,0,.66,0,1.31.01,1.97,0,.66,0,1.31,0,1.96,0,1.32,0,2.61,0,3.93,0,1.32,0,2.61-.01,3.92,0,.65,0,1.31-.01,1.96,0,.65-.01,1.3-.02,1.96,0,.66-.01,1.3-.02,1.96,0,.66-.01,1.3-.02,1.96,0,.65-.01,1.31-.02,1.96,0,.65-.01,1.31-.02,1.96,0,.65-.01,1.31-.01,1.96,0,.33,0,.65,0,.98,0,.16,0,.33,0,.49v.49c0,1.31,0,2.61.02,3.92.02,1.31.05,2.62.09,3.92.04,1.31.1,2.62.18,3.93.08,1.31.18,2.62.29,3.93.12,1.31.26,2.62.42,3.92s.36,2.61.57,3.9.46,2.59.74,3.88.58,2.57.92,3.84c.34,1.27.7,2.53,1.11,3.78.2.63.41,1.25.63,1.86.05.16.11.31.16.46.03.08.06.15.08.23l.08.23c.11.31.23.61.35.92.47,1.22.98,2.42,1.52,3.61.54,1.18,1.12,2.35,1.73,3.5.61,1.14,1.26,2.27,1.95,3.37.69,1.1,1.41,2.17,2.17,3.22,1.52,2.1,3.18,4.08,4.98,5.94,1.8,1.87,3.73,3.61,5.77,5.21,1.02.81,2.07,1.58,3.15,2.31.54.37,1.08.73,1.63,1.08.07.04.14.09.21.13.07.04.14.09.21.13.14.09.28.17.42.26.28.17.56.34.84.51,1.12.67,2.27,1.31,3.43,1.91,1.16.6,2.34,1.17,3.54,1.71,1.19.53,2.4,1.04,3.62,1.51,1.22.47,2.45.91,3.69,1.32,1.24.41,2.49.79,3.75,1.14,1.26.35,2.52.68,3.8.99,1.27.3,2.55.58,3.83.85,1.28.26,2.57.5,3.85.73,1.29.23,2.58.44,3.87.64.32.05.65.1.97.15.32.05.65.1.97.15.65.1,1.29.19,1.94.28.65.09,1.29.19,1.94.28.64.09,1.3.18,1.94.28.65.09,1.29.18,1.94.28.65.09,1.29.19,1.94.28,1.29.19,2.58.38,3.87.58,1.29.2,2.57.41,3.86.63,1.29.22,2.57.45,3.85.69,1.28.24,2.56.49,3.83.76,2.56.54,5.08,1.12,7.62,1.77,1.27.32,2.53.66,3.79,1.01.16.04.31.09.47.13l.47.13c.31.09.63.18.94.27.63.18,1.26.36,1.88.55,1.25.37,2.51.76,3.75,1.15,1.25.39,2.49.8,3.74,1.21,2.48.82,4.97,1.69,7.42,2.59,2.45.89,4.91,1.83,7.34,2.8,1.22.48,2.43.98,3.64,1.48,1.21.5,2.41,1.01,3.61,1.53,1.2.52,2.39,1.05,3.58,1.59l.45.2c.15.07.3.14.44.2.3.14.59.28.89.41.59.28,1.18.56,1.76.84,1.17.57,2.34,1.15,3.5,1.74,1.16.59,2.31,1.2,3.46,1.82,1.15.62,2.28,1.25,3.42,1.9,0,0,1.88-1.94,2.84-2.93.94-.98,1.85-1.99,2.72-3.02.44-.52.87-1.05,1.3-1.59.42-.53.84-1.08,1.25-1.62.41-.55.81-1.1,1.21-1.65s.79-1.11,1.18-1.67c.39-.56.77-1.13,1.15-1.69.38-.57.75-1.14,1.12-1.71.37-.57.74-1.15,1.1-1.73.36-.58.73-1.16,1.09-1.74.36-.58.71-1.16,1.07-1.75.35-.58.71-1.17,1.06-1.75.7-1.17,1.4-2.36,2.08-3.53.68-1.18,1.37-2.37,2.03-3.56.34-.59.67-1.19,1-1.79.33-.6.66-1.19.98-1.79.33-.6.65-1.2.97-1.81.32-.6.64-1.21.95-1.81s.62-1.21.93-1.82c.3-.61.6-1.22.9-1.84.29-.62.58-1.23.87-1.86.28-.62.56-1.24.83-1.87s.53-1.26.78-1.89c.25-.63.5-1.27.73-1.91.47-1.28.89-2.57,1.26-3.87.38-1.32.7-2.65.96-4"/>
  <path class="uuid-d8cd2619-804b-4464-b77c-c5e9f59d7de6" d="M35.78,354.07c0,.65-.01,1.31-.01,1.96,0,.65,0,1.31,0,1.96s0,1.31,0,1.96,0,1.31,0,1.96c0,.65,0,1.31.01,1.97,0,.66,0,1.3.01,1.96,0,.66,0,1.31.01,1.97,0,.66,0,1.31,0,1.96,0,1.32,0,2.61,0,3.93,0,1.32,0,2.61-.01,3.92,0,.65,0,1.31-.01,1.96,0,.65-.01,1.3-.02,1.96,0,.66-.01,1.3-.02,1.96,0,.66-.01,1.3-.02,1.96,0,.65-.01,1.31-.02,1.96,0,.65-.01,1.31-.02,1.96,0,.65-.01,1.31-.01,1.96,0,.33,0,.65,0,.98,0,.16,0,.33,0,.49v.49c0,1.31,0,2.61.02,3.92.02,1.31.05,2.62.09,3.92.04,1.31.1,2.62.18,3.93.08,1.31.18,2.62.29,3.93.12,1.31.26,2.62.42,3.92s.36,2.61.57,3.9.46,2.59.74,3.88.58,2.57.92,3.84c.34,1.27.7,2.53,1.11,3.78.2.63.41,1.25.63,1.86.05.16.11.31.16.46.03.08.06.15.08.23l.08.23c.11.31.23.61.35.92.47,1.22.98,2.42,1.52,3.61.54,1.18,1.12,2.35,1.73,3.5.61,1.14,1.26,2.27,1.95,3.37.69,1.1,1.41,2.17,2.17,3.22,1.52,2.1,3.18,4.08,4.98,5.94,1.8,1.87,3.73,3.61,5.77,5.21,1.02.81,2.07,1.58,3.15,2.31.54.37,1.08.73,1.63,1.08.07.04.14.09.21.13.07.04.14.09.21.13.14.09.28.17.42.26.28.17.56.34.84.51,1.12.67,2.27,1.31,3.43,1.91,1.16.6,2.34,1.17,3.54,1.71,1.19.53,2.4,1.04,3.62,1.51,1.22.47,2.45.91,3.69,1.32,1.24.41,2.49.79,3.75,1.14,1.26.35,2.52.68,3.8.99,1.27.3,2.55.58,3.83.85,1.28.26,2.57.5,3.85.73,1.29.23,2.58.44,3.87.64.32.05.65.1.97.15.32.05.65.1.97.15.65.1,1.29.19,1.94.28.65.09,1.29.19,1.94.28.64.09,1.3.18,1.94.28.65.09,1.29.18,1.94.28.65.09,1.29.19,1.94.28,1.29.19,2.58.38,3.87.58,1.29.2,2.57.41,3.86.63,1.29.22,2.57.45,3.85.69,1.28.24,2.56.49,3.83.76,2.56.54,5.08,1.12,7.62,1.77,1.27.32,2.53.66,3.79,1.01.16.04.31.09.47.13l.47.13c.31.09.63.18.94.27.63.18,1.26.36,1.88.55,1.25.37,2.51.76,3.75,1.15,1.25.39,2.49.8,3.74,1.21,2.48.82,4.97,1.69,7.42,2.59,2.45.89,4.91,1.83,7.34,2.8,1.22.48,2.43.98,3.64,1.48,1.21.5,2.41,1.01,3.61,1.53,1.2.52,2.39,1.05,3.58,1.59l.45.2c.15.07.3.14.44.2.3.14.59.28.89.41.59.28,1.18.56,1.76.84,1.17.57,2.34,1.15,3.5,1.74,1.16.59,2.31,1.2,3.46,1.82,1.15.62,2.28,1.25,3.42,1.9,1.13.65,2.26,1.3,3.38,1.97,1.12.67,2.23,1.35,3.34,2.04,1.11.69,2.21,1.39,3.31,2.1,1.1.71,2.19,1.42,3.29,2.14.55.36,1.09.72,1.64,1.08s1.09.72,1.64,1.09c.55.37,1.08.72,1.64,1.09.27.18.54.36.82.54.27.18.54.36.82.54.55.36,1.09.72,1.64,1.08.55.36,1.09.72,1.64,1.08,1.1.71,2.19,1.42,3.3,2.12,1.11.7,2.21,1.39,3.33,2.06,1.12.68,2.24,1.34,3.37,1.98,1.13.65,2.27,1.28,3.42,1.89,1.15.62,2.3,1.21,3.47,1.8,1.17.58,2.34,1.15,3.52,1.69,2.37,1.1,4.76,2.11,7.19,3.06.61.24,1.22.47,1.83.7.31.11.61.23.92.34.15.06.31.11.46.17.15.06.31.11.46.17,1.23.44,2.47.86,3.71,1.27,2.48.82,4.99,1.58,7.51,2.29,2.52.71,5.06,1.37,7.6,2,2.54.62,5.1,1.21,7.65,1.76,2.55.55,5.12,1.07,7.69,1.57.64.12,1.28.25,1.93.37.32.06.64.12.96.18.32.06.64.12.96.18,1.28.24,2.57.47,3.86.7,1.29.23,2.57.46,3.86.68,1.29.22,2.58.44,3.86.65,2.57.43,5.17.85,7.74,1.26,2.57.41,5.17.81,7.75,1.19,2.58.39,5.19.77,7.76,1.13.65.09,1.3.18,1.94.27.65.09,1.3.18,1.94.26,1.3.17,2.59.35,3.89.51,2.61.33,5.18.65,7.79.95,1.3.15,2.6.3,3.9.44,1.3.14,2.6.28,3.9.42,1.3.14,2.6.27,3.9.4,1.31.13,2.6.26,3.9.39.65.06,1.3.13,1.95.19.65.06,1.3.13,1.95.19,1.3.13,2.61.26,3.9.39.33.03.65.07.98.1.33.03.65.07.98.1.65.07,1.3.14,1.95.21,1.3.14,2.6.28,3.9.43,1.3.15,2.6.3,3.9.46,1.3.16,2.59.33,3.89.5,2.61.35,5.17.73,7.77,1.13,1.3.2,2.59.41,3.88.63,1.29.22,2.58.44,3.87.67s2.58.46,3.87.7c1.29.24,2.57.48,3.86.72l.48.09.48.09.96.18c.64.12,1.29.25,1.93.37.64.12,1.29.25,1.93.37.64.12,1.28.25,1.93.37,1.29.24,2.56.48,3.85.73,1.29.24,2.56.48,3.85.71,1.29.24,2.56.46,3.85.69,1.28.23,2.56.45,3.85.67,1.29.22,2.56.44,3.85.66,1.29.22,2.56.43,3.85.64.64.11,1.28.21,1.92.32.64.11,1.28.21,1.93.32.64.11,1.28.21,1.93.32.64.11,1.29.22,1.93.32.64.11,1.29.22,1.93.33.64.11,1.29.22,1.93.33.65.11,1.29.23,1.94.34.65.12,1.29.23,1.94.35.65.12,1.29.24,1.94.36.65.12,1.29.24,1.94.37.65.12,1.3.25,1.94.38.65.13,1.3.26,1.95.39.65.13,1.3.26,1.95.4.65.13,1.3.27,1.95.4s1.3.27,1.95.41c.65.14,1.3.27,1.95.41.65.14,1.31.28,1.96.41.65.14,1.31.27,1.96.41.65.14,1.31.27,1.96.4.65.13,1.31.27,1.96.4s1.31.26,1.96.38c.65.13,1.3.25,1.96.37.65.12,1.3.24,1.96.35.33.06.65.11.98.17l.24.04c.08.01.16.03.24.04l.49.08c1.3.2,2.6.39,3.91.55,1.3.16,2.59.29,3.89.39,1.29.1,2.58.17,3.88.21,1.28.03,2.57.03,3.85,0,1.28-.04,2.55-.12,3.82-.24,1.27-.12,2.53-.29,3.78-.49,1.25-.21,2.5-.46,3.74-.75,1.24-.29,2.47-.63,3.68-1.01,1.22-.38,2.42-.8,3.62-1.27.6-.23,1.19-.48,1.78-.73.15-.06.3-.13.44-.19.04-.02.07-.03.11-.05.04-.02.07-.03.11-.05l.22-.1c.29-.13.59-.27.88-.4,1.17-.55,2.32-1.13,3.46-1.75,1.14-.62,2.26-1.28,3.37-1.96,1.11-.69,2.2-1.41,3.28-2.16,1.08-.75,2.14-1.53,3.19-2.32,1.05-.8,2.08-1.62,3.1-2.46,1.02-.84,2.03-1.7,3.03-2.57.5-.43,1-.87,1.49-1.31.49-.44.99-.88,1.48-1.33s.98-.89,1.47-1.33c.49-.45.98-.89,1.46-1.34.49-.44.98-.89,1.46-1.33s.97-.89,1.46-1.33c.49-.44.98-.88,1.47-1.31.49-.43.98-.86,1.47-1.29.49-.42.99-.85,1.49-1.26.5-.42,1-.83,1.5-1.23,1-.81,2.02-1.59,3.06-2.35,1.03-.75,2.08-1.48,3.16-2.17,1.07-.69,2.16-1.34,3.27-1.96s2.24-1.2,3.39-1.74c1.15-.54,2.32-1.05,3.51-1.51,1.2-.47,2.41-.89,3.63-1.27,1.24-.39,2.49-.73,3.75-1.04,1.27-.31,2.56-.58,3.85-.82.33-.06.65-.12.98-.17l.24-.04s.08-.01.12-.02l.12-.02c.16-.03.33-.05.49-.08.66-.1,1.31-.2,1.97-.29,1.32-.18,2.65-.33,3.98-.45,1.33-.12,2.67-.22,4.01-.3,1.34-.08,2.68-.13,4.02-.17,1.34-.04,2.68-.06,4.02-.06,1.33,0,2.67,0,4,.03,1.33.02,2.66.06,3.98.1,1.32.04,2.64.1,3.96.16,1.31.06,2.62.13,3.93.21,1.3.08,2.6.16,3.9.25.32.02.65.04.97.07.32.02.65.05.97.07.65.05,1.29.1,1.94.14,1.29.1,2.58.2,3.87.31,1.29.11,2.58.22,3.86.33,1.29.11,2.58.23,3.86.35,1.29.12,2.58.25,3.87.37,1.29.13,2.58.26,3.87.39,1.29.13,2.59.27,3.88.41,1.29.14,2.59.29,3.89.43,1.3.15,2.6.3,3.89.46,1.3.16,2.6.32,3.9.49.16.02.33.04.49.06s.33.04.49.06c.33.04.65.09.97.13.65.09,1.3.18,1.95.27,1.3.18,2.59.37,3.89.57s2.59.4,3.88.62c2.59.43,5.16.89,7.74,1.39,1.29.25,2.57.51,3.85.77,1.28.27,2.56.54,3.84.82s2.55.57,3.83.86c1.27.29,2.54.59,3.81.9.64.15,1.27.31,1.91.46.32.08.63.16.95.23.32.08.63.16.95.23,1.27.31,2.54.63,3.8.95,1.26.32,2.54.64,3.8.96.63.16,1.27.32,1.9.48.63.16,1.27.32,1.9.48,1.27.32,2.53.64,3.8.95,1.27.32,2.53.63,3.8.94,1.27.31,2.53.62,3.8.93,1.27.31,2.54.61,3.81.91,1.27.3,2.54.6,3.82.89,1.28.3,2.54.59,3.82.87.64.14,1.27.29,1.91.43.32.07.64.14.96.22.32.07.64.14.96.21,1.27.28,2.55.57,3.83.85,1.27.28,2.56.56,3.83.84,1.27.28,2.56.56,3.83.84,1.27.28,2.56.56,3.83.83,1.27.28,2.56.55,3.83.83,1.27.27,2.56.55,3.83.82,1.27.27,2.56.55,3.83.82,1.28.27,2.56.54,3.84.81,1.28.27,2.56.53,3.84.79.64.13,1.28.26,1.92.39.32.06.64.13.96.19.32.06.64.13.96.19,1.28.25,2.56.5,3.85.75,1.28.24,2.57.48,3.85.71,1.29.23,2.57.46,3.86.68,2.58.44,5.14.86,7.73,1.25,1.29.2,2.58.39,3.87.57,1.29.18,2.58.36,3.88.53,1.3.17,2.59.34,3.88.51,1.3.16,2.59.32,3.89.48.32.04.65.08.97.12.32.04.65.08.97.12.65.08,1.3.15,1.95.23,1.29.15,2.6.3,3.89.45.65.07,1.3.15,1.95.22.65.07,1.3.15,1.95.22.65.07,1.3.15,1.95.22.65.07,1.3.15,1.95.22,1.31.15,2.59.29,3.9.45,1.31.15,2.59.3,3.9.45,1.32.15,2.58.3,3.9.45.65.08,1.3.15,1.95.23.65.08,1.3.15,1.95.23,1.29.15,2.61.3,3.9.45,1.29.15,2.6.3,3.9.44.32.04.65.07.97.11.16.02.32.04.49.05.16.02.32.04.49.05.65.07,1.3.14,1.95.21,1.3.14,2.59.28,3.9.41,1.3.13,2.6.26,3.9.38,1.3.12,2.6.23,3.9.34,2.61.22,5.19.41,7.81.58,1.3.08,2.6.16,3.91.23,1.31.07,2.6.14,3.91.2,1.31.06,2.61.12,3.91.18,1.31.05,2.61.11,3.92.15.16,0,.33.01.49.02.16,0,.33.01.49.02.33.01.65.02.98.04.65.02,1.31.05,1.96.07.65.02,1.31.05,1.96.07s1.31.05,1.96.07c.65.02,1.31.04,1.96.07.65.02,1.31.04,1.96.06.65.02,1.31.04,1.96.06.65.02,1.31.04,1.96.06.65.02,1.31.03,1.96.05.65.01,1.31.03,1.96.04.65.01,1.31.02,1.96.02.65,0,1.31,0,1.96,0,1.3,0,2.61-.02,3.91-.06,1.3-.04,2.61-.1,3.91-.19,1.3-.09,2.6-.2,3.89-.36,1.3-.16,2.59-.35,3.88-.59"/>
</svg>