<svg width="1920" height="1080" viewBox="0 0 1920 1080" fill="none" xmlns="http://www.w3.org/2000/svg">
<g clip-path="url(#clip0_382_389)">
<path d="M912.247 627.92C910.957 628.16 909.667 628.36 908.367 628.51C907.077 628.67 905.777 628.78 904.477 628.87C903.177 628.96 901.877 629.02 900.567 629.06C899.267 629.1 897.957 629.12 896.657 629.12C896.007 629.12 895.347 629.12 894.697 629.12C894.047 629.12 893.387 629.11 892.737 629.1C892.087 629.09 891.427 629.08 890.777 629.06C890.127 629.05 889.467 629.03 888.817 629.01C888.167 628.99 887.507 628.97 886.857 628.95C886.207 628.93 885.547 628.91 884.897 628.89C884.247 628.87 883.587 628.85 882.937 628.83C882.287 628.81 881.627 628.78 880.977 628.76C880.327 628.74 879.667 628.71 879.017 628.69C878.367 628.67 877.707 628.64 877.057 628.62C876.407 628.6 875.747 628.57 875.097 628.55C874.767 628.54 874.447 628.53 874.117 628.51C873.957 628.51 873.787 628.5 873.627 628.49C873.467 628.49 873.297 628.48 873.137 628.47C871.827 628.42 870.527 628.37 869.217 628.32C867.907 628.27 866.607 628.21 865.307 628.14C863.997 628.08 862.707 628.01 861.397 627.94C860.097 627.87 858.797 627.79 857.487 627.71C854.867 627.54 852.287 627.35 849.677 627.13C848.377 627.02 847.077 626.91 845.777 626.79C844.477 626.67 843.177 626.54 841.877 626.41C840.577 626.28 839.277 626.14 837.977 626C837.327 625.93 836.677 625.86 836.027 625.79C835.867 625.77 835.697 625.75 835.537 625.74C835.377 625.72 835.207 625.7 835.047 625.69C834.717 625.65 834.397 625.62 834.077 625.58C832.787 625.44 831.477 625.29 830.177 625.14C828.887 624.99 827.567 624.84 826.277 624.69C825.627 624.62 824.977 624.54 824.327 624.46C823.677 624.38 823.027 624.31 822.377 624.23C821.057 624.08 819.797 623.93 818.477 623.78C817.167 623.63 815.887 623.48 814.577 623.33C813.267 623.18 811.987 623.03 810.677 622.88C810.027 622.81 809.377 622.73 808.727 622.66C808.077 622.59 807.427 622.51 806.777 622.44C806.127 622.37 805.477 622.29 804.827 622.22C804.177 622.15 803.527 622.07 802.877 622C801.587 621.85 800.277 621.7 798.987 621.55C798.337 621.47 797.687 621.4 797.037 621.32C796.707 621.28 796.387 621.24 796.067 621.2C795.737 621.16 795.417 621.12 795.097 621.08C793.797 620.92 792.507 620.77 791.207 620.6C789.907 620.44 788.617 620.27 787.327 620.09C786.037 619.92 784.737 619.74 783.447 619.56C782.157 619.38 780.867 619.19 779.577 618.99C776.987 618.6 774.427 618.18 771.847 617.74C770.557 617.52 769.277 617.29 767.987 617.06C766.697 616.83 765.417 616.59 764.137 616.35C762.857 616.11 761.577 615.86 760.287 615.6C759.967 615.54 759.647 615.47 759.327 615.41C759.007 615.35 758.687 615.28 758.367 615.22C757.727 615.09 757.087 614.96 756.447 614.83C755.167 614.57 753.887 614.3 752.607 614.04C751.327 613.77 750.047 613.5 748.767 613.23C747.487 612.96 746.207 612.69 744.937 612.41C743.667 612.14 742.377 611.86 741.107 611.59C739.837 611.32 738.547 611.04 737.277 610.76C736.007 610.48 734.717 610.2 733.447 609.93C732.177 609.65 730.887 609.37 729.617 609.09C728.347 608.81 727.057 608.53 725.787 608.25C724.517 607.97 723.227 607.68 721.957 607.4C721.637 607.33 721.317 607.26 720.997 607.19C720.677 607.12 720.357 607.05 720.037 606.97C719.397 606.83 718.767 606.68 718.127 606.54C716.847 606.25 715.587 605.96 714.307 605.67C713.027 605.38 711.767 605.08 710.487 604.78C709.217 604.48 707.947 604.18 706.677 603.87C705.407 603.56 704.147 603.26 702.877 602.94C701.607 602.63 700.347 602.32 699.077 602C697.807 601.68 696.547 601.37 695.277 601.05C694.647 600.89 694.007 600.73 693.377 600.57C692.747 600.41 692.107 600.25 691.477 600.09C690.217 599.77 688.937 599.45 687.677 599.13C686.417 598.81 685.137 598.5 683.877 598.18C683.557 598.1 683.247 598.02 682.927 597.95C682.607 597.87 682.297 597.79 681.977 597.72C681.337 597.56 680.707 597.41 680.067 597.26C678.797 596.95 677.527 596.66 676.257 596.36C674.977 596.07 673.707 595.78 672.427 595.5C671.147 595.22 669.867 594.95 668.587 594.68C667.307 594.41 666.027 594.16 664.737 593.91C662.157 593.41 659.587 592.95 656.997 592.52C655.707 592.3 654.407 592.1 653.117 591.9C651.827 591.7 650.527 591.51 649.227 591.33C648.577 591.24 647.927 591.15 647.277 591.06C646.947 591.02 646.627 590.97 646.307 590.93C646.147 590.91 645.977 590.89 645.817 590.87C645.657 590.85 645.487 590.83 645.327 590.81C644.027 590.64 642.727 590.48 641.427 590.32C640.127 590.16 638.837 590.01 637.537 589.86C636.247 589.71 634.947 589.57 633.647 589.43C632.357 589.29 631.057 589.15 629.767 589.02C628.477 588.89 627.187 588.76 625.897 588.63C624.607 588.5 623.317 588.38 622.027 588.26C620.737 588.14 619.447 588.02 618.167 587.91C616.877 587.8 615.587 587.68 614.307 587.58C613.017 587.47 611.727 587.37 610.437 587.27C609.787 587.22 609.147 587.17 608.497 587.13C608.177 587.11 607.847 587.08 607.527 587.06C607.207 587.04 606.877 587.01 606.557 586.99C605.257 586.9 603.957 586.82 602.657 586.74C601.347 586.66 600.037 586.59 598.727 586.53C597.407 586.47 596.087 586.41 594.767 586.37C593.437 586.33 592.117 586.29 590.787 586.27C589.457 586.25 588.117 586.24 586.787 586.24C585.447 586.24 584.107 586.26 582.767 586.3C581.427 586.34 580.087 586.39 578.747 586.47C577.407 586.55 576.067 586.64 574.737 586.77C573.407 586.89 572.087 587.04 570.757 587.22C570.097 587.31 569.447 587.4 568.787 587.51C568.627 587.54 568.457 587.56 568.297 587.59L568.177 587.61C568.177 587.61 568.097 587.62 568.057 587.63L567.817 587.67C567.487 587.73 567.167 587.78 566.837 587.84C565.547 588.08 564.267 588.35 562.987 588.66C561.727 588.97 560.477 589.31 559.237 589.7C558.007 590.08 556.797 590.51 555.607 590.97C554.417 591.43 553.217 591.95 552.067 592.49C551.967 591.61 551.927 590.73 551.927 589.85C551.927 589.41 551.937 588.97 551.957 588.52C551.977 588.07 552.007 587.63 552.037 587.19C552.067 586.74 552.107 586.3 552.157 585.85C552.207 585.4 552.257 584.95 552.307 584.5C552.337 584.27 552.367 584.04 552.387 583.82C552.417 583.59 552.447 583.36 552.477 583.13C552.507 582.9 552.537 582.67 552.567 582.44C552.597 582.21 552.627 581.98 552.657 581.74C552.687 581.51 552.717 581.27 552.747 581.04L552.847 580.33C552.877 580.09 552.907 579.85 552.937 579.62C552.967 579.38 552.997 579.14 553.027 578.9C553.057 578.66 553.087 578.42 553.117 578.17C553.147 577.93 553.177 577.68 553.207 577.44C553.237 577.19 553.267 576.95 553.287 576.7C553.317 576.45 553.337 576.2 553.367 575.95C553.417 575.45 553.467 574.94 553.507 574.44C553.547 573.93 553.587 573.41 553.617 572.9C553.647 572.38 553.677 571.85 553.697 571.33C553.717 570.8 553.727 570.26 553.737 569.73C553.737 569.3 553.737 568.88 553.737 568.45C553.737 568.02 553.727 567.59 553.717 567.15C553.687 566.27 553.647 565.38 553.587 564.5C553.517 563.59 553.437 562.68 553.327 561.78C553.217 560.85 553.087 559.92 552.937 558.99C552.777 558.04 552.607 557.08 552.417 556.13C552.217 555.15 551.997 554.18 551.757 553.22C551.507 552.23 551.247 551.24 550.967 550.26C550.677 549.25 550.367 548.25 550.047 547.26C549.757 546.38 549.457 545.5 549.147 544.62C548.987 544.18 548.827 543.74 548.667 543.29C548.657 543.26 548.647 543.23 548.637 543.21C548.627 543.18 548.617 543.15 548.607 543.13L548.547 542.96C548.507 542.85 548.467 542.74 548.427 542.63C548.347 542.41 548.257 542.19 548.177 541.97C547.837 541.08 547.487 540.19 547.127 539.31C546.767 538.42 546.397 537.54 546.017 536.65C545.257 534.88 544.457 533.12 543.637 531.38C543.227 530.51 542.807 529.64 542.387 528.78C541.967 527.92 541.537 527.07 541.107 526.22C540.647 525.32 540.187 524.43 539.717 523.53C539.257 522.65 538.777 521.77 538.307 520.89C537.837 520.03 537.367 519.17 536.887 518.31C536.417 517.47 535.937 516.63 535.457 515.79C534.987 514.97 534.507 514.15 534.027 513.33C533.557 512.53 533.077 511.73 532.597 510.94C532.127 510.16 531.657 509.39 531.177 508.62C530.707 507.87 530.247 507.12 529.777 506.37C529.207 505.46 528.627 504.56 528.037 503.66C527.477 502.79 526.907 501.92 526.337 501.06C525.787 500.23 525.227 499.4 524.667 498.57C524.127 497.77 523.577 496.98 523.027 496.18C522.757 495.79 522.487 495.41 522.217 495.02C521.947 494.64 521.687 494.26 521.417 493.89C521.157 493.52 520.897 493.15 520.627 492.78L520.527 492.64C520.527 492.64 520.497 492.59 520.477 492.57C520.457 492.55 520.447 492.52 520.427 492.5C520.357 492.41 520.297 492.32 520.227 492.23C520.097 492.05 519.967 491.87 519.837 491.69C519.327 490.98 518.817 490.28 518.297 489.58C517.797 488.9 517.297 488.22 516.787 487.54C516.177 486.72 515.557 485.9 514.937 485.08C514.337 484.29 513.727 483.5 513.117 482.71C512.527 481.94 511.927 481.17 511.327 480.41C511.027 480.03 510.737 479.66 510.437 479.28C510.147 478.91 509.847 478.54 509.557 478.17C509.267 477.8 508.967 477.43 508.677 477.07C508.387 476.71 508.097 476.34 507.807 475.98C507.517 475.62 507.227 475.26 506.937 474.9C506.647 474.54 506.357 474.18 506.067 473.83C505.777 473.47 505.487 473.12 505.197 472.76C504.907 472.41 504.617 472.05 504.327 471.7C504.037 471.35 503.747 471 503.467 470.65C503.177 470.3 502.887 469.95 502.597 469.6C501.987 468.86 501.367 468.12 500.757 467.39C500.147 466.66 499.527 465.93 498.907 465.2C498.287 464.48 497.667 463.75 497.037 463.03C496.877 462.85 496.727 462.67 496.567 462.49L496.337 462.22C496.257 462.13 496.177 462.04 496.107 461.95C495.797 461.59 495.477 461.24 495.167 460.88C493.907 459.46 492.627 458.05 491.337 456.66C490.037 455.27 488.717 453.91 487.377 452.57C486.027 451.23 484.657 449.92 483.247 448.64C481.837 447.36 480.397 446.12 478.917 444.93C477.427 443.74 475.907 442.59 474.337 441.5C472.757 440.41 471.147 439.38 469.477 438.42" stroke="#FF0000" stroke-width="1.5" stroke-linecap="round" stroke-linejoin="round"/>
<path d="M32.11 415C32.11 415.65 32.1 416.31 32.1 416.96C32.1 417.61 32.1 418.27 32.1 418.92C32.1 419.57 32.1 420.23 32.1 420.88C32.1 421.53 32.1 422.19 32.1 422.84C32.1 423.49 32.1 424.15 32.11 424.81C32.11 425.47 32.11 426.11 32.12 426.77C32.12 427.43 32.12 428.08 32.13 428.74C32.13 429.4 32.13 430.05 32.13 430.7C32.13 432.02 32.13 433.31 32.13 434.63C32.13 435.95 32.13 437.24 32.12 438.55C32.12 439.2 32.12 439.86 32.11 440.51C32.11 441.16 32.1 441.81 32.09 442.47C32.09 443.13 32.08 443.77 32.07 444.43C32.07 445.09 32.06 445.73 32.05 446.39C32.05 447.04 32.04 447.7 32.03 448.35C32.03 449 32.02 449.66 32.01 450.31C32.01 450.96 32 451.62 32 452.27C32 452.6 32 452.92 32 453.25C32 453.41 32 453.58 32 453.74V454.23C32 455.54 32 456.84 32.02 458.15C32.04 459.46 32.07 460.77 32.11 462.07C32.15 463.38 32.21 464.69 32.29 466C32.37 467.31 32.47 468.62 32.58 469.93C32.7 471.24 32.84 472.55 33 473.85C33.16 475.15 33.36 476.46 33.57 477.75C33.78 479.04 34.03 480.34 34.31 481.63C34.59 482.92 34.89 484.2 35.23 485.47C35.57 486.74 35.93 488 36.34 489.25C36.54 489.88 36.75 490.5 36.97 491.11C37.02 491.27 37.08 491.42 37.13 491.57C37.16 491.65 37.19 491.72 37.21 491.8L37.29 492.03C37.4 492.34 37.52 492.64 37.64 492.95C38.11 494.17 38.62 495.37 39.16 496.56C39.7 497.74 40.28 498.91 40.89 500.06C41.5 501.2 42.15 502.33 42.84 503.43C43.53 504.53 44.25 505.6 45.01 506.65C46.53 508.75 48.19 510.73 49.99 512.59C51.79 514.46 53.72 516.2 55.76 517.8C56.78 518.61 57.83 519.38 58.91 520.11C59.45 520.48 59.99 520.84 60.54 521.19C60.61 521.23 60.68 521.28 60.75 521.32C60.82 521.36 60.89 521.41 60.96 521.45C61.1 521.54 61.24 521.62 61.38 521.71C61.66 521.88 61.94 522.05 62.22 522.22C63.34 522.89 64.49 523.53 65.65 524.13C66.81 524.73 67.99 525.3 69.19 525.84C70.38 526.37 71.59 526.88 72.81 527.35C74.03 527.82 75.26 528.26 76.5 528.67C77.74 529.08 78.99 529.46 80.25 529.81C81.51 530.16 82.77 530.49 84.05 530.8C85.32 531.1 86.6 531.38 87.88 531.65C89.16 531.91 90.45 532.15 91.73 532.38C93.02 532.61 94.31 532.82 95.6 533.02C95.92 533.07 96.25 533.12 96.57 533.17C96.89 533.22 97.22 533.27 97.54 533.32C98.19 533.42 98.83 533.51 99.48 533.6C100.13 533.69 100.77 533.79 101.42 533.88C102.06 533.97 102.72 534.06 103.36 534.16C104.01 534.25 104.65 534.34 105.3 534.44C105.95 534.53 106.59 534.63 107.24 534.72C108.53 534.91 109.82 535.1 111.11 535.3C112.4 535.5 113.68 535.71 114.97 535.93C116.26 536.15 117.54 536.38 118.82 536.62C120.1 536.86 121.38 537.11 122.65 537.38C125.21 537.92 127.73 538.5 130.27 539.15C131.54 539.47 132.8 539.81 134.06 540.16C134.22 540.2 134.37 540.25 134.53 540.29L135 540.42C135.31 540.51 135.63 540.6 135.94 540.69C136.57 540.87 137.2 541.05 137.82 541.24C139.07 541.61 140.33 542 141.57 542.39C142.82 542.78 144.06 543.19 145.31 543.6C147.79 544.42 150.28 545.29 152.73 546.19C155.18 547.08 157.64 548.02 160.07 548.99C161.29 549.47 162.5 549.97 163.71 550.47C164.92 550.97 166.12 551.48 167.32 552C168.52 552.52 169.71 553.05 170.9 553.59L171.35 553.79C171.5 553.86 171.65 553.93 171.79 553.99C172.09 554.13 172.38 554.27 172.68 554.4C173.27 554.68 173.86 554.96 174.44 555.24C175.61 555.81 176.78 556.39 177.94 556.98C179.1 557.57 180.25 558.18 181.4 558.8C182.55 559.42 183.68 560.05 184.82 560.7C185.95 561.35 187.08 562 188.2 562.67C189.32 563.34 190.43 564.02 191.54 564.71C192.65 565.4 193.75 566.1 194.85 566.81C195.95 567.52 197.04 568.23 198.14 568.95C198.69 569.31 199.23 569.67 199.78 570.03C200.33 570.39 200.87 570.75 201.42 571.12C201.97 571.49 202.5 571.84 203.06 572.21C203.33 572.39 203.6 572.57 203.88 572.75C204.15 572.93 204.42 573.11 204.7 573.29C205.25 573.65 205.79 574.01 206.34 574.37C206.89 574.73 207.43 575.09 207.98 575.45C209.08 576.16 210.17 576.87 211.28 577.57C212.39 578.27 213.49 578.96 214.61 579.63C215.73 580.31 216.85 580.97 217.98 581.61C219.11 582.26 220.25 582.89 221.4 583.5C222.55 584.12 223.7 584.71 224.87 585.3C226.04 585.88 227.21 586.45 228.39 586.99C230.76 588.09 233.15 589.1 235.58 590.05C236.19 590.29 236.8 590.52 237.41 590.75C237.72 590.86 238.02 590.98 238.33 591.09C238.48 591.15 238.64 591.2 238.79 591.26C238.94 591.32 239.1 591.37 239.25 591.43C240.48 591.87 241.72 592.29 242.96 592.7C245.44 593.52 247.95 594.28 250.47 594.99C252.99 595.7 255.53 596.36 258.07 596.99C260.61 597.61 263.17 598.2 265.72 598.75C268.27 599.3 270.84 599.82 273.41 600.32C274.05 600.44 274.69 600.57 275.34 600.69C275.66 600.75 275.98 600.81 276.3 600.87C276.62 600.93 276.94 600.99 277.26 601.05C278.54 601.29 279.83 601.52 281.12 601.75C282.41 601.98 283.69 602.21 284.98 602.43C286.27 602.65 287.56 602.87 288.84 603.08C291.41 603.51 294.01 603.93 296.58 604.34C299.15 604.75 301.75 605.15 304.33 605.53C306.91 605.92 309.52 606.3 312.09 606.66C312.74 606.75 313.39 606.84 314.03 606.93C314.68 607.02 315.33 607.11 315.97 607.19C317.27 607.36 318.56 607.54 319.86 607.7C322.47 608.03 325.04 608.35 327.65 608.65C328.95 608.8 330.25 608.95 331.55 609.09C332.85 609.23 334.15 609.37 335.45 609.51C336.75 609.65 338.05 609.78 339.35 609.91C340.66 610.04 341.95 610.17 343.25 610.3C343.9 610.36 344.55 610.43 345.2 610.49C345.85 610.55 346.5 610.62 347.15 610.68C348.45 610.81 349.76 610.94 351.05 611.07C351.38 611.1 351.7 611.14 352.03 611.17C352.36 611.2 352.68 611.24 353.01 611.27C353.66 611.34 354.31 611.41 354.96 611.48C356.26 611.62 357.56 611.76 358.86 611.91C360.16 612.06 361.46 612.21 362.76 612.37C364.06 612.53 365.35 612.7 366.65 612.87C369.26 613.22 371.82 613.6 374.42 614C375.72 614.2 377.01 614.41 378.3 614.63C379.59 614.85 380.88 615.07 382.17 615.3C383.46 615.53 384.75 615.76 386.04 616C387.33 616.24 388.61 616.48 389.9 616.72L390.38 616.81L390.86 616.9L391.82 617.08C392.46 617.2 393.11 617.33 393.75 617.45C394.39 617.57 395.04 617.7 395.68 617.82C396.32 617.94 396.96 618.07 397.61 618.19C398.9 618.43 400.17 618.67 401.46 618.92C402.75 619.16 404.02 619.4 405.31 619.63C406.6 619.87 407.87 620.09 409.16 620.32C410.44 620.55 411.72 620.77 413.01 620.99C414.3 621.21 415.57 621.43 416.86 621.65C418.15 621.87 419.42 622.08 420.71 622.29C421.35 622.4 421.99 622.5 422.63 622.61C423.27 622.72 423.91 622.82 424.56 622.93C425.2 623.04 425.84 623.14 426.49 623.25C427.13 623.36 427.78 623.47 428.42 623.57C429.06 623.68 429.71 623.79 430.35 623.9C430.99 624.01 431.64 624.12 432.28 624.23C432.93 624.34 433.57 624.46 434.22 624.57C434.87 624.69 435.51 624.8 436.16 624.92C436.81 625.04 437.45 625.16 438.1 625.28C438.75 625.4 439.39 625.52 440.04 625.65C440.69 625.77 441.34 625.9 441.98 626.03C442.63 626.16 443.28 626.29 443.93 626.42C444.58 626.55 445.23 626.68 445.88 626.82C446.53 626.95 447.18 627.09 447.83 627.22C448.48 627.35 449.13 627.49 449.78 627.63C450.43 627.77 451.08 627.9 451.73 628.04C452.38 628.18 453.04 628.32 453.69 628.45C454.34 628.59 455 628.72 455.65 628.86C456.3 629 456.96 629.13 457.61 629.26C458.26 629.39 458.92 629.53 459.57 629.66C460.22 629.79 460.88 629.92 461.53 630.04C462.18 630.17 462.83 630.29 463.49 630.41C464.14 630.53 464.79 630.65 465.45 630.76C465.78 630.82 466.1 630.87 466.43 630.93L466.67 630.97C466.75 630.98 466.83 631 466.91 631.01L467.4 631.09C468.7 631.29 470 631.48 471.31 631.64C472.61 631.8 473.9 631.93 475.2 632.03C476.49 632.13 477.78 632.2 479.08 632.24C480.36 632.27 481.65 632.27 482.93 632.24C484.21 632.2 485.48 632.12 486.75 632C488.02 631.88 489.28 631.71 490.53 631.51C491.78 631.3 493.03 631.05 494.27 630.76C495.51 630.47 496.74 630.13 497.95 629.75C499.17 629.37 500.37 628.95 501.57 628.48C502.17 628.25 502.76 628 503.35 627.75C503.5 627.69 503.65 627.62 503.79 627.56C503.83 627.54 503.86 627.53 503.9 627.51C503.94 627.49 503.97 627.48 504.01 627.46L504.23 627.36C504.52 627.23 504.82 627.09 505.11 626.96C506.28 626.41 507.43 625.83 508.57 625.21C509.71 624.59 510.83 623.93 511.94 623.25C513.05 622.56 514.14 621.84 515.22 621.09C516.3 620.34 517.36 619.56 518.41 618.77C519.46 617.97 520.49 617.15 521.51 616.31C522.53 615.47 523.54 614.61 524.54 613.74C525.04 613.31 525.54 612.87 526.03 612.43C526.52 611.99 527.02 611.55 527.51 611.1C528 610.65 528.49 610.21 528.98 609.77C529.47 609.32 529.96 608.88 530.44 608.43C530.93 607.99 531.42 607.54 531.9 607.1C532.38 606.66 532.87 606.21 533.36 605.77C533.85 605.33 534.34 604.89 534.83 604.46C535.32 604.03 535.81 603.6 536.3 603.17C536.79 602.75 537.29 602.32 537.79 601.91C538.29 601.49 538.79 601.08 539.29 600.68C540.29 599.87 541.31 599.09 542.35 598.33C543.38 597.58 544.43 596.85 545.51 596.16C546.58 595.47 547.67 594.82 548.78 594.2C549.76 593.65 550.75 593.14 551.76 592.65C552.02 592.52 552.32 592.5 552.59 592.59C552.86 592.68 553.22 592.79 553.45 592.86C553.89 593 554.33 593.15 554.77 593.3C555.21 593.46 555.65 593.62 556.09 593.79C556.53 593.96 556.97 594.14 557.41 594.32C557.85 594.5 558.29 594.69 558.73 594.88C559.17 595.07 559.61 595.27 560.05 595.48C560.49 595.68 560.93 595.89 561.37 596.11C561.81 596.33 562.25 596.54 562.69 596.77C563.13 596.99 563.57 597.22 564.01 597.45C564.45 597.68 564.89 597.92 565.32 598.15C566.2 598.63 567.08 599.12 567.95 599.62C568.83 600.12 569.7 600.63 570.57 601.15C571.44 601.67 572.32 602.2 573.18 602.73C574.01 603.24 574.84 603.76 575.66 604.27C576.49 604.79 577.31 605.32 578.13 605.84C578.95 606.37 579.78 606.9 580.6 607.43C581.42 607.96 582.24 608.5 583.06 609.04C583.47 609.31 583.88 609.58 584.29 609.85C584.7 610.12 585.11 610.39 585.51 610.66C586.33 611.2 587.14 611.75 587.95 612.29C589.58 613.39 591.19 614.48 592.81 615.6C594.43 616.71 596.02 617.83 597.63 618.95C599.24 620.08 600.82 621.2 602.42 622.34C603.22 622.91 604.01 623.48 604.81 624.05C605.61 624.62 606.4 625.19 607.2 625.76C607.6 626.04 607.99 626.33 608.39 626.62C608.79 626.9 609.19 627.19 609.58 627.47C610.37 628.04 611.17 628.61 611.97 629.18C612.77 629.75 613.56 630.32 614.36 630.88L614.96 631.3C615.16 631.44 615.36 631.58 615.56 631.72C615.96 632 616.36 632.29 616.76 632.57C617.56 633.13 618.36 633.69 619.16 634.25C619.96 634.81 620.77 635.36 621.57 635.92C623.19 637.03 624.8 638.11 626.43 639.2C628.07 640.28 629.7 641.34 631.35 642.39C633 643.44 634.66 644.46 636.33 645.48C638.01 646.5 639.68 647.49 641.37 648.48C642.22 648.97 643.06 649.46 643.91 649.95C644.76 650.44 645.61 650.92 646.46 651.4C646.67 651.52 646.89 651.64 647.1 651.76C647.31 651.88 647.53 652 647.74 652.12C648.17 652.36 648.6 652.6 649.02 652.84C649.88 653.32 650.74 653.79 651.59 654.26C652.45 654.73 653.31 655.2 654.16 655.67C655.02 656.14 655.88 656.61 656.74 657.08C658.44 658.01 660.2 658.96 661.91 659.87C662.77 660.33 663.64 660.8 664.5 661.26C665.36 661.72 666.23 662.18 667.09 662.64C667.95 663.1 668.82 663.56 669.68 664.01C670.54 664.47 671.41 664.92 672.28 665.37C673.15 665.82 674.02 666.27 674.89 666.72C675.76 667.17 676.63 667.61 677.51 668.05C678.38 668.49 679.26 668.93 680.14 669.36L680.8 669.68C681.02 669.79 681.24 669.89 681.46 670C681.9 670.21 682.34 670.43 682.78 670.64C683.66 671.06 684.55 671.47 685.44 671.89C686.33 672.3 687.22 672.7 688.11 673.1C689 673.5 689.89 673.89 690.79 674.28C691.69 674.67 692.58 675.05 693.48 675.43C693.94 675.63 694.41 675.82 694.87 676.01C695.33 676.2 695.8 676.4 696.26 676.59C696.72 676.78 697.19 676.97 697.65 677.16C697.88 677.26 698.11 677.35 698.34 677.45C698.57 677.55 698.8 677.64 699.03 677.74C699.49 677.93 699.95 678.12 700.41 678.31C700.87 678.5 701.33 678.69 701.79 678.89C702.25 679.08 702.7 679.28 703.16 679.47C703.61 679.66 704.07 679.86 704.52 680.06C704.97 680.26 705.42 680.46 705.86 680.66C706.3 680.86 706.75 681.06 707.19 681.27C707.63 681.48 708.07 681.69 708.5 681.9C708.93 682.11 709.36 682.33 709.79 682.55C710.21 682.77 710.64 682.99 711.05 683.22C711.47 683.45 711.88 683.68 712.29 683.92C713.1 684.39 713.9 684.89 714.67 685.42" stroke="#FF0000" stroke-width="1.5" stroke-linecap="round" stroke-linejoin="round"/>
<path d="M912.248 627.92C910.958 628.16 909.668 628.36 908.368 628.51C907.078 628.67 905.778 628.78 904.478 628.87C903.178 628.96 901.878 629.02 900.568 629.06C899.268 629.1 897.958 629.12 896.658 629.12C896.008 629.12 895.348 629.12 894.698 629.12C894.048 629.12 893.388 629.11 892.738 629.1C892.088 629.09 891.428 629.08 890.778 629.06C890.128 629.05 889.468 629.03 888.818 629.01C888.168 628.99 887.508 628.97 886.858 628.95C886.208 628.93 885.548 628.91 884.898 628.89C884.248 628.87 883.588 628.85 882.938 628.83C882.288 628.81 881.628 628.78 880.978 628.76C880.328 628.74 879.668 628.71 879.018 628.69C878.368 628.67 877.708 628.64 877.058 628.62C876.408 628.6 875.748 628.57 875.098 628.55C874.768 628.54 874.448 628.53 874.118 628.51C873.958 628.51 873.788 628.5 873.628 628.49C873.468 628.49 873.298 628.48 873.138 628.47C871.828 628.42 870.528 628.37 869.218 628.32C867.908 628.27 866.608 628.21 865.308 628.14C863.998 628.08 862.708 628.01 861.398 627.94C860.098 627.87 858.798 627.79 857.488 627.71C854.868 627.54 852.288 627.35 849.678 627.13C848.378 627.02 847.078 626.91 845.778 626.79C844.478 626.67 843.178 626.54 841.878 626.41C840.578 626.28 839.278 626.14 837.978 626C837.328 625.93 836.678 625.86 836.028 625.79C835.868 625.77 835.698 625.75 835.538 625.74C835.378 625.72 835.208 625.7 835.048 625.69C834.718 625.65 834.398 625.62 834.078 625.58C832.788 625.44 831.478 625.29 830.178 625.14C828.888 624.99 827.568 624.84 826.278 624.69C825.628 624.62 824.978 624.54 824.328 624.46C823.678 624.38 823.028 624.31 822.378 624.23C821.058 624.08 819.798 623.93 818.478 623.78C817.168 623.63 815.888 623.48 814.578 623.33C813.268 623.18 811.988 623.03 810.678 622.88C810.028 622.81 809.378 622.73 808.728 622.66C808.078 622.59 807.428 622.51 806.778 622.44C806.128 622.37 805.478 622.29 804.828 622.22C804.178 622.15 803.528 622.07 802.878 622C801.588 621.85 800.278 621.7 798.988 621.55C798.338 621.47 797.688 621.4 797.038 621.32C796.708 621.28 796.388 621.24 796.068 621.2C795.738 621.16 795.418 621.12 795.098 621.08C793.798 620.92 792.508 620.77 791.208 620.6C789.908 620.44 788.618 620.27 787.328 620.09C786.038 619.92 784.738 619.74 783.448 619.56C782.158 619.38 780.868 619.19 779.578 618.99C776.988 618.6 774.428 618.18 771.848 617.74C770.558 617.52 769.278 617.29 767.988 617.06C766.698 616.83 765.418 616.59 764.138 616.35C762.858 616.11 761.578 615.86 760.288 615.6C759.968 615.54 759.648 615.47 759.328 615.41C759.008 615.35 758.688 615.28 758.368 615.22C757.728 615.09 757.088 614.96 756.448 614.83C755.168 614.57 753.888 614.3 752.608 614.04C751.328 613.77 750.048 613.5 748.768 613.23C747.488 612.96 746.208 612.69 744.938 612.41C743.668 612.14 742.378 611.86 741.108 611.59C739.838 611.32 738.548 611.04 737.278 610.76C736.008 610.48 734.718 610.2 733.448 609.93C732.178 609.65 730.888 609.37 729.618 609.09C728.348 608.81 727.058 608.53 725.788 608.25C724.518 607.97 723.228 607.68 721.958 607.4C721.638 607.33 721.318 607.26 720.998 607.19C720.678 607.12 720.358 607.05 720.038 606.97C719.398 606.83 718.768 606.68 718.128 606.54C716.848 606.25 715.588 605.96 714.308 605.67C713.028 605.38 711.768 605.08 710.488 604.78C709.218 604.48 707.948 604.18 706.678 603.87C705.408 603.56 704.148 603.26 702.878 602.94C701.608 602.63 700.348 602.32 699.078 602C697.808 601.68 696.548 601.37 695.278 601.05C694.648 600.89 694.008 600.73 693.378 600.57C692.748 600.41 692.108 600.25 691.478 600.09C690.218 599.77 688.938 599.45 687.678 599.13C686.418 598.81 685.138 598.5 683.878 598.18C683.558 598.1 683.248 598.02 682.928 597.95C682.608 597.87 682.298 597.79 681.978 597.72C681.338 597.56 680.708 597.41 680.068 597.26C678.798 596.95 677.528 596.66 676.258 596.36C674.978 596.07 673.708 595.78 672.428 595.5C671.148 595.22 669.868 594.95 668.588 594.68C667.308 594.41 666.028 594.16 664.738 593.91C662.158 593.41 659.588 592.95 656.998 592.52C655.708 592.3 654.408 592.1 653.118 591.9C651.828 591.7 650.528 591.51 649.228 591.33C648.578 591.24 647.928 591.15 647.278 591.06C646.948 591.02 646.628 590.97 646.308 590.93C646.148 590.91 645.978 590.89 645.818 590.87C645.658 590.85 645.488 590.83 645.328 590.81C644.028 590.64 642.728 590.48 641.428 590.32C640.128 590.16 638.838 590.01 637.538 589.86C636.248 589.71 634.948 589.57 633.648 589.43C632.358 589.29 631.058 589.15 629.768 589.02C628.478 588.89 627.188 588.76 625.898 588.63C624.608 588.5 623.318 588.38 622.028 588.26C620.738 588.14 619.448 588.02 618.168 587.91C616.878 587.8 615.588 587.68 614.308 587.58C613.018 587.47 611.728 587.37 610.438 587.27C609.788 587.22 609.148 587.17 608.498 587.13C608.178 587.11 607.848 587.08 607.528 587.06C607.208 587.04 606.878 587.01 606.558 586.99C605.258 586.9 603.958 586.82 602.658 586.74C601.348 586.66 600.038 586.59 598.728 586.53C597.408 586.47 596.088 586.41 594.768 586.37C593.438 586.33 592.118 586.29 590.788 586.27C589.458 586.25 588.118 586.24 586.788 586.24C585.448 586.24 584.108 586.26 582.768 586.3C581.428 586.34 580.088 586.39 578.748 586.47C577.408 586.55 576.068 586.64 574.738 586.77C573.408 586.89 572.088 587.04 570.758 587.22C570.098 587.31 569.448 587.4 568.788 587.51C568.628 587.54 568.458 587.56 568.298 587.59L568.178 587.61C568.178 587.61 568.098 587.62 568.058 587.63L567.818 587.67C567.488 587.73 567.168 587.78 566.838 587.84C565.548 588.08 564.268 588.35 562.988 588.66C561.728 588.97 560.478 589.31 559.238 589.7C558.008 590.08 556.798 590.51 555.608 590.97C554.418 591.43 553.248 591.93 552.098 592.48C550.948 593.02 549.818 593.6 548.708 594.22C547.598 594.84 546.508 595.49 545.438 596.18C544.368 596.87 543.318 597.6 542.278 598.35C541.238 599.11 540.218 599.89 539.218 600.7C538.718 601.11 538.218 601.52 537.718 601.93C537.218 602.35 536.728 602.77 536.228 603.19C535.738 603.62 535.238 604.05 534.758 604.48C534.268 604.91 533.778 605.35 533.288 605.79C532.798 606.23 532.308 606.67 531.828 607.12C531.348 607.57 530.848 608.01 530.368 608.45C529.878 608.9 529.398 609.34 528.908 609.79C528.748 609.93 520.048 617.41 519.888 617.56L519.588 617.82C519.128 618.22 518.668 618.63 518.208 619.03C517.758 619.43 517.318 619.83 516.868 620.23C516.428 620.62 515.998 621.02 515.558 621.42C515.128 621.81 514.708 622.2 514.278 622.6C513.858 622.99 513.448 623.37 513.028 623.76C512.618 624.14 512.208 624.53 511.798 624.91C511.398 625.29 510.998 625.67 510.588 626.05C510.188 626.43 509.798 626.8 509.398 627.18C508.618 627.92 507.848 628.66 507.068 629.41C506.688 629.78 506.308 630.14 505.918 630.51L504.778 631.6C504.398 631.96 504.028 632.32 503.648 632.68C503.278 633.04 502.898 633.39 502.518 633.75C502.148 634.1 501.768 634.45 501.398 634.81C501.028 635.16 500.648 635.51 500.278 635.86C499.868 636.24 499.458 636.62 499.048 636.99C498.638 637.37 498.228 637.74 497.818 638.11C496.998 638.85 496.178 639.59 495.358 640.33C494.538 641.06 493.708 641.79 492.878 642.51C492.048 643.23 491.218 643.94 490.378 644.65C489.538 645.36 488.698 646.06 487.858 646.76C487.438 647.11 487.008 647.46 486.588 647.8C486.168 648.15 485.738 648.49 485.308 648.84C484.458 649.53 483.598 650.22 482.738 650.9C481.878 651.58 481.018 652.26 480.158 652.94C479.298 653.62 478.428 654.3 477.558 654.97C476.688 655.64 475.818 656.32 474.948 656.99C474.078 657.66 473.198 658.33 472.328 659C471.458 659.67 470.578 660.34 469.708 661C468.838 661.66 467.958 662.33 467.078 663C466.208 663.66 465.318 664.33 464.448 664.99C462.718 666.3 460.918 667.66 459.178 668.97C458.298 669.63 457.418 670.29 456.538 670.95C455.658 671.61 454.778 672.27 453.898 672.93C453.458 673.26 453.018 673.59 452.578 673.92C452.138 674.25 451.698 674.58 451.258 674.9C450.378 675.56 449.488 676.21 448.608 676.86C446.828 678.17 445.068 679.46 443.278 680.75C441.488 682.04 439.718 683.32 437.918 684.6C436.118 685.88 434.338 687.14 432.528 688.4C431.628 689.03 430.728 689.66 429.818 690.29C428.918 690.92 428.008 691.54 427.108 692.17C426.198 692.8 425.298 693.42 424.388 694.04C423.478 694.67 422.578 695.28 421.668 695.91C421.218 696.22 420.758 696.53 420.308 696.84C419.858 697.15 419.398 697.46 418.948 697.77C418.038 698.4 417.138 699.01 416.228 699.64C415.318 700.27 414.418 700.89 413.508 701.51C412.598 702.14 411.698 702.76 410.798 703.39C408.978 704.65 407.198 705.89 405.388 707.17C404.488 707.8 403.588 708.43 402.688 709.07C401.788 709.71 400.898 710.34 399.998 710.98C399.098 711.62 398.208 712.25 397.308 712.89C396.398 713.54 395.528 714.15 394.618 714.8C393.728 715.43 392.818 716.08 391.928 716.71C391.038 717.35 390.128 717.98 389.238 718.62C388.338 719.25 387.438 719.89 386.538 720.52C386.088 720.83 385.638 721.15 385.188 721.46C384.738 721.77 384.288 722.09 383.838 722.4C382.928 723.03 382.028 723.65 381.118 724.27C380.208 724.89 379.298 725.5 378.388 726.11C377.468 726.72 376.558 727.33 375.638 727.93C374.718 728.53 373.798 729.13 372.878 729.73C371.948 730.33 371.038 730.92 370.108 731.51C369.648 731.81 369.178 732.1 368.718 732.4C368.258 732.69 367.788 732.99 367.328 733.28C366.868 733.58 366.398 733.87 365.938 734.17C365.478 734.46 365.008 734.76 364.548 735.06C363.628 735.65 362.688 736.24 361.768 736.84C360.848 737.43 359.918 738.04 359.008 738.64C358.088 739.24 357.178 739.86 356.268 740.48C355.358 741.1 354.458 741.73 353.568 742.37C352.678 743.01 351.788 743.66 350.918 744.33" stroke="#FF0000" stroke-width="1.5" stroke-linecap="round" stroke-linejoin="round"/>
<path d="M32.11 415C32.11 415.65 32.1 416.31 32.1 416.96C32.1 417.61 32.1 418.27 32.1 418.92C32.1 419.57 32.1 420.23 32.1 420.88C32.1 421.53 32.1 422.19 32.1 422.84C32.1 423.49 32.1 424.15 32.11 424.81C32.11 425.47 32.11 426.11 32.12 426.77C32.12 427.43 32.12 428.08 32.13 428.74C32.13 429.4 32.13 430.05 32.13 430.7C32.13 432.02 32.13 433.31 32.13 434.63C32.13 435.95 32.13 437.24 32.12 438.55C32.12 439.2 32.12 439.86 32.11 440.51C32.11 441.16 32.1 441.81 32.09 442.47C32.09 443.13 32.08 443.77 32.07 444.43C32.07 445.09 32.06 445.73 32.05 446.39C32.05 447.04 32.04 447.7 32.03 448.35C32.03 449 32.02 449.66 32.01 450.31C32.01 450.96 32 451.62 32 452.27C32 452.6 32 452.92 32 453.25C32 453.41 32 453.58 32 453.74V454.23C32 455.54 32 456.84 32.02 458.15C32.04 459.46 32.07 460.77 32.11 462.07C32.15 463.38 32.21 464.69 32.29 466C32.37 467.31 32.47 468.62 32.58 469.93C32.7 471.24 32.84 472.55 33 473.85C33.16 475.15 33.36 476.46 33.57 477.75C33.78 479.04 34.03 480.34 34.31 481.63C34.59 482.92 34.89 484.2 35.23 485.47C35.57 486.74 35.93 488 36.34 489.25C36.54 489.88 36.75 490.5 36.97 491.11C37.02 491.27 37.08 491.42 37.13 491.57C37.16 491.65 37.19 491.72 37.21 491.8L37.29 492.03C37.4 492.34 37.52 492.64 37.64 492.95C38.11 494.17 38.62 495.37 39.16 496.56C39.7 497.74 40.28 498.91 40.89 500.06C41.5 501.2 42.15 502.33 42.84 503.43C43.53 504.53 44.25 505.6 45.01 506.65C46.53 508.75 48.19 510.73 49.99 512.59C51.79 514.46 53.72 516.2 55.76 517.8C56.78 518.61 57.83 519.38 58.91 520.11C59.45 520.48 59.99 520.84 60.54 521.19C60.61 521.23 60.68 521.28 60.75 521.32C60.82 521.36 60.89 521.41 60.96 521.45C61.1 521.54 61.24 521.62 61.38 521.71C61.66 521.88 61.94 522.05 62.22 522.22C63.34 522.89 64.49 523.53 65.65 524.13C66.81 524.73 67.99 525.3 69.19 525.84C70.38 526.37 71.59 526.88 72.81 527.35C74.03 527.82 75.26 528.26 76.5 528.67C77.74 529.08 78.99 529.46 80.25 529.81C81.51 530.16 82.77 530.49 84.05 530.8C85.32 531.1 86.6 531.38 87.88 531.65C89.16 531.91 90.45 532.15 91.73 532.38C93.02 532.61 94.31 532.82 95.6 533.02C95.92 533.07 96.25 533.12 96.57 533.17C96.89 533.22 97.22 533.27 97.54 533.32C98.19 533.42 98.83 533.51 99.48 533.6C100.13 533.69 100.77 533.79 101.42 533.88C102.06 533.97 102.72 534.06 103.36 534.16C104.01 534.25 104.65 534.34 105.3 534.44C105.95 534.53 106.59 534.63 107.24 534.72C108.53 534.91 109.82 535.1 111.11 535.3C112.4 535.5 113.68 535.71 114.97 535.93C116.26 536.15 117.54 536.38 118.82 536.62C120.1 536.86 121.38 537.11 122.65 537.38C125.21 537.92 127.73 538.5 130.27 539.15C131.54 539.47 132.8 539.81 134.06 540.16C134.22 540.2 134.37 540.25 134.53 540.29L135 540.42C135.31 540.51 135.63 540.6 135.94 540.69C136.57 540.87 137.2 541.05 137.82 541.24C139.07 541.61 140.33 542 141.57 542.39C142.82 542.78 144.06 543.19 145.31 543.6C147.79 544.42 150.28 545.29 152.73 546.19C155.18 547.08 157.64 548.02 160.07 548.99C161.29 549.47 162.5 549.97 163.71 550.47C164.92 550.97 166.12 551.48 167.32 552C168.52 552.52 169.71 553.05 170.9 553.59L171.35 553.79C171.5 553.86 171.65 553.93 171.79 553.99C172.09 554.13 172.38 554.27 172.68 554.4C173.27 554.68 173.86 554.96 174.44 555.24C175.61 555.81 176.78 556.39 177.94 556.98C179.1 557.57 180.25 558.18 181.4 558.8C182.55 559.42 183.68 560.05 184.82 560.7C185.95 561.35 187.08 562 188.2 562.67C189.32 563.34 190.43 564.02 191.54 564.71C192.65 565.4 193.75 566.1 194.85 566.81C195.95 567.52 197.04 568.23 198.14 568.95C198.69 569.31 199.23 569.67 199.78 570.03C200.33 570.39 200.87 570.75 201.42 571.12C201.97 571.49 202.5 571.84 203.06 572.21C203.33 572.39 203.6 572.57 203.88 572.75C204.15 572.93 204.42 573.11 204.7 573.29C205.25 573.65 205.79 574.01 206.34 574.37C206.89 574.73 207.43 575.09 207.98 575.45C209.08 576.16 210.17 576.87 211.28 577.57C212.39 578.27 213.49 578.96 214.61 579.63C215.73 580.31 216.85 580.97 217.98 581.61C219.11 582.26 223.63 584.64 224.78 585.26C225.24 585.5 225.71 585.74 226.17 585.98C226.63 586.22 227.1 586.47 227.56 586.71C228.02 586.95 228.49 587.2 228.95 587.44C229.41 587.68 229.89 587.93 230.35 588.18C230.82 588.43 231.28 588.67 231.75 588.92C232.22 589.16 232.68 589.41 233.14 589.65C233.61 589.89 234.07 590.14 234.53 590.38C234.99 590.62 235.46 590.86 235.92 591.11C236.39 591.35 236.85 591.6 237.32 591.84C237.79 592.08 238.25 592.32 238.71 592.56C239.18 592.8 239.64 593.04 240.1 593.28C240.57 593.52 241.03 593.76 241.49 594C241.72 594.12 241.95 594.24 242.19 594.36C242.31 594.42 242.42 594.48 242.54 594.54C242.66 594.6 242.77 594.66 242.89 594.72C243.36 594.96 243.82 595.2 244.29 595.44C244.76 595.68 245.22 595.92 245.69 596.17C246.16 596.41 246.63 596.66 247.09 596.9C247.55 597.14 248.01 597.38 248.47 597.63C248.93 597.87 249.39 598.12 249.85 598.37C250.31 598.62 250.77 598.87 251.23 599.12C251.69 599.37 252.15 599.63 252.61 599.89C253.53 600.41 254.44 600.94 255.34 601.48C256.24 602.02 257.14 602.59 258.02 603.17C258.47 603.47 258.91 603.77 259.35 604.07C259.57 604.22 259.79 604.38 260 604.53C260.05 604.57 260.11 604.61 260.16 604.65C260.21 604.69 260.27 604.73 260.32 604.77C260.43 604.85 260.53 604.93 260.64 605.01C261.49 605.64 262.31 606.3 263.11 607C263.89 607.68 264.65 608.4 265.37 609.15C266.08 609.89 266.75 610.67 267.39 611.48C268.03 612.3 268.63 613.14 269.18 614.02C269.73 614.9 270.24 615.81 270.71 616.74C270.95 617.21 271.17 617.68 271.39 618.16C271.61 618.64 271.81 619.13 272.01 619.62C272.06 619.74 272.11 619.87 272.16 619.99C272.17 620.02 272.18 620.05 272.2 620.08C272.21 620.11 272.22 620.14 272.24 620.17C272.26 620.23 272.29 620.29 272.31 620.36C272.41 620.61 272.5 620.86 272.59 621.11C272.77 621.61 272.95 622.12 273.12 622.63C273.29 623.12 273.45 623.62 273.6 624.11C273.75 624.61 273.9 625.11 274.05 625.61C274.34 626.62 274.61 627.64 274.86 628.66C275.11 629.68 275.35 630.72 275.56 631.74C275.67 632.25 275.77 632.77 275.86 633.29C275.96 633.81 276.04 634.32 276.13 634.84C276.21 635.37 276.29 635.9 276.36 636.43C276.43 636.96 276.49 637.48 276.54 638.01C276.59 638.53 276.63 639.06 276.65 639.59V639.79C276.65 639.79 276.66 639.85 276.66 639.89C276.66 639.92 276.66 639.96 276.66 639.99C276.66 640.12 276.66 640.25 276.67 640.38C276.67 640.64 276.68 640.9 276.68 641.16C276.68 641.68 276.67 642.2 276.64 642.72C276.61 643.24 276.57 643.76 276.52 644.27C276.46 644.79 276.4 645.3 276.31 645.81C276.23 646.33 276.13 646.84 276.02 647.35C275.91 647.86 275.8 648.36 275.67 648.87C275.54 649.38 275.41 649.88 275.27 650.38C275.2 650.63 275.13 650.88 275.06 651.14C274.99 651.4 274.92 651.64 274.84 651.9C274.77 652.15 274.7 652.41 274.62 652.66C274.55 652.91 274.48 653.17 274.41 653.42C274.34 653.67 274.27 653.93 274.2 654.18C274.13 654.43 274.07 654.69 274.01 654.94C273.89 655.45 273.77 655.96 273.67 656.48C273.57 657 273.49 657.52 273.44 658.04C273.39 658.57 273.36 659.1 273.37 659.63" stroke="#FF0000" stroke-width="1.5" stroke-linecap="round" stroke-linejoin="round"/>
<path d="M32.11 415C32.11 415.65 32.1 416.31 32.1 416.96C32.1 417.61 32.1 418.27 32.1 418.92C32.1 419.57 32.1 420.23 32.1 420.88C32.1 421.53 32.1 422.19 32.1 422.84C32.1 423.49 32.1 424.15 32.11 424.81C32.11 425.47 32.11 426.11 32.12 426.77C32.12 427.43 32.12 428.08 32.13 428.74C32.13 429.4 32.13 430.05 32.13 430.7C32.13 432.02 32.13 433.31 32.13 434.63C32.13 435.95 32.13 437.24 32.12 438.55C32.12 439.2 32.12 439.86 32.11 440.51C32.11 441.16 32.1 441.81 32.09 442.47C32.09 443.13 32.08 443.77 32.07 444.43C32.07 445.09 32.06 445.73 32.05 446.39C32.05 447.04 32.04 447.7 32.03 448.35C32.03 449 32.02 449.66 32.01 450.31C32.01 450.96 32 451.62 32 452.27C32 452.6 32 452.92 32 453.25C32 453.41 32 453.58 32 453.74V454.23C32 455.54 32 456.84 32.02 458.15C32.04 459.46 32.07 460.77 32.11 462.07C32.15 463.38 32.21 464.69 32.29 466C32.37 467.31 32.47 468.62 32.58 469.93C32.7 471.24 32.84 472.55 33 473.85C33.16 475.15 33.36 476.46 33.57 477.75C33.78 479.04 34.03 480.34 34.31 481.63C34.59 482.92 34.89 484.2 35.23 485.47C35.57 486.74 35.93 488 36.34 489.25C36.54 489.88 36.75 490.5 36.97 491.11C37.02 491.27 37.08 491.42 37.13 491.57C37.16 491.65 37.19 491.72 37.21 491.8L37.29 492.03C37.4 492.34 37.52 492.64 37.64 492.95C38.11 494.17 38.62 495.37 39.16 496.56C39.7 497.74 40.28 498.91 40.89 500.06C41.5 501.2 42.15 502.33 42.84 503.43C43.53 504.53 44.25 505.6 45.01 506.65C46.53 508.75 48.19 510.73 49.99 512.59C51.79 514.46 53.72 516.2 55.76 517.8C56.78 518.61 57.83 519.38 58.91 520.11C59.45 520.48 59.99 520.84 60.54 521.19C60.61 521.23 60.68 521.28 60.75 521.32C60.82 521.36 60.89 521.41 60.96 521.45C61.1 521.54 61.24 521.62 61.38 521.71C61.66 521.88 61.94 522.05 62.22 522.22C63.34 522.89 64.49 523.53 65.65 524.13C66.81 524.73 67.99 525.3 69.19 525.84C70.38 526.37 71.59 526.88 72.81 527.35C74.03 527.82 75.26 528.26 76.5 528.67C77.74 529.08 78.99 529.46 80.25 529.81C81.51 530.16 82.77 530.49 84.05 530.8C85.32 531.1 86.6 531.38 87.88 531.65C89.16 531.91 90.45 532.15 91.73 532.38C93.02 532.61 94.31 532.82 95.6 533.02C95.92 533.07 96.25 533.12 96.57 533.17C96.89 533.22 97.22 533.27 97.54 533.32C98.19 533.42 98.83 533.51 99.48 533.6C100.13 533.69 100.77 533.79 101.42 533.88C102.06 533.97 102.72 534.06 103.36 534.16C104.01 534.25 104.65 534.34 105.3 534.44C105.95 534.53 106.59 534.63 107.24 534.72C108.53 534.91 109.82 535.1 111.11 535.3C112.4 535.5 113.68 535.71 114.97 535.93C116.26 536.15 117.54 536.38 118.82 536.62C120.1 536.86 121.38 537.11 122.65 537.38C125.21 537.92 127.73 538.5 130.27 539.15C131.54 539.47 132.8 539.81 134.06 540.16C134.22 540.2 134.37 540.25 134.53 540.29L135 540.42C135.31 540.51 135.63 540.6 135.94 540.69C136.57 540.87 137.2 541.05 137.82 541.24C139.07 541.61 140.33 542 141.57 542.39C142.82 542.78 144.06 543.19 145.31 543.6C147.79 544.42 150.28 545.29 152.73 546.19C155.18 547.08 157.64 548.02 160.07 548.99C161.29 549.47 162.5 549.97 163.71 550.47C164.92 550.97 166.12 551.48 167.32 552C168.52 552.52 169.71 553.05 170.9 553.59L171.35 553.79C171.5 553.86 171.65 553.93 171.79 553.99C172.09 554.13 172.38 554.27 172.68 554.4C173.27 554.68 173.86 554.96 174.44 555.24C175.61 555.81 176.78 556.39 177.94 556.98C179.1 557.57 180.25 558.18 181.4 558.8C182.55 559.42 183.68 560.05 184.82 560.7C185.95 561.35 187.08 562 188.2 562.67C189.32 563.34 190.43 564.02 191.54 564.71C192.65 565.4 193.75 566.1 194.85 566.81C195.95 567.52 197.04 568.23 198.14 568.95C198.69 569.31 199.23 569.67 199.78 570.03C200.33 570.39 200.87 570.75 201.42 571.12C201.97 571.49 202.5 571.84 203.06 572.21C203.33 572.39 203.6 572.57 203.88 572.75C204.15 572.93 204.42 573.11 204.7 573.29C205.25 573.65 205.79 574.01 206.34 574.37C206.89 574.73 207.43 575.09 207.98 575.45C209.08 576.16 210.17 576.87 211.28 577.57C212.39 578.27 213.49 578.96 214.61 579.63C215.73 580.31 216.85 580.97 217.98 581.61C219.11 582.26 223.69 584.67 224.84 585.29L224.78 585.26C224.95 585.35 225.13 585.44 225.3 585.53L225.81 585.79C225.98 585.87 226.14 585.96 226.31 586.04C226.47 586.12 226.63 586.2 226.8 586.28C226.96 586.36 227.12 586.44 227.28 586.52C227.44 586.6 227.59 586.67 227.75 586.75C227.9 586.82 228.06 586.9 228.21 586.97C228.36 587.04 228.51 587.11 228.66 587.18L229.1 587.39C229.24 587.46 229.39 587.52 229.53 587.59C229.81 587.72 230.1 587.85 230.38 587.98C230.65 588.1 230.93 588.23 231.2 588.35C231.47 588.47 231.73 588.59 232 588.71L232.78 589.06C233.04 589.17 233.29 589.29 233.55 589.4C233.8 589.51 234.06 589.62 234.31 589.74C234.56 589.85 234.81 589.96 235.06 590.08C235.31 590.19 235.56 590.3 235.8 590.41C236.05 590.52 236.29 590.63 236.54 590.74C237.03 590.96 237.52 591.19 238.01 591.42C238.28 591.54 238.54 591.67 238.8 591.79C239.07 591.91 239.33 592.04 239.6 592.16C239.87 592.29 240.13 592.41 240.4 592.54C240.67 592.67 240.94 592.8 241.2 592.92C241.47 593.05 241.74 593.18 242.01 593.31C242.28 593.44 242.55 593.57 242.83 593.7C243.1 593.83 243.38 593.96 243.65 594.09C243.93 594.22 244.2 594.35 244.48 594.48C244.76 594.61 245.03 594.74 245.31 594.87C245.59 595 245.87 595.13 246.15 595.26C246.72 595.52 247.28 595.77 247.85 596.02C248.42 596.27 248.99 596.51 249.57 596.75C250.15 596.99 250.73 597.22 251.31 597.45C251.87 597.67 252.44 597.89 253.01 598.1C253.58 598.31 254.15 598.52 254.72 598.72C255.29 598.92 255.87 599.12 256.44 599.32C257.02 599.51 257.59 599.71 258.17 599.89C258.75 600.08 259.33 600.26 259.91 600.45C260.2 600.54 260.49 600.64 260.78 600.73L261.65 601.01C262.23 601.2 262.81 601.38 263.39 601.57C263.97 601.76 264.55 601.95 265.13 602.15C265.67 602.33 266.22 602.52 266.76 602.71C267.3 602.9 267.85 603.1 268.39 603.3C268.66 603.4 268.93 603.5 269.21 603.61C269.48 603.72 269.76 603.82 270.03 603.93C270.31 604.04 270.58 604.15 270.85 604.26C271.13 604.37 271.4 604.49 271.68 604.6C271.96 604.72 272.23 604.83 272.51 604.95C272.79 605.07 273.07 605.19 273.35 605.31C273.63 605.43 273.92 605.56 274.2 605.68C274.49 605.81 274.77 605.94 275.06 606.07C275.35 606.2 275.64 606.34 275.93 606.47C276.22 606.61 276.52 606.74 276.81 606.88C277.41 607.17 278.02 607.46 278.62 607.75C278.86 607.86 279.09 607.98 279.33 608.09C279.39 608.12 279.45 608.15 279.51 608.18C279.52 608.18 279.54 608.19 279.55 608.2C279.56 608.2 279.58 608.21 279.59 608.22C279.62 608.23 279.65 608.25 279.68 608.26C279.8 608.32 279.92 608.38 280.04 608.44C280.28 608.56 280.53 608.68 280.77 608.8L281.51 609.17C281.76 609.3 282.02 609.42 282.27 609.55C282.53 609.68 282.79 609.81 283.04 609.94C283.29 610.07 283.57 610.2 283.83 610.34C284.1 610.47 284.37 610.61 284.64 610.74C284.91 610.88 285.19 611.02 285.46 611.15C285.74 611.29 286.02 611.43 286.3 611.57C286.59 611.71 286.87 611.86 287.16 612L288.03 612.43L288.92 612.87C289.22 613.02 289.52 613.17 289.83 613.32C290.14 613.47 290.44 613.62 290.75 613.78C291.06 613.93 291.38 614.09 291.69 614.24C292.21 614.49 292.72 614.75 293.24 615C293.77 615.26 294.3 615.51 294.83 615.77C295.37 616.03 295.91 616.29 296.45 616.55C297 616.81 297.55 617.08 298.1 617.34C299.22 617.87 300.34 618.4 301.47 618.93C302.61 619.46 303.75 619.99 304.89 620.52C305.48 620.79 306.07 621.06 306.66 621.33C306.81 621.4 306.95 621.46 307.1 621.53C307.17 621.56 307.25 621.6 307.32 621.63C307.36 621.65 307.39 621.66 307.43 621.68C307.47 621.7 307.5 621.71 307.54 621.73C307.83 621.86 308.12 622 308.42 622.13C309.57 622.65 310.71 623.16 311.86 623.68C312.41 623.93 312.97 624.17 313.53 624.42C314.07 624.66 314.61 624.9 315.15 625.13C315.67 625.36 316.2 625.59 316.72 625.81C317.23 626.03 317.73 626.25 318.24 626.47C318.58 626.62 318.93 626.77 319.27 626.92C319.61 627.06 319.94 627.21 320.28 627.35C320.61 627.49 320.93 627.63 321.26 627.77C321.58 627.9 321.89 628.04 322.21 628.17C322.52 628.3 322.82 628.43 323.13 628.56C323.43 628.69 323.72 628.81 324.02 628.94C324.31 629.06 324.59 629.18 324.88 629.3C325.16 629.42 325.44 629.54 325.71 629.65C325.98 629.76 326.25 629.88 326.52 630C326.78 630.11 327.04 630.22 327.3 630.34C327.55 630.45 327.81 630.56 328.06 630.67C328.31 630.78 328.55 630.89 328.8 631C329.04 631.11 329.28 631.22 329.53 631.33C329.77 631.44 330 631.55 330.24 631.65C330.71 631.87 331.17 632.08 331.63 632.31" stroke="#FF0000" stroke-width="1.5" stroke-linecap="round" stroke-linejoin="round"/>
<path d="M32.11 415C32.11 415.65 32.1 416.31 32.1 416.96C32.1 417.61 32.1 418.27 32.1 418.92C32.1 419.57 32.1 420.23 32.1 420.88C32.1 421.53 32.1 422.19 32.1 422.84C32.1 423.49 32.1 424.15 32.11 424.81C32.11 425.47 32.11 426.11 32.12 426.77C32.12 427.43 32.12 428.08 32.13 428.74C32.13 429.4 32.13 430.05 32.13 430.7C32.13 432.02 32.13 433.31 32.13 434.63C32.13 435.95 32.13 437.24 32.12 438.55C32.12 439.2 32.12 439.86 32.11 440.51C32.11 441.16 32.1 441.81 32.09 442.47C32.09 443.13 32.08 443.77 32.07 444.43C32.07 445.09 32.06 445.73 32.05 446.39C32.05 447.04 32.04 447.7 32.03 448.35C32.03 449 32.02 449.66 32.01 450.31C32.01 450.96 32 451.62 32 452.27C32 452.6 32 452.92 32 453.25C32 453.41 32 453.58 32 453.74V454.23C32 455.54 32 456.84 32.02 458.15C32.04 459.46 32.07 460.77 32.11 462.07C32.15 463.38 32.21 464.69 32.29 466C32.37 467.31 32.47 468.62 32.58 469.93C32.7 471.24 32.84 472.55 33 473.85C33.16 475.15 33.36 476.46 33.57 477.75C33.78 479.04 34.03 480.34 34.31 481.63C34.59 482.92 34.89 484.2 35.23 485.47C35.57 486.74 35.93 488 36.34 489.25C36.54 489.88 36.75 490.5 36.97 491.11C37.02 491.27 37.08 491.42 37.13 491.57C37.16 491.65 37.19 491.72 37.21 491.8L37.29 492.03C37.4 492.34 37.52 492.64 37.64 492.95C38.11 494.17 38.62 495.37 39.16 496.56C39.7 497.74 40.28 498.91 40.89 500.06C41.5 501.2 42.15 502.33 42.84 503.43C43.53 504.53 44.25 505.6 45.01 506.65C46.53 508.75 48.19 510.73 49.99 512.59C51.79 514.46 53.72 516.2 55.76 517.8C56.78 518.61 57.83 519.38 58.91 520.11C59.45 520.48 59.99 520.84 60.54 521.19C60.61 521.23 60.68 521.28 60.75 521.32C60.82 521.36 60.89 521.41 60.96 521.45C61.1 521.54 61.24 521.62 61.38 521.71C61.66 521.88 61.94 522.05 62.22 522.22C63.34 522.89 64.49 523.53 65.65 524.13C66.81 524.73 67.99 525.3 69.19 525.84C70.38 526.37 71.59 526.88 72.81 527.35C74.03 527.82 75.26 528.26 76.5 528.67C77.74 529.08 78.99 529.46 80.25 529.81C81.51 530.16 82.77 530.49 84.05 530.8C85.32 531.1 86.6 531.38 87.88 531.65C89.16 531.91 90.45 532.15 91.73 532.38C93.02 532.61 94.31 532.82 95.6 533.02C95.92 533.07 96.25 533.12 96.57 533.17C96.89 533.22 97.22 533.27 97.54 533.32C98.19 533.42 98.83 533.51 99.48 533.6C100.13 533.69 100.77 533.79 101.42 533.88C102.06 533.97 102.72 534.06 103.36 534.16C104.01 534.25 104.65 534.34 105.3 534.44C105.95 534.53 106.59 534.63 107.24 534.72C108.53 534.91 109.82 535.1 111.11 535.3C112.4 535.5 113.68 535.71 114.97 535.93C116.26 536.15 117.54 536.38 118.82 536.62C120.1 536.86 121.38 537.11 122.65 537.38C125.21 537.92 127.73 538.5 130.27 539.15C131.54 539.47 132.8 539.81 134.06 540.16C134.22 540.2 134.37 540.25 134.53 540.29L135 540.42C135.31 540.51 135.63 540.6 135.94 540.69C136.57 540.87 137.2 541.05 137.82 541.24C139.07 541.61 140.33 542 141.57 542.39C142.82 542.78 144.06 543.19 145.31 543.6C147.79 544.42 150.28 545.29 152.73 546.19C155.18 547.08 157.64 548.02 160.07 548.99C161.29 549.47 162.5 549.97 163.71 550.47C164.92 550.97 166.12 551.48 167.32 552C168.52 552.52 169.71 553.05 170.9 553.59L171.35 553.79C171.5 553.86 171.65 553.93 171.79 553.99C172.09 554.13 172.38 554.27 172.68 554.4C173.27 554.68 173.86 554.96 174.44 555.24C175.61 555.81 176.78 556.39 177.94 556.98C179.1 557.57 180.25 558.18 181.4 558.8C182.55 559.42 183.68 560.05 184.82 560.7C184.82 560.7 186.7 558.76 187.66 557.77C188.6 556.79 189.51 555.78 190.38 554.75C190.82 554.23 191.25 553.7 191.68 553.16C192.1 552.63 192.52 552.08 192.93 551.54C193.34 550.99 193.74 550.44 194.14 549.89C194.54 549.34 194.93 548.78 195.32 548.22C195.71 547.66 196.09 547.09 196.47 546.53C196.85 545.96 197.22 545.39 197.59 544.82C197.96 544.25 198.33 543.67 198.69 543.09C199.05 542.51 199.42 541.93 199.78 541.35C200.14 540.77 200.49 540.19 200.85 539.6C201.2 539.02 201.56 538.43 201.91 537.85C202.61 536.68 203.31 535.49 203.99 534.32C204.67 533.14 205.36 531.95 206.02 530.76C206.36 530.17 206.69 529.57 207.02 528.97C207.35 528.37 207.68 527.78 208 527.18C208.33 526.58 208.65 525.98 208.97 525.37C209.29 524.77 209.61 524.16 209.92 523.56C210.23 522.96 210.54 522.35 210.85 521.74C211.15 521.13 211.45 520.52 211.75 519.9C212.04 519.28 212.33 518.67 212.62 518.04C212.9 517.42 213.18 516.8 213.45 516.17C213.72 515.54 213.98 514.91 214.23 514.28C214.48 513.65 214.73 513.01 214.96 512.37C215.43 511.09 215.85 509.8 216.22 508.5C216.6 507.18 216.92 505.85 217.18 504.5" stroke="#FF0000" stroke-width="1.5" stroke-linecap="round" stroke-linejoin="round"/>
</g>
<defs>
<clipPath id="clip0_382_389">
<rect width="1920" height="1080" fill="white"/>
</clipPath>
</defs>
</svg>
